<?xml version="1.0" encoding="UTF-8"?>
<svg xmlns="http://www.w3.org/2000/svg" xmlns:xlink="http://www.w3.org/1999/xlink" width="375pt" height="374.999991pt" viewBox="0 0 375 374.999991" version="1.2">
<g id="surface1">
<path style=" stroke:none;fill-rule:nonzero;fill:rgb(15.289307%,13.729858%,26.269531%);fill-opacity:1;" d="M 63.789062 211.070312 L 141.523438 211.070312 C 143.886719 211.070312 145.785156 213.003906 145.785156 215.367188 C 145.753906 217.699219 143.886719 219.601562 141.523438 219.601562 L 63.789062 219.601562 C 61.421875 219.601562 59.527344 217.667969 59.527344 215.300781 C 59.558594 212.96875 61.457031 211.070312 63.789062 211.070312 Z M 63.789062 193.042969 L 141.523438 193.042969 C 143.886719 193.113281 145.71875 195.078125 145.652344 197.441406 C 145.585938 199.707031 143.789062 201.507812 141.523438 201.574219 L 63.789062 201.574219 C 61.421875 201.507812 59.558594 199.542969 59.660156 197.175781 C 59.726562 194.945312 61.523438 193.113281 63.789062 193.042969 Z M 267.734375 161.125 L 284.011719 161.125 L 284.011719 205.140625 L 267.734375 205.140625 Z M 192.460938 142.566406 L 208.707031 142.566406 L 208.707031 205.140625 L 192.460938 205.140625 Z M 305.386719 127.773438 L 321.632812 127.773438 L 321.632812 205.140625 L 305.386719 205.140625 Z M 230.082031 118.011719 L 246.359375 118.011719 L 246.359375 205.105469 L 230.082031 205.105469 Z M 324.929688 81.027344 L 324.328125 97.453125 L 320.269531 94.386719 L 292.703125 131.238281 C 287.074219 138.769531 276.390625 140.335938 268.832031 134.671875 C 267.167969 133.4375 265.769531 131.871094 264.636719 130.140625 L 246.058594 100.652344 C 243.5625 96.6875 238.304688 95.488281 234.308594 98.019531 C 233.542969 98.488281 232.875 99.085938 232.3125 99.785156 L 208.339844 128.640625 L 201.75 123.207031 L 225.71875 94.320312 C 231.746094 87.058594 242.5 86.058594 249.722656 92.089844 C 251.121094 93.222656 252.285156 94.589844 253.285156 96.121094 L 271.863281 125.574219 C 274.359375 129.539062 279.617188 130.738281 283.613281 128.207031 C 284.511719 127.671875 285.246094 126.941406 285.878906 126.109375 L 313.441406 89.289062 L 309.316406 86.226562 Z M 163.695312 75.863281 C 164.460938 75.796875 165.195312 76.128906 165.660156 76.761719 L 169.257812 81.628906 C 169.957031 82.527344 169.855469 83.792969 169.023438 84.59375 C 143.023438 109.582031 121.582031 138.96875 105.667969 171.386719 C 105.136719 172.488281 103.769531 172.953125 102.640625 172.386719 C 102.4375 172.289062 102.238281 172.152344 102.074219 171.988281 L 57.09375 127.839844 C 56.164062 127.007812 56.128906 125.574219 56.960938 124.675781 C 56.996094 124.640625 57.027344 124.574219 57.09375 124.542969 L 68.449219 114.613281 L 68.546875 114.613281 C 69.347656 113.914062 70.511719 113.878906 71.378906 114.546875 L 96.179688 133.238281 C 114.957031 110.546875 137.460938 91.289062 162.730469 76.195312 C 163.03125 75.996094 163.363281 75.894531 163.695312 75.863281 Z M 7.390625 14.457031 C 3.328125 14.457031 0 17.789062 0 21.886719 L 0 272.578125 C 0 276.640625 3.296875 279.972656 7.390625 279.972656 L 149.980469 279.972656 C 154.074219 279.972656 157.402344 283.304688 157.402344 287.371094 L 157.402344 300.863281 C 157.402344 325.421875 137.496094 345.3125 112.960938 345.34375 L 109.429688 345.34375 L 109.429688 360.539062 L 265.570312 360.539062 L 265.570312 345.34375 L 262.039062 345.34375 C 237.503906 345.34375 217.597656 325.421875 217.597656 300.863281 L 217.597656 287.371094 C 217.597656 283.304688 220.925781 279.972656 225.019531 279.972656 L 367.609375 279.972656 C 371.671875 279.972656 375 276.675781 375 272.578125 L 375 21.886719 C 375 17.789062 371.671875 14.457031 367.609375 14.457031 L 7.390625 14.457031 "/>
</g>
</svg>
