<?xml version="1.0" encoding="UTF-8"?>
<svg xmlns="http://www.w3.org/2000/svg" xmlns:xlink="http://www.w3.org/1999/xlink" width="375pt" height="374.999991pt" viewBox="0 0 375 374.999991" version="1.2">
<defs>
<clipPath id="clip1">
  <path d="M 28.359375 0 L 346 0 L 346 375 L 28.359375 375 Z M 28.359375 0 "/>
</clipPath>
</defs>
<g id="surface1">
<path style=" stroke:none;fill-rule:nonzero;fill:rgb(13.729858%,12.159729%,12.548828%);fill-opacity:1;" d="M 223.617188 137.285156 L 218.242188 138.773438 L 218.355469 139.183594 C 219.097656 141.878906 221.707031 143.609375 224.476562 143.226562 C 227.242188 142.851562 229.304688 140.492188 229.304688 137.695312 C 229.304688 137.03125 229.199219 136.441406 229.054688 135.949219 C 228.917969 135.457031 228.738281 135.054688 228.566406 134.722656 C 227.257812 132.175781 224.242188 131.039062 221.582031 132.082031 C 218.917969 133.132812 217.476562 136.011719 218.242188 138.773438 L 223.617188 137.285156 L 218.660156 139.847656 L 222.617188 137.800781 L 218.335938 139.03125 C 218.441406 139.386719 218.558594 139.648438 218.660156 139.847656 L 222.617188 137.800781 L 218.335938 139.03125 L 222.980469 137.695312 L 218.152344 137.695312 C 218.152344 138.21875 218.234375 138.671875 218.335938 139.03125 L 222.980469 137.695312 L 218.152344 137.695312 L 223.730469 137.695312 L 229.097656 136.207031 L 228.984375 135.796875 L 223.617188 137.285156 L 218.660156 139.847656 L 223.617188 137.285156 "/>
<path style=" stroke:none;fill-rule:nonzero;fill:rgb(13.729858%,12.159729%,12.548828%);fill-opacity:1;" d="M 97.394531 137.289062 L 92.320312 134.976562 C 92.1875 135.277344 92.042969 135.644531 91.925781 136.09375 C 91.808594 136.542969 91.71875 137.085938 91.71875 137.695312 C 91.71875 140.511719 93.828125 142.898438 96.617188 143.242188 C 99.410156 143.582031 102.03125 141.769531 102.707031 139.039062 L 102.804688 138.632812 C 103.5 135.835938 101.945312 132.964844 99.230469 132.015625 C 96.511719 131.066406 93.511719 132.355469 92.320312 134.976562 L 97.394531 137.289062 L 91.980469 135.945312 L 91.882812 136.351562 L 97.296875 137.695312 L 102.871094 137.695312 L 98.101562 137.695312 L 102.71875 138.890625 C 102.800781 138.578125 102.871094 138.171875 102.871094 137.695312 L 98.101562 137.695312 L 102.71875 138.890625 L 98.515625 137.800781 L 102.472656 139.605469 C 102.542969 139.4375 102.636719 139.207031 102.71875 138.890625 L 98.515625 137.800781 L 102.472656 139.605469 L 97.394531 137.289062 L 91.980469 135.945312 L 97.394531 137.289062 "/>
<g clip-path="url(#clip1)" clip-rule="nonzero">
<path style=" stroke:none;fill-rule:nonzero;fill:rgb(13.729858%,12.159729%,12.548828%);fill-opacity:1;" d="M 327.230469 234.179688 L 324.792969 229.15625 L 325.808594 231.242188 L 325.808594 228.925781 C 325.472656 228.917969 325.109375 229 324.792969 229.15625 L 325.808594 231.242188 L 325.808594 228.925781 L 325.808594 231.222656 L 327.003906 229.261719 C 326.644531 229.039062 326.238281 228.925781 325.808594 228.925781 L 325.808594 231.222656 L 327.003906 229.261719 L 325.789062 231.25 L 327.886719 230.230469 C 327.691406 229.824219 327.367188 229.476562 327.003906 229.261719 L 325.789062 231.25 L 327.886719 230.230469 L 322.871094 232.671875 L 328.101562 230.742188 L 328.042969 230.578125 L 322.8125 232.511719 L 326.683594 236.53125 C 327.996094 235.261719 329.488281 233.949219 331.03125 232.617188 L 327.378906 228.390625 L 324.679688 233.277344 L 325.804688 231.246094 L 323.722656 232.257812 C 323.9375 232.710938 324.308594 233.078125 324.679688 233.277344 L 325.804688 231.246094 L 323.722656 232.257812 L 323.722656 232.261719 L 325.8125 231.242188 L 323.484375 231.242188 C 323.484375 231.578125 323.566406 231.945312 323.722656 232.261719 L 325.8125 231.242188 L 323.484375 231.242188 L 325.792969 231.242188 L 323.824219 230.035156 C 323.605469 230.394531 323.484375 230.800781 323.484375 231.242188 L 325.792969 231.242188 L 323.824219 230.035156 L 325.792969 231.246094 L 324.78125 229.164062 C 324.382812 229.355469 324.039062 229.675781 323.824219 230.035156 L 325.792969 231.246094 L 324.78125 229.164062 L 324.792969 229.15625 L 327.230469 234.179688 L 329.6875 239.191406 C 331.234375 238.433594 332.492188 237.25 333.335938 235.867188 C 334.179688 234.480469 334.636719 232.886719 334.636719 231.242188 C 334.636719 229.945312 334.351562 228.605469 333.746094 227.367188 L 333.75 227.367188 C 332.921875 225.664062 331.582031 224.332031 330.082031 223.503906 C 328.035156 222.371094 325.5 222.636719 323.730469 224.171875 C 322.167969 225.527344 320.527344 226.957031 318.941406 228.488281 C 317.359375 230.019531 316.816406 232.367188 317.578125 234.441406 L 317.640625 234.605469 C 317.71875 234.824219 317.757812 234.910156 317.863281 235.121094 C 318.617188 236.683594 319.804688 237.949219 321.191406 238.789062 C 322.574219 239.636719 324.164062 240.089844 325.808594 240.089844 C 327.097656 240.09375 328.4375 239.800781 329.671875 239.199219 L 329.6875 239.191406 Z M 325.785156 241.078125 L 328.230469 246.097656 L 342.542969 239.109375 C 343.941406 238.429688 344.976562 237.214844 345.429688 235.730469 C 345.886719 234.242188 345.710938 232.660156 344.9375 231.3125 L 338.425781 219.933594 L 333.585938 222.710938 L 337.707031 226.476562 L 337.878906 226.289062 L 333.757812 222.527344 L 337.816406 226.359375 C 338.046875 226.109375 338.269531 225.863281 338.484375 225.625 L 334.328125 221.902344 L 338.425781 225.691406 L 338.480469 225.632812 C 338.699219 225.394531 338.835938 225.21875 339.019531 224.945312 L 339.027344 224.929688 L 334.390625 221.832031 L 338.566406 225.535156 C 339.675781 224.269531 340.722656 222.910156 341.570312 221.320312 L 341.574219 221.308594 C 342.589844 219.398438 342.980469 217.339844 342.972656 215.417969 C 342.957031 212.246094 342.027344 209.363281 340.75 206.609375 C 338.796875 202.484375 335.925781 198.605469 332.734375 195.234375 C 331.140625 193.546875 329.457031 192 327.738281 190.644531 C 326.015625 189.289062 324.265625 188.125 322.4375 187.222656 C 320.230469 186.136719 317.882812 185.703125 315.664062 185.707031 C 315.640625 185.707031 315.574219 185.707031 315.457031 185.707031 L 315.597656 191.292969 L 319.539062 187.34375 L 319.535156 187.339844 L 315.59375 191.289062 L 320.429688 188.511719 L 319.328125 186.585938 C 317.871094 184.039062 314.679688 183.054688 312.046875 184.339844 L 308.164062 186.238281 L 310.605469 191.257812 L 315.613281 188.808594 L 305.042969 167.089844 L 300.035156 169.535156 L 305.085938 167.175781 C 302.980469 162.640625 302.476562 159.605469 302.476562 157.632812 C 302.488281 156.027344 302.777344 155.066406 303.113281 154.222656 L 297.957031 152.105469 L 302.816406 154.835938 C 303.425781 153.75 303.972656 152.609375 304.4375 151.433594 L 304.503906 151.269531 L 304.507812 151.257812 L 299.269531 149.351562 L 293.691406 149.351562 C 293.691406 152.03125 295.589844 154.328125 298.21875 154.835938 C 300.84375 155.339844 303.457031 153.90625 304.445312 151.414062 C 306.050781 147.371094 306.789062 143.019531 306.792969 138.730469 C 306.785156 133.929688 305.871094 129.183594 303.835938 124.980469 C 302.511719 122.265625 300.664062 119.660156 298.460938 117.144531 C 295.148438 113.386719 291.023438 109.867188 286.472656 107.160156 C 284.195312 105.8125 281.808594 104.664062 279.332031 103.828125 C 276.851562 103.003906 274.269531 102.480469 271.609375 102.480469 C 269.070312 102.476562 266.429688 102.972656 263.972656 104.183594 L 263.980469 104.179688 C 261.585938 105.34375 259.601562 107.0625 258.058594 109.007812 C 255.734375 111.949219 254.300781 115.375 253.382812 118.945312 C 252.46875 122.519531 252.082031 126.265625 252.078125 129.976562 C 252.082031 133.34375 252.402344 136.679688 253.011719 139.804688 C 253.632812 142.929688 254.519531 145.847656 255.785156 148.445312 C 257.996094 152.964844 261.492188 156.847656 265.648438 159.914062 C 269.820312 162.96875 274.6875 165.21875 279.886719 166.035156 L 280.738281 160.515625 L 279.222656 165.886719 C 279.714844 166.027344 280.21875 166.210938 280.792969 166.511719 C 281.65625 166.960938 282.695312 167.671875 283.957031 169.039062 C 285.214844 170.398438 286.675781 172.433594 288.207031 175.460938 L 293.183594 172.933594 L 288.167969 175.378906 L 288.96875 177.027344 L 288.957031 177.003906 L 289.027344 177.144531 C 290.160156 179.503906 292.746094 180.75 295.289062 180.171875 C 297.835938 179.589844 299.628906 177.339844 299.628906 174.722656 L 294.054688 174.722656 L 289.039062 177.171875 L 298.714844 197.0625 L 303.726562 194.617188 L 301.285156 189.59375 L 297.398438 191.492188 C 294.769531 192.777344 293.574219 195.894531 294.675781 198.613281 L 295.609375 200.914062 L 300.773438 198.8125 L 296.664062 195.042969 C 295.832031 195.953125 295.0625 196.914062 294.378906 197.917969 C 293.753906 198.839844 293.417969 199.941406 293.417969 201.058594 L 298.992188 201.058594 L 294.378906 197.921875 C 293.609375 199.058594 292.933594 200.265625 292.40625 201.554688 C 291.878906 202.851562 291.496094 204.234375 291.363281 205.730469 C 291.308594 206.320312 291.285156 206.902344 291.285156 207.476562 C 291.285156 209.953125 291.753906 212.207031 292.425781 214.140625 C 293.429688 217.050781 294.863281 219.285156 295.929688 220.824219 C 296.460938 221.585938 296.910156 222.191406 297.101562 222.476562 L 297.179688 222.597656 L 297.519531 222.382812 L 297.175781 222.589844 L 297.179688 222.597656 L 297.519531 222.382812 L 297.175781 222.589844 L 299.902344 220.96875 L 296.972656 222.160156 C 297.09375 222.457031 297.160156 222.558594 297.175781 222.589844 L 299.902344 220.96875 L 296.972656 222.160156 L 301.546875 220.300781 L 296.625 220.300781 C 296.640625 221.363281 296.867188 221.859375 296.972656 222.160156 L 301.546875 220.300781 L 296.625 220.300781 L 301.757812 220.300781 L 296.707031 219.382812 C 296.671875 219.582031 296.625 219.851562 296.625 220.300781 L 301.757812 220.300781 L 296.707031 219.382812 L 300.695312 220.109375 L 296.859375 218.78125 C 296.832031 218.867188 296.777344 218.996094 296.707031 219.382812 L 300.695312 220.109375 L 296.859375 218.78125 L 298.523438 219.355469 L 296.878906 218.71875 L 296.859375 218.78125 L 298.523438 219.355469 L 296.878906 218.71875 L 297.082031 218.796875 L 296.878906 218.71875 L 297.082031 218.796875 L 296.878906 218.71875 C 296.875 218.730469 296.8125 218.875 296.71875 219.070312 C 296.382812 219.773438 295.664062 221.101562 294.855469 222.527344 C 294.039062 223.96875 293.113281 225.550781 292.28125 226.957031 L 297.082031 229.804688 L 298.445312 224.386719 C 296.71875 223.953125 295.136719 223.609375 293.695312 223.359375 C 292.242188 223.121094 290.960938 222.964844 289.648438 222.960938 C 289.242188 222.960938 288.824219 222.976562 288.371094 223.023438 C 287.683594 223.105469 286.925781 223.222656 285.894531 223.6875 C 285.382812 223.933594 284.789062 224.28125 284.1875 224.847656 C 283.589844 225.410156 283.003906 226.226562 282.664062 227.175781 L 287.902344 229.082031 L 283.207031 226.074219 C 282.601562 227.023438 282.035156 228.039062 281.535156 229.136719 L 281.542969 229.117188 L 261.328125 273.035156 L 240.289062 275.453125 L 240.925781 281.003906 L 242.019531 286.480469 L 242.03125 286.480469 C 244.902344 285.902344 246.84375 283.1875 246.464844 280.277344 C 246.085938 277.371094 243.515625 275.246094 240.59375 275.425781 L 240.789062 278.605469 L 240.691406 275.421875 L 240.59375 275.425781 L 240.789062 278.605469 L 240.691406 275.421875 L 240.648438 275.421875 C 240.34375 275.421875 238.046875 275.378906 233.953125 273.996094 C 229.863281 272.601562 223.96875 269.863281 216.515625 264.394531 L 213.222656 268.902344 L 213.304688 274.488281 C 218.644531 274.40625 221.859375 274.347656 221.859375 274.347656 C 224.25 274.308594 226.355469 272.738281 227.078125 270.457031 C 227.804688 268.175781 226.992188 265.679688 225.066406 264.261719 L 223.300781 266.667969 L 225.09375 264.28125 L 225.066406 264.261719 L 223.300781 266.667969 L 225.09375 264.28125 L 225.027344 264.230469 C 224.6875 263.972656 223.09375 262.632812 221.742188 260.757812 C 221.066406 259.816406 220.453125 258.757812 220.027344 257.664062 C 219.605469 256.566406 219.359375 255.449219 219.359375 254.285156 C 219.359375 253.53125 219.457031 252.757812 219.695312 251.910156 L 214.332031 250.382812 L 210.507812 254.445312 C 210.738281 254.660156 212.394531 256.210938 215.207031 257.796875 C 216.617188 258.59375 218.320312 259.394531 220.296875 260.019531 C 222.277344 260.632812 224.539062 261.066406 227.007812 261.066406 C 229.25 261.066406 231.664062 260.699219 234.085938 259.835938 L 234.09375 259.832031 C 236.550781 258.953125 238.914062 257.8125 241.082031 256.3125 C 244.335938 254.085938 247.140625 250.996094 248.988281 247.136719 C 250.847656 243.28125 251.765625 238.757812 251.761719 233.648438 C 251.761719 231.339844 251.574219 228.90625 251.214844 226.324219 C 250.851562 223.785156 248.832031 221.832031 246.289062 221.558594 C 243.742188 221.285156 241.355469 222.761719 240.464844 225.164062 L 242.847656 226.054688 L 240.476562 225.136719 L 240.464844 225.164062 L 242.847656 226.054688 L 240.476562 225.136719 C 240.484375 225.148438 239.515625 227.53125 237.898438 229.527344 C 237.101562 230.527344 236.164062 231.410156 235.242188 231.96875 C 234.78125 232.25 234.320312 232.457031 233.859375 232.597656 C 233.394531 232.738281 232.925781 232.816406 232.371094 232.816406 C 231.78125 232.816406 231.101562 232.726562 230.25 232.457031 C 229.40625 232.1875 228.390625 231.734375 227.214844 230.992188 C 226.464844 230.515625 225.898438 230.011719 225.417969 229.4375 C 224.707031 228.589844 224.1875 227.566406 223.8125 226.28125 C 223.441406 224.992188 223.25 223.453125 223.25 221.75 C 223.25 220.265625 223.394531 218.679688 223.648438 217.066406 L 223.648438 217.0625 C 223.699219 216.75 223.847656 216.203125 224.148438 215.46875 C 224.664062 214.171875 225.648438 212.328125 226.847656 210.050781 C 228.644531 206.625 230.894531 202.183594 232.648438 196.503906 C 234.414062 190.816406 235.671875 183.890625 235.667969 175.460938 C 235.667969 167.226562 234.480469 157.570312 231.488281 146.117188 L 231.488281 146.113281 C 230.703125 143.148438 229.953125 139.300781 228.414062 134.90625 L 223.15625 136.753906 L 219.550781 141.015625 L 221.515625 138.695312 L 219.234375 140.699219 C 219.390625 140.871094 219.496094 140.96875 219.550781 141.015625 L 221.515625 138.695312 L 219.234375 140.699219 L 222.429688 137.890625 L 218.648438 139.832031 C 218.867188 140.253906 219.078125 140.519531 219.234375 140.699219 L 222.429688 137.890625 L 218.648438 139.832031 C 219.957031 142.382812 222.972656 143.53125 225.636719 142.492188 C 228.300781 141.453125 229.75 138.5625 228.992188 135.800781 L 218.824219 98.820312 L 218.804688 98.773438 L 218.804688 98.765625 L 213.445312 100.300781 L 215.527344 105.484375 C 222.703125 102.585938 228.816406 97.636719 233.140625 91.34375 C 237.46875 85.0625 240.011719 77.402344 240.007812 69.203125 C 240.011719 58.425781 235.632812 48.617188 228.578125 41.558594 C 221.535156 34.492188 211.746094 30.109375 200.988281 30.109375 C 197.683594 30.109375 194.476562 30.523438 191.410156 31.304688 L 192.773438 36.714844 L 198.335938 36.316406 C 197.609375 26.183594 193.023438 17.105469 186.058594 10.585938 C 179.109375 4.0625 169.703125 0.0507812 159.421875 0.0507812 C 149.144531 0.0507812 139.738281 4.0625 132.78125 10.585938 C 125.824219 17.105469 121.234375 26.183594 120.507812 36.316406 L 126.070312 36.714844 L 127.4375 31.304688 C 124.371094 30.523438 121.15625 30.109375 117.859375 30.109375 C 107.101562 30.109375 97.308594 34.492188 90.265625 41.558594 C 83.214844 48.617188 78.835938 58.425781 78.835938 69.203125 C 78.835938 77.652344 81.527344 85.519531 86.097656 91.914062 C 90.65625 98.304688 97.09375 103.261719 104.621094 105.984375 L 106.511719 100.726562 L 100.9375 100.726562 L 100.9375 100.730469 L 106.511719 100.730469 L 101.101562 99.378906 L 91.984375 135.9375 C 91.289062 138.734375 92.824219 141.597656 95.535156 142.554688 C 98.25 143.515625 101.238281 142.253906 102.453125 139.644531 L 98.71875 137.910156 L 101.875 140.554688 C 102.113281 140.269531 102.324219 139.929688 102.453125 139.644531 L 98.71875 137.910156 L 101.875 140.554688 L 97.601562 136.964844 L 92.472656 134.765625 C 89.042969 142.773438 86.773438 152.632812 86.777344 164.484375 C 86.777344 175.578125 88.75 188.417969 93.519531 203.230469 L 93.648438 203.59375 L 93.648438 203.597656 C 93.734375 203.804688 95.625 208.578125 97.460938 214.566406 C 98.378906 217.5625 99.28125 220.859375 99.941406 224 C 100.605469 227.136719 101.007812 230.132812 101 232.332031 C 101 233.183594 100.941406 233.902344 100.851562 234.441406 C 100.761719 234.976562 100.640625 235.316406 100.585938 235.425781 C 100.269531 236.089844 99.957031 236.507812 99.65625 236.816406 C 99.203125 237.273438 98.746094 237.539062 98.128906 237.75 C 97.519531 237.957031 96.75 238.066406 95.957031 238.0625 C 95.042969 238.066406 94.117188 237.921875 93.476562 237.777344 C 93.152344 237.707031 92.898438 237.636719 92.75 237.59375 L 92.605469 237.550781 L 92.597656 237.546875 L 91.851562 239.765625 L 92.640625 237.558594 L 92.597656 237.546875 L 91.851562 239.765625 L 92.640625 237.558594 C 90.660156 236.851562 88.441406 237.320312 86.921875 238.769531 C 85.398438 240.21875 84.816406 242.417969 85.417969 244.425781 C 85.484375 244.632812 85.8125 245.707031 86.535156 247.257812 C 87.628906 249.582031 89.578125 253.027344 93.027344 256.097656 C 94.746094 257.625 96.863281 259.042969 99.382812 260.066406 C 101.894531 261.09375 104.804688 261.707031 107.984375 261.703125 C 110.648438 261.703125 113.492188 261.28125 116.496094 260.394531 L 114.914062 255.035156 L 109.496094 253.726562 L 111.460938 254.203125 L 109.5 253.714844 L 109.496094 253.726562 L 111.460938 254.203125 L 109.5 253.714844 C 109.492188 253.753906 109.042969 255.515625 108.171875 257.519531 L 113.285156 259.742188 L 113.796875 254.179688 C 109.746094 253.804688 106.726562 252.835938 104.773438 252.007812 C 103.800781 251.597656 103.09375 251.21875 102.667969 250.96875 C 102.453125 250.84375 102.308594 250.75 102.238281 250.703125 L 102.183594 250.667969 L 100.609375 252.929688 L 102.238281 250.707031 L 102.183594 250.667969 L 100.609375 252.929688 L 102.238281 250.707031 C 99.828125 248.929688 96.445312 249.378906 94.578125 251.722656 C 92.710938 254.070312 93.027344 257.476562 95.292969 259.433594 L 95.3125 259.457031 L 98.960938 255.226562 L 102.226562 250.703125 L 85.050781 238.253906 L 88.898438 190.042969 L 88.898438 190.0625 C 88.953125 189.371094 88.980469 188.691406 88.980469 188.027344 C 88.980469 187.53125 88.964844 187.058594 88.941406 186.613281 C 88.796875 183.816406 86.621094 181.5625 83.835938 181.332031 L 83.808594 181.332031 L 83.347656 186.898438 L 88.867188 187.667969 C 88.90625 187.390625 88.929688 187.105469 88.929688 186.824219 C 88.929688 185.890625 88.707031 185.054688 88.425781 184.402344 C 87.882812 183.175781 87.238281 182.53125 86.707031 182.035156 C 86.230469 181.601562 85.796875 181.300781 85.375 181.03125 C 84.628906 180.5625 83.902344 180.210938 83.113281 179.863281 C 81.9375 179.355469 80.628906 178.886719 79.152344 178.425781 C 77.683594 177.964844 76.050781 177.515625 74.28125 177.082031 L 72.953125 182.503906 L 78.257812 184.226562 C 78.617188 183.109375 78.957031 182.007812 79.246094 181.089844 C 79.390625 180.636719 79.515625 180.226562 79.621094 179.894531 C 79.722656 179.566406 79.8125 179.308594 79.847656 179.214844 L 79.835938 179.230469 C 80.15625 178.351562 80.421875 177.601562 80.664062 176.769531 C 80.910156 175.941406 81.109375 175.082031 81.285156 174.125 C 81.773438 171.503906 82.023438 168.632812 82.027344 165.746094 C 82.023438 164.011719 81.933594 162.28125 81.726562 160.582031 C 81.402344 158.039062 80.871094 155.597656 79.753906 153.261719 C 79.183594 152.09375 78.449219 150.929688 77.355469 149.867188 C 76.804688 149.335938 76.164062 148.839844 75.429688 148.425781 C 74.695312 148.011719 73.863281 147.6875 72.992188 147.503906 C 72.019531 147.300781 71.042969 147.1875 70.066406 147.1875 C 68.699219 147.1875 67.328125 147.410156 66.042969 147.902344 C 64.113281 148.621094 62.414062 149.992188 61.328125 151.679688 C 60.230469 153.371094 59.730469 155.3125 59.730469 157.1875 C 59.734375 159.269531 60.328125 161.300781 61.386719 163.121094 L 61.382812 163.113281 L 62.410156 162.511719 L 61.246094 162.511719 C 61.238281 162.789062 61.347656 163.074219 61.382812 163.113281 L 62.410156 162.511719 L 61.246094 162.511719 L 62.457031 162.511719 L 61.378906 161.925781 C 61.335938 161.996094 61.246094 162.226562 61.246094 162.511719 L 62.457031 162.511719 L 61.378906 161.925781 L 61.644531 162.070312 L 61.398438 161.882812 L 61.378906 161.925781 L 61.644531 162.070312 L 61.398438 161.882812 C 61.402344 161.886719 61.25 162.042969 61.019531 162.152344 C 60.789062 162.265625 60.496094 162.332031 60.265625 162.332031 L 60.078125 162.320312 L 60.101562 162.324219 C 59.582031 162.257812 58.859375 162.117188 58.160156 161.910156 C 57.632812 161.757812 57.113281 161.5625 56.6875 161.359375 C 56.042969 161.066406 55.644531 160.726562 55.621094 160.679688 L 54.90625 161.222656 L 55.742188 160.921875 C 55.695312 160.78125 55.632812 160.695312 55.621094 160.679688 L 54.90625 161.222656 L 55.742188 160.921875 L 54.546875 161.351562 L 55.820312 161.355469 C 55.820312 161.238281 55.792969 161.058594 55.742188 160.921875 L 54.546875 161.351562 L 55.820312 161.355469 L 55.097656 161.355469 L 55.8125 161.445312 L 55.820312 161.355469 L 55.097656 161.355469 L 55.8125 161.445312 L 55.585938 161.414062 L 55.8125 161.460938 L 55.8125 161.445312 L 55.585938 161.414062 L 55.8125 161.460938 C 55.8125 161.460938 55.820312 161.414062 55.859375 161.3125 C 55.976562 161 56.429688 160.175781 57.527344 159.023438 L 57.53125 159.019531 C 58.703125 157.773438 59.660156 156.503906 60.378906 155.09375 C 61.09375 153.691406 61.574219 152.109375 61.574219 150.402344 C 61.585938 148.730469 61.058594 147.011719 60.183594 145.6875 C 59.535156 144.695312 58.734375 143.90625 57.910156 143.296875 C 56.664062 142.386719 55.367188 141.84375 54.085938 141.492188 C 52.796875 141.148438 51.507812 140.996094 50.21875 140.988281 C 48.328125 141 46.425781 141.3125 44.542969 142.078125 C 43.605469 142.460938 42.671875 142.960938 41.785156 143.636719 C 40.902344 144.316406 40.054688 145.171875 39.367188 146.226562 L 44.046875 149.265625 L 39.9375 145.492188 C 39.78125 145.667969 37.554688 148.097656 35.242188 151.875 C 34.085938 153.769531 32.90625 156.003906 31.980469 158.523438 C 31.058594 161.042969 30.378906 163.867188 30.371094 166.933594 C 30.371094 168.671875 30.597656 170.492188 31.152344 172.300781 C 31.695312 174.109375 32.574219 175.902344 33.785156 177.554688 L 33.765625 177.535156 C 33.957031 177.796875 34.109375 177.984375 34.261719 178.175781 C 34.492188 178.457031 34.710938 178.710938 34.886719 178.914062 L 35.101562 179.164062 L 35.175781 179.25 L 35.214844 179.292969 L 35.261719 179.335938 L 35.320312 179.40625 L 35.511719 179.597656 C 35.566406 179.644531 35.625 179.707031 35.789062 179.84375 L 39.359375 175.554688 L 34.773438 178.730469 C 34.945312 178.980469 35.058594 179.113281 35.152344 179.21875 C 35.328125 179.417969 35.421875 179.507812 35.496094 179.582031 C 35.640625 179.714844 35.703125 179.773438 35.765625 179.828125 C 35.878906 179.925781 35.949219 179.984375 36.023438 180.039062 C 36.273438 180.238281 36.546875 180.441406 36.863281 180.671875 C 37.023438 180.785156 37.195312 180.902344 37.390625 181.03125 C 37.589844 181.15625 37.785156 181.289062 38.183594 181.492188 L 40.691406 176.5 L 37.589844 181.144531 C 38.425781 181.707031 39.199219 182.304688 39.898438 182.957031 L 43.699219 178.871094 L 39.714844 182.78125 L 39.816406 182.882812 L 43.800781 178.980469 L 43.300781 173.414062 C 42.292969 173.507812 41.371094 173.636719 40.34375 173.933594 C 39.824219 174.089844 39.273438 174.289062 38.613281 174.648438 C 37.96875 175.019531 37.160156 175.558594 36.402344 176.632812 L 40.980469 179.820312 L 44.164062 175.234375 L 44.117188 175.199219 C 42.757812 174.253906 41.023438 173.960938 39.433594 174.402344 C 37.839844 174.851562 36.511719 176 35.839844 177.507812 C 34.75 179.949219 34.039062 182.613281 33.804688 185.421875 L 33.804688 185.449219 L 28.617188 250.394531 L 28.621094 250.367188 C 28.554688 251.148438 28.554688 251.773438 28.550781 252.234375 L 34.128906 252.285156 L 28.554688 252.058594 L 28.550781 252.226562 L 28.546875 252.449219 C 28.546875 252.65625 28.546875 252.917969 28.554688 253.242188 L 34.128906 253.0625 L 28.550781 253.066406 C 28.554688 256.859375 29.421875 260.617188 31.117188 264.046875 C 32.808594 267.476562 35.347656 270.574219 38.632812 272.972656 L 38.652344 272.988281 L 91.277344 311.121094 L 94.546875 306.59375 L 88.984375 306.179688 C 88.875 307.65625 88.796875 309.1875 88.796875 310.78125 L 88.796875 369.472656 C 88.796875 370.945312 89.394531 372.382812 90.429688 373.421875 C 91.472656 374.460938 92.90625 375.058594 94.375 375.058594 L 231.699219 375.058594 C 233.167969 375.058594 234.605469 374.460938 235.640625 373.421875 C 236.683594 372.382812 237.273438 370.945312 237.273438 369.472656 L 237.273438 331.546875 L 284.800781 326.078125 L 284.824219 326.078125 C 288.863281 325.59375 292.585938 324.140625 295.738281 321.984375 C 298.894531 319.824219 301.484375 316.976562 303.339844 313.675781 L 298.480469 310.9375 L 303.25 313.828125 C 303.40625 313.566406 303.539062 313.328125 303.664062 313.117188 L 303.765625 312.917969 L 303.832031 312.785156 L 298.863281 310.257812 L 303.742188 312.964844 C 303.976562 312.535156 304.285156 311.984375 304.605469 311.28125 L 304.59375 311.304688 L 331.828125 252.136719 L 331.835938 252.121094 C 333.003906 249.550781 333.6875 246.871094 333.929688 244.21875 L 328.382812 243.703125 L 333.617188 245.617188 C 333.890625 244.863281 333.984375 244.140625 333.984375 243.542969 C 333.984375 242.6875 333.804688 241.960938 333.597656 241.390625 C 333.21875 240.382812 332.765625 239.777344 332.363281 239.277344 C 331.75 238.550781 331.183594 238.074219 330.589844 237.613281 C 330.003906 237.15625 329.386719 236.742188 328.726562 236.332031 L 325.785156 241.078125 L 328.230469 246.097656 L 325.785156 241.078125 L 322.847656 245.824219 C 323.496094 246.222656 323.921875 246.5625 323.929688 246.578125 L 325.574219 244.804688 L 323.570312 246.121094 C 323.820312 246.496094 323.933594 246.574219 323.929688 246.578125 L 325.574219 244.804688 L 323.570312 246.121094 L 327.183594 243.746094 L 323.128906 245.238281 C 323.28125 245.652344 323.441406 245.929688 323.570312 246.121094 L 327.183594 243.746094 L 323.128906 245.238281 L 327.742188 243.542969 L 322.832031 243.542969 C 322.832031 244.253906 322.976562 244.824219 323.128906 245.238281 L 327.742188 243.542969 L 322.832031 243.542969 L 327.941406 243.542969 L 323.144531 241.785156 C 322.90625 242.441406 322.832031 243.058594 322.832031 243.542969 L 327.941406 243.542969 L 323.144531 241.785156 C 322.984375 242.222656 322.871094 242.722656 322.828125 243.1875 C 322.695312 244.640625 322.328125 246.082031 321.691406 247.476562 L 321.699219 247.460938 L 294.46875 306.625 L 294.457031 306.652344 C 294.371094 306.839844 294.21875 307.136719 293.988281 307.546875 L 293.890625 307.726562 L 293.828125 307.859375 L 298.796875 310.390625 L 293.933594 307.660156 C 293.84375 307.816406 293.769531 307.945312 293.710938 308.039062 L 293.621094 308.195312 C 292.597656 310.011719 291.171875 311.582031 289.453125 312.757812 C 287.730469 313.929688 285.734375 314.714844 283.503906 314.980469 L 283.53125 314.980469 L 231.0625 321.015625 C 228.253906 321.339844 226.125 323.734375 226.125 326.566406 L 226.125 363.886719 L 99.949219 363.886719 L 99.949219 310.78125 C 99.949219 309.558594 100.007812 308.300781 100.105469 307.007812 C 100.25 305.074219 99.382812 303.203125 97.8125 302.070312 L 45.1875 263.9375 L 45.203125 263.949219 C 43.390625 262.625 42.035156 260.960938 41.109375 259.089844 C 40.1875 257.222656 39.703125 255.148438 39.703125 253.058594 L 39.699219 252.886719 C 39.699219 252.800781 39.699219 252.65625 39.699219 252.449219 L 34.125 252.449219 L 39.695312 252.675781 L 39.703125 252.339844 C 39.707031 251.839844 39.710938 251.503906 39.734375 251.3125 L 39.734375 251.28125 L 44.921875 186.339844 L 44.917969 186.363281 C 45.046875 184.824219 45.429688 183.390625 46.023438 182.054688 L 40.929688 179.785156 L 37.746094 184.367188 L 37.796875 184.402344 C 39.019531 185.253906 40.5 185.582031 41.96875 185.316406 C 43.4375 185.054688 44.710938 184.226562 45.5625 183.003906 L 41.808594 180.394531 L 44.042969 184.40625 C 44.367188 184.214844 44.949219 183.871094 45.5625 183.003906 L 41.808594 180.394531 L 44.042969 184.40625 L 42.582031 181.785156 L 43.554688 184.628906 C 43.632812 184.601562 43.785156 184.550781 44.042969 184.40625 L 42.582031 181.785156 L 43.554688 184.628906 L 43.136719 183.414062 L 43.492188 184.652344 L 43.554688 184.628906 L 43.136719 183.414062 L 43.492188 184.652344 L 43.363281 184.191406 L 43.484375 184.652344 L 43.492188 184.652344 L 43.363281 184.191406 L 43.484375 184.652344 L 43.535156 184.636719 C 43.648438 184.617188 43.925781 184.574219 44.304688 184.539062 C 46.441406 184.347656 48.289062 182.933594 49.035156 180.90625 C 49.777344 178.886719 49.289062 176.609375 47.78125 175.070312 L 47.683594 174.964844 L 47.5 174.785156 C 46.300781 173.667969 45.046875 172.703125 43.792969 171.863281 C 43.597656 171.730469 43.402344 171.617188 43.195312 171.511719 L 41.675781 174.542969 L 43.445312 171.648438 C 43.417969 171.636719 43.367188 171.601562 43.195312 171.511719 L 41.675781 174.542969 L 43.445312 171.648438 C 43.378906 171.609375 43.191406 171.472656 43.070312 171.382812 L 42.964844 171.300781 L 41.101562 173.617188 L 43.046875 171.367188 L 42.964844 171.300781 L 41.101562 173.617188 L 43.046875 171.367188 L 39.804688 175.109375 L 43.230469 171.539062 L 43.046875 171.367188 L 39.804688 175.109375 L 43.230469 171.539062 L 39.5 175.429688 L 43.445312 171.757812 C 43.34375 171.648438 43.285156 171.585938 43.230469 171.539062 L 39.5 175.429688 L 43.445312 171.757812 L 39.394531 175.527344 L 43.941406 172.371094 C 43.679688 172 43.550781 171.871094 43.445312 171.757812 L 39.394531 175.527344 L 43.941406 172.371094 C 43.644531 171.941406 43.328125 171.597656 42.925781 171.257812 L 39.359375 175.554688 L 43.246094 171.546875 C 43.1875 171.496094 43.140625 171.4375 42.925781 171.257812 L 39.359375 175.554688 L 43.246094 171.546875 L 39.359375 175.554688 L 43.390625 171.695312 L 43.246094 171.546875 L 39.359375 175.554688 L 43.390625 171.695312 L 39.554688 175.363281 L 43.484375 171.796875 L 43.390625 171.695312 L 39.554688 175.363281 L 43.484375 171.796875 L 40.957031 174.085938 L 43.496094 171.808594 L 43.484375 171.796875 L 40.957031 174.085938 L 43.496094 171.808594 L 43.488281 171.800781 C 43.441406 171.742188 43.261719 171.542969 43.097656 171.351562 L 42.875 171.078125 L 42.804688 170.992188 L 42.785156 170.96875 C 42.3125 170.3125 42.015625 169.699219 41.820312 169.046875 C 41.625 168.398438 41.523438 167.707031 41.523438 166.933594 C 41.519531 165.585938 41.851562 163.996094 42.445312 162.375 C 43.332031 159.945312 44.796875 157.5 46.035156 155.75 C 46.65625 154.875 47.210938 154.167969 47.601562 153.691406 C 47.796875 153.457031 47.949219 153.277344 48.042969 153.167969 L 48.144531 153.054688 L 48.164062 153.039062 L 46.507812 151.535156 L 48.152344 153.046875 L 48.164062 153.039062 L 46.507812 151.535156 L 48.152344 153.046875 C 48.375 152.800781 48.542969 152.589844 48.71875 152.3125 L 48.027344 151.863281 L 48.535156 152.53125 C 48.535156 152.53125 48.621094 152.464844 48.71875 152.3125 L 48.027344 151.863281 L 48.535156 152.53125 L 48.664062 152.460938 C 48.921875 152.320312 49.589844 152.152344 50.21875 152.164062 C 50.554688 152.160156 50.871094 152.203125 51.089844 152.257812 C 51.253906 152.296875 51.359375 152.339844 51.375 152.347656 L 51.382812 152.347656 L 52.117188 150.980469 L 50.878906 151.847656 C 51.144531 152.226562 51.367188 152.34375 51.382812 152.347656 L 52.117188 150.980469 L 50.878906 151.847656 L 52.996094 150.375 L 50.539062 151.152344 C 50.625 151.417969 50.75 151.664062 50.878906 151.847656 L 52.996094 150.375 L 50.539062 151.152344 L 52.910156 150.402344 L 50.421875 150.402344 C 50.421875 150.617188 50.457031 150.890625 50.539062 151.152344 L 52.910156 150.402344 L 50.421875 150.402344 L 52.046875 150.402344 L 50.472656 149.980469 C 50.453125 150.042969 50.421875 150.195312 50.421875 150.402344 L 52.046875 150.402344 L 50.472656 149.980469 L 50.9375 150.105469 L 50.484375 149.9375 L 50.472656 149.980469 L 50.9375 150.105469 L 50.484375 149.9375 L 50.441406 150.03125 C 50.34375 150.222656 50.039062 150.699219 49.429688 151.34375 L 49.429688 151.339844 C 47.992188 152.867188 46.847656 154.394531 46.011719 156.042969 C 45.183594 157.683594 44.664062 159.496094 44.667969 161.355469 C 44.664062 162.527344 44.878906 163.699219 45.265625 164.75 C 45.945312 166.609375 47.089844 168.035156 48.269531 169.085938 C 50.0625 170.671875 51.964844 171.5625 53.75 172.214844 C 55.546875 172.855469 57.234375 173.214844 58.710938 173.40625 L 58.734375 173.40625 C 59.253906 173.472656 59.761719 173.503906 60.265625 173.503906 C 61.800781 173.5 63.269531 173.222656 64.621094 172.734375 C 66.65625 171.996094 68.46875 170.796875 69.90625 169.109375 C 70.621094 168.261719 71.238281 167.285156 71.683594 166.171875 C 72.132812 165.0625 72.398438 163.816406 72.398438 162.511719 C 72.40625 160.792969 71.914062 159.019531 71.027344 157.503906 L 71.023438 157.496094 C 70.941406 157.367188 70.910156 157.269531 70.894531 157.21875 L 70.882812 157.167969 L 70.757812 157.1875 L 70.882812 157.1875 L 70.882812 157.167969 L 70.757812 157.1875 L 70.882812 157.1875 L 69.988281 157.1875 L 70.8125 157.511719 C 70.875 157.347656 70.882812 157.226562 70.882812 157.1875 L 69.988281 157.1875 L 70.8125 157.511719 L 69.398438 156.957031 L 70.214844 158.234375 C 70.46875 158.082031 70.730469 157.75 70.8125 157.511719 L 69.398438 156.957031 L 70.214844 158.234375 L 69.691406 157.417969 L 69.949219 158.359375 C 69.988281 158.347656 70.09375 158.3125 70.214844 158.234375 L 69.691406 157.417969 L 69.949219 158.359375 L 69.894531 158.152344 L 69.933594 158.367188 L 69.949219 158.359375 L 69.894531 158.152344 L 69.933594 158.367188 L 70.066406 158.355469 C 70.179688 158.355469 70.386719 158.371094 70.671875 158.429688 L 71.167969 156.097656 L 69.816406 158.070312 C 70.011719 158.203125 70.332031 158.359375 70.675781 158.429688 L 71.167969 156.097656 L 69.816406 158.070312 L 70.542969 157.011719 L 69.554688 157.84375 C 69.566406 157.855469 69.644531 157.949219 69.816406 158.070312 L 70.542969 157.011719 L 69.554688 157.84375 L 69.566406 157.828125 L 69.550781 157.84375 L 69.554688 157.84375 L 69.566406 157.828125 L 69.550781 157.84375 C 69.570312 157.863281 69.738281 158.117188 69.90625 158.566406 C 70.164062 159.234375 70.433594 160.304688 70.609375 161.5625 C 70.785156 162.824219 70.878906 164.269531 70.875 165.746094 C 70.878906 167.957031 70.667969 170.242188 70.324219 172.078125 C 70.195312 172.777344 70.097656 173.171875 69.96875 173.613281 C 69.839844 174.058594 69.652344 174.601562 69.34375 175.453125 L 69.339844 175.46875 C 69.226562 175.792969 69.121094 176.117188 69 176.496094 C 68.640625 177.625 68.152344 179.226562 67.648438 180.785156 C 67.171875 182.265625 67.328125 183.867188 68.082031 185.226562 C 68.839844 186.585938 70.117188 187.5625 71.621094 187.933594 C 74.5625 188.648438 76.980469 189.40625 78.378906 189.984375 C 78.722656 190.128906 79 190.253906 79.1875 190.351562 C 79.328125 190.421875 79.414062 190.472656 79.4375 190.484375 L 79.441406 190.484375 L 80.953125 188.203125 L 78.878906 189.957031 C 79.261719 190.394531 79.429688 190.472656 79.441406 190.484375 L 80.953125 188.203125 L 78.878906 189.957031 L 82.339844 187.03125 L 78.21875 188.894531 C 78.449219 189.40625 78.695312 189.734375 78.878906 189.957031 L 82.339844 187.03125 L 78.21875 188.894531 L 82.792969 186.824219 L 77.777344 186.824219 C 77.777344 187.664062 77.988281 188.386719 78.21875 188.894531 L 82.792969 186.824219 L 77.777344 186.824219 L 82.84375 186.824219 L 77.824219 186.121094 C 77.792969 186.351562 77.777344 186.59375 77.777344 186.824219 L 82.84375 186.824219 L 77.824219 186.121094 C 77.613281 187.644531 78.035156 189.183594 78.992188 190.386719 C 79.949219 191.582031 81.359375 192.335938 82.882812 192.460938 L 82.910156 192.460938 L 83.375 186.898438 L 77.804688 187.183594 C 77.820312 187.484375 77.828125 187.765625 77.828125 188.027344 C 77.828125 188.402344 77.816406 188.773438 77.785156 189.140625 L 77.78125 189.15625 L 73.683594 240.492188 C 73.53125 242.429688 74.402344 244.328125 75.972656 245.464844 L 95.691406 259.753906 C 98.105469 261.503906 101.488281 261.035156 103.332031 258.691406 C 105.179688 256.351562 104.859375 252.949219 102.605469 251.003906 L 102.578125 250.980469 L 98.9375 255.207031 L 95.632812 259.707031 C 95.925781 259.921875 97.539062 261.070312 100.421875 262.292969 C 103.300781 263.519531 107.457031 264.8125 112.773438 265.304688 C 115.171875 265.527344 117.441406 264.175781 118.398438 261.964844 C 119.710938 258.929688 120.285156 256.550781 120.339844 256.34375 C 120.804688 254.402344 120.203125 252.359375 118.757812 250.984375 C 117.316406 249.613281 115.246094 249.113281 113.335938 249.675781 C 111.238281 250.300781 109.476562 250.53125 107.984375 250.53125 C 105.609375 250.523438 103.898438 249.972656 102.421875 249.164062 C 101.320312 248.546875 100.367188 247.757812 99.539062 246.878906 C 98.304688 245.570312 97.382812 244.050781 96.816406 242.90625 C 96.535156 242.328125 96.332031 241.847656 96.21875 241.539062 C 96.160156 241.386719 96.121094 241.277344 96.101562 241.214844 L 96.085938 241.171875 L 93.679688 241.941406 L 96.097656 241.210938 L 96.085938 241.171875 L 93.679688 241.941406 L 96.097656 241.210938 L 90.757812 242.816406 L 88.875 248.074219 C 89.050781 248.140625 89.84375 248.414062 91.074219 248.6875 C 92.308594 248.957031 93.980469 249.230469 95.957031 249.230469 C 98.222656 249.226562 100.949219 248.875 103.703125 247.5 C 105.070312 246.808594 106.425781 245.859375 107.625 244.632812 C 108.820312 243.40625 109.859375 241.910156 110.664062 240.207031 C 111.277344 238.898438 111.632812 237.589844 111.847656 236.28125 C 112.066406 234.976562 112.148438 233.664062 112.148438 232.332031 C 112.144531 228.851562 111.585938 225.191406 110.816406 221.53125 C 109.652344 216.050781 107.960938 210.59375 106.554688 206.453125 C 105.148438 202.316406 104.03125 199.503906 104 199.441406 L 98.824219 201.515625 L 104.128906 199.800781 C 99.660156 185.921875 97.925781 174.25 97.925781 164.484375 C 97.933594 154.046875 99.894531 145.78125 102.722656 139.171875 C 103.8125 136.628906 102.871094 133.65625 100.519531 132.210938 C 98.167969 130.761719 95.097656 131.261719 93.324219 133.382812 C 92.90625 133.882812 92.570312 134.4375 92.339844 134.9375 L 97.394531 137.289062 L 102.800781 138.648438 L 111.921875 102.089844 C 112.035156 101.636719 112.089844 101.199219 112.089844 100.730469 L 112.089844 100.726562 C 112.089844 98.367188 110.621094 96.277344 108.402344 95.472656 C 103.046875 93.539062 98.429688 89.992188 95.164062 85.414062 C 91.902344 80.839844 89.992188 75.269531 89.988281 69.203125 C 89.992188 61.472656 93.101562 54.53125 98.148438 49.460938 C 103.210938 44.398438 110.144531 41.28125 117.859375 41.277344 C 120.226562 41.277344 122.515625 41.578125 124.703125 42.128906 C 126.304688 42.535156 127.996094 42.210938 129.332031 41.242188 C 130.675781 40.273438 131.511719 38.769531 131.628906 37.117188 C 132.152344 29.875 135.410156 23.421875 140.402344 18.746094 C 145.398438 14.070312 152.050781 11.230469 159.421875 11.226562 C 166.796875 11.230469 173.449219 14.070312 178.445312 18.746094 C 183.433594 23.421875 186.691406 29.875 187.210938 37.117188 C 187.332031 38.769531 188.167969 40.273438 189.503906 41.242188 C 190.847656 42.210938 192.535156 42.535156 194.140625 42.128906 C 196.332031 41.578125 198.617188 41.277344 200.988281 41.277344 C 208.699219 41.28125 215.632812 44.398438 220.691406 49.460938 C 225.746094 54.53125 228.851562 61.472656 228.855469 69.203125 C 228.855469 75.097656 227.050781 80.507812 223.960938 85.011719 C 220.867188 89.507812 216.484375 93.054688 211.367188 95.117188 C 208.714844 96.183594 207.296875 99.078125 208.082031 101.832031 L 208.085938 101.839844 L 208.074219 101.789062 L 218.242188 138.769531 L 223.617188 137.285156 L 228.578125 134.738281 C 228.265625 134.140625 227.933594 133.695312 227.628906 133.339844 C 227.3125 132.988281 227.027344 132.722656 226.761719 132.492188 C 224.847656 130.871094 222.066406 130.730469 219.996094 132.152344 C 217.929688 133.574219 217.0625 136.230469 217.894531 138.601562 C 219.132812 142.121094 219.804688 145.488281 220.703125 148.949219 L 220.703125 148.945312 C 223.488281 159.613281 224.515625 168.308594 224.515625 175.460938 C 224.515625 181.046875 223.894531 185.695312 222.957031 189.664062 C 221.550781 195.621094 219.464844 200.058594 217.472656 203.902344 C 216.480469 205.832031 215.5 207.605469 214.636719 209.414062 C 213.785156 211.226562 213 213.089844 212.632812 215.3125 L 212.640625 215.304688 C 212.304688 217.398438 212.097656 219.558594 212.097656 221.75 C 212.101562 225.101562 212.574219 228.5625 213.984375 231.878906 C 214.695312 233.53125 215.640625 235.136719 216.859375 236.605469 C 218.078125 238.066406 219.570312 239.375 221.28125 240.453125 C 223.152344 241.628906 225.019531 242.511719 226.878906 243.105469 C 228.734375 243.695312 230.589844 243.988281 232.371094 243.988281 C 234.085938 243.988281 235.730469 243.722656 237.226562 243.25 C 239.855469 242.429688 242.011719 241.03125 243.734375 239.523438 C 246.316406 237.25 248.015625 234.714844 249.15625 232.726562 C 250.285156 230.730469 250.839844 229.261719 250.917969 229.058594 L 245.691406 227.113281 L 240.171875 227.898438 C 240.472656 230.023438 240.613281 231.945312 240.613281 233.648438 C 240.613281 236.179688 240.3125 238.257812 239.820312 239.96875 C 239.070312 242.523438 237.953125 244.273438 236.445312 245.746094 C 234.925781 247.207031 232.917969 248.390625 230.339844 249.316406 L 230.347656 249.308594 C 229.160156 249.734375 228.070312 249.894531 227.007812 249.894531 C 225.839844 249.894531 224.699219 249.691406 223.621094 249.355469 C 222 248.851562 220.535156 248.035156 219.535156 247.359375 C 219.03125 247.023438 218.644531 246.722656 218.40625 246.527344 C 218.285156 246.429688 218.199219 246.355469 218.15625 246.316406 C 216.734375 244.976562 214.738281 244.480469 212.851562 245 C 210.964844 245.519531 209.507812 246.972656 208.972656 248.855469 C 208.445312 250.707031 208.207031 252.539062 208.207031 254.285156 C 208.207031 257.308594 208.914062 260.042969 209.902344 262.371094 C 211.394531 265.863281 213.484375 268.476562 215.191406 270.292969 C 216.90625 272.109375 218.273438 273.121094 218.472656 273.269531 L 221.769531 268.769531 L 221.671875 263.183594 C 221.671875 263.183594 220.871094 263.195312 219.402344 263.21875 C 217.933594 263.242188 215.800781 263.277344 213.136719 263.316406 C 210.742188 263.351562 208.636719 264.921875 207.910156 267.207031 C 207.183594 269.488281 207.996094 271.992188 209.925781 273.40625 C 218.207031 279.484375 225.132812 282.796875 230.375 284.574219 C 235.621094 286.351562 239.175781 286.597656 240.648438 286.59375 C 240.957031 286.59375 241.167969 286.582031 241.277344 286.574219 L 240.9375 281.003906 L 239.84375 275.527344 L 239.832031 275.527344 C 236.894531 276.117188 234.953125 278.910156 235.417969 281.871094 C 235.886719 284.835938 238.585938 286.894531 241.5625 286.554688 L 265.71875 283.773438 C 267.660156 283.550781 269.324219 282.34375 270.144531 280.5625 L 291.671875 233.792969 L 291.679688 233.773438 C 291.9375 233.203125 292.246094 232.644531 292.597656 232.09375 C 292.816406 231.75 293.003906 231.371094 293.144531 230.992188 L 288.339844 229.242188 L 292.351562 232.417969 C 292.664062 232.023438 292.953125 231.523438 293.144531 230.992188 L 288.339844 229.242188 L 292.351562 232.417969 L 288.53125 229.394531 L 290.78125 233.722656 C 291.203125 233.503906 291.792969 233.117188 292.351562 232.417969 L 288.53125 229.394531 L 290.78125 233.722656 L 289.082031 230.460938 L 289.660156 234.117188 C 289.808594 234.085938 290.136719 234.050781 290.78125 233.722656 L 289.082031 230.460938 L 289.660156 234.117188 L 289.480469 232.976562 L 289.554688 234.128906 L 289.660156 234.117188 L 289.480469 232.976562 L 289.554688 234.128906 L 289.648438 234.128906 C 289.945312 234.125 290.769531 234.191406 291.824219 234.375 C 292.890625 234.558594 294.21875 234.839844 295.71875 235.21875 C 298.117188 235.828125 300.613281 234.785156 301.875 232.652344 C 303.003906 230.738281 304.304688 228.515625 305.355469 226.605469 C 305.878906 225.648438 306.347656 224.78125 306.726562 224 C 306.917969 223.605469 307.085938 223.238281 307.261719 222.800781 C 307.34375 222.582031 307.429688 222.34375 307.53125 222.011719 C 307.574219 221.84375 307.625 221.644531 307.675781 221.382812 C 307.722656 221.121094 307.769531 220.800781 307.773438 220.300781 C 307.753906 219.089844 307.484375 218.429688 307.296875 217.941406 C 307.109375 217.488281 306.9375 217.183594 306.785156 216.917969 C 306.503906 216.441406 306.257812 216.097656 306.019531 215.757812 C 305.605469 215.171875 305.1875 214.605469 304.773438 213.988281 C 304.152344 213.058594 303.550781 212.023438 303.121094 210.929688 C 302.695312 209.832031 302.433594 208.703125 302.433594 207.476562 C 302.433594 207.238281 302.441406 206.988281 302.46875 206.722656 C 302.480469 206.5625 302.546875 206.226562 302.730469 205.78125 C 302.910156 205.339844 303.199219 204.789062 303.601562 204.199219 C 304.230469 203.273438 304.570312 202.175781 304.570312 201.058594 L 298.992188 201.058594 L 303.601562 204.199219 C 303.953125 203.675781 304.390625 203.132812 304.890625 202.582031 C 306.339844 200.992188 306.75 198.707031 305.941406 196.710938 L 305.007812 194.414062 L 299.84375 196.511719 L 302.285156 201.535156 L 306.171875 199.636719 C 308.9375 198.28125 310.09375 194.941406 308.742188 192.167969 L 299.0625 172.277344 C 297.925781 169.941406 295.324219 168.699219 292.800781 169.28125 C 290.273438 169.867188 288.476562 172.128906 288.476562 174.722656 L 294.054688 174.722656 L 299.074219 172.300781 L 299.007812 172.160156 L 298.992188 172.132812 L 298.191406 170.488281 L 298.152344 170.40625 C 295.605469 165.375 292.863281 161.859375 290.066406 159.433594 C 288.675781 158.222656 287.273438 157.292969 285.933594 156.597656 C 284.601562 155.90625 283.335938 155.445312 282.253906 155.140625 C 282.027344 155.074219 281.8125 155.027344 281.582031 154.992188 C 278.53125 154.535156 275.132812 153.042969 272.25 150.914062 C 269.355469 148.796875 267.007812 146.058594 265.804688 143.550781 C 265.097656 142.109375 264.417969 140.019531 263.960938 137.652344 C 263.492188 135.277344 263.226562 132.621094 263.230469 129.976562 C 263.21875 126.101562 263.816406 122.257812 264.90625 119.410156 C 265.449219 117.988281 266.101562 116.820312 266.777344 115.972656 C 267.460938 115.117188 268.140625 114.578125 268.863281 114.21875 L 268.871094 114.214844 C 269.609375 113.855469 270.472656 113.65625 271.609375 113.652344 C 273.167969 113.644531 275.210938 114.097656 277.414062 115.042969 C 280.71875 116.441406 284.324219 118.90625 287.320312 121.691406 C 288.816406 123.078125 290.171875 124.542969 291.285156 125.960938 C 292.398438 127.371094 293.265625 128.742188 293.8125 129.875 C 294.957031 132.191406 295.652344 135.410156 295.644531 138.730469 C 295.648438 141.695312 295.101562 144.734375 294.085938 147.285156 L 299.269531 149.351562 L 304.84375 149.351562 C 304.84375 146.636719 302.902344 144.320312 300.234375 143.847656 C 297.566406 143.375 294.949219 144.886719 294.027344 147.4375 L 294.023438 147.453125 L 299.261719 149.359375 L 294.085938 147.289062 C 293.796875 148.015625 293.464844 148.707031 293.089844 149.371094 C 292.976562 149.574219 292.886719 149.765625 292.800781 149.984375 C 292.023438 151.851562 291.316406 154.46875 291.328125 157.632812 C 291.328125 161.5625 292.351562 166.253906 294.980469 171.890625 L 295.019531 171.980469 L 305.59375 193.707031 C 306.238281 195.027344 307.398438 196.0625 308.789062 196.539062 C 310.175781 197.019531 311.726562 196.921875 313.046875 196.28125 L 316.929688 194.382812 L 314.492188 189.363281 L 309.652344 192.140625 L 310.757812 194.066406 C 310.988281 194.472656 311.320312 194.910156 311.652344 195.242188 L 311.65625 195.242188 C 312.734375 196.328125 314.203125 196.914062 315.738281 196.875 L 315.640625 193.046875 L 315.664062 196.878906 L 315.738281 196.875 L 315.640625 193.046875 L 315.664062 196.878906 C 316.496094 196.878906 317.070312 197.027344 317.515625 197.246094 C 318.726562 197.832031 320.410156 198.984375 322.105469 200.472656 C 324.664062 202.703125 327.28125 205.695312 329.109375 208.582031 C 330.023438 210.019531 330.746094 211.429688 331.199219 212.640625 C 331.660156 213.851562 331.832031 214.851562 331.824219 215.417969 C 331.824219 215.894531 331.742188 216.039062 331.722656 216.078125 L 331.726562 216.070312 C 331.46875 216.566406 330.953125 217.300781 330.210938 218.132812 C 330.058594 218.308594 329.878906 218.539062 329.75 218.734375 L 329.742188 218.75 L 334.378906 221.847656 L 330.285156 218.058594 L 330.234375 218.117188 L 330.171875 218.179688 C 330.015625 218.355469 329.859375 218.527344 329.703125 218.695312 L 329.640625 218.761719 L 329.472656 218.949219 C 327.832031 220.742188 327.546875 223.382812 328.753906 225.488281 L 332.296875 231.6875 L 323.34375 236.058594 C 321.523438 236.949219 320.320312 238.765625 320.21875 240.792969 C 320.113281 242.820312 321.125 244.75 322.847656 245.824219 L 325.785156 241.078125 "/>
</g>
<path style=" stroke:none;fill-rule:nonzero;fill:rgb(35.289001%,19.219971%,7.839966%);fill-opacity:1;" d="M 123.441406 109.636719 C 123.441406 109.636719 75.308594 128.453125 98.824219 201.515625 C 98.824219 201.515625 109.804688 228.976562 105.625 237.816406 C 101.445312 246.660156 90.757812 242.816406 90.757812 242.816406 C 90.757812 242.816406 96.101562 260.621094 114.914062 255.035156 C 114.914062 255.035156 112.128906 266.671875 105.164062 268.769531 C 98.191406 270.859375 221.769531 268.769531 221.769531 268.769531 C 221.769531 268.769531 211.316406 261.085938 214.332031 250.382812 C 214.332031 250.382812 222.464844 258.0625 232.21875 254.574219 C 241.976562 251.082031 248.011719 243.402344 245.691406 227.113281 C 245.691406 227.113281 239.042969 245.03125 224.246094 235.722656 C 217.707031 231.609375 216.949219 223.714844 218.144531 216.1875 C 219.648438 206.695312 238.011719 193.144531 226.09375 147.53125 C 222.988281 135.648438 221.699219 118.359375 181.117188 97.964844 C 163.523438 89.125 132.265625 93 123.441406 109.636719 "/>
<path style=" stroke:none;fill-rule:nonzero;fill:rgb(90.589905%,61.959839%,48.629761%);fill-opacity:1;" d="M 184.511719 262.367188 L 140.613281 262.367188 L 140.613281 234.441406 L 184.511719 234.441406 L 184.511719 262.367188 "/>
<path style=" stroke:none;fill-rule:nonzero;fill:rgb(97.24884%,66.668701%,52.549744%);fill-opacity:1;" d="M 215.636719 174.757812 C 215.636719 209.261719 196.238281 242.816406 162.5625 242.816406 C 128.890625 242.816406 109.492188 209.261719 109.492188 174.757812 C 109.492188 140.253906 128.890625 112.277344 162.5625 112.277344 C 196.238281 112.277344 215.636719 140.253906 215.636719 174.757812 "/>
<path style=" stroke:none;fill-rule:nonzero;fill:rgb(97.24884%,66.668701%,52.549744%);fill-opacity:1;" d="M 226.09375 177.550781 C 226.09375 185.261719 221.386719 191.511719 215.585938 191.511719 C 209.78125 191.511719 205.078125 185.261719 205.078125 177.550781 C 205.078125 169.835938 209.78125 163.589844 215.585938 163.589844 C 221.386719 163.589844 226.09375 169.835938 226.09375 177.550781 "/>
<path style=" stroke:none;fill-rule:nonzero;fill:rgb(97.24884%,66.668701%,52.549744%);fill-opacity:1;" d="M 120.046875 177.550781 C 120.046875 185.261719 115.347656 191.511719 109.539062 191.511719 C 103.738281 191.511719 99.035156 185.261719 99.035156 177.550781 C 99.035156 169.835938 103.738281 163.589844 109.539062 163.589844 C 115.347656 163.589844 120.046875 169.835938 120.046875 177.550781 "/>
<path style=" stroke:none;fill-rule:nonzero;fill:rgb(35.289001%,19.219971%,7.839966%);fill-opacity:1;" d="M 132.726562 136.097656 C 133.195312 134.671875 133.066406 135.113281 133.792969 136.210938 C 134.519531 137.3125 148.324219 150.296875 156.554688 154.953125 C 164.773438 159.605469 184.535156 161.523438 185.28125 161.542969 C 181.046875 158.023438 174.585938 146.539062 175.222656 147.394531 C 180.703125 154.792969 192.285156 161.972656 200.667969 164.925781 C 207.820312 167.4375 218.644531 175.421875 226.09375 175.628906 C 223.585938 142.769531 196.8125 105.296875 162.460938 105.296875 C 122.601562 105.296875 99.011719 137.140625 97.261719 177.34375 C 114.792969 169.859375 126.480469 155.148438 132.726562 136.097656 "/>
<path style=" stroke:none;fill-rule:nonzero;fill:rgb(100%,100%,100%);fill-opacity:1;" d="M 118.558594 52.449219 L 97.296875 137.695312 C 97.296875 133.75 123.910156 130.546875 159.421875 130.546875 C 194.9375 130.546875 223.730469 133.75 223.730469 137.695312 L 200.289062 52.449219 L 118.558594 52.449219 "/>
<path style=" stroke:none;fill-rule:nonzero;fill:rgb(100%,100%,100%);fill-opacity:1;" d="M 151.308594 69.203125 C 151.308594 87.710938 136.332031 102.710938 117.859375 102.710938 C 99.386719 102.710938 84.410156 87.710938 84.410156 69.203125 C 84.410156 50.699219 99.386719 35.691406 117.859375 35.691406 C 136.332031 35.691406 151.308594 50.699219 151.308594 69.203125 "/>
<path style=" stroke:none;fill-rule:nonzero;fill:rgb(100%,100%,100%);fill-opacity:1;" d="M 234.429688 69.203125 C 234.429688 87.710938 219.460938 102.710938 200.988281 102.710938 C 182.515625 102.710938 167.539062 87.710938 167.539062 69.203125 C 167.539062 50.699219 182.515625 35.691406 200.988281 35.691406 C 219.460938 35.691406 234.429688 50.699219 234.429688 69.203125 "/>
<path style=" stroke:none;fill-rule:nonzero;fill:rgb(100%,100%,100%);fill-opacity:1;" d="M 192.871094 39.144531 C 192.871094 57.648438 177.898438 72.652344 159.421875 72.652344 C 140.949219 72.652344 125.976562 57.648438 125.976562 39.144531 C 125.976562 20.644531 140.949219 5.640625 159.421875 5.640625 C 177.898438 5.640625 192.871094 20.644531 192.871094 39.144531 "/>
<path style=" stroke:none;fill-rule:nonzero;fill:rgb(100%,100%,100%);fill-opacity:1;" d="M 231.699219 369.472656 L 231.699219 310.78125 C 231.699219 279.804688 206.628906 254.683594 175.699219 254.683594 L 150.375 254.683594 C 119.445312 254.683594 94.375 279.804688 94.375 310.78125 L 94.375 369.472656 L 231.699219 369.472656 "/>
<path style=" stroke:none;fill-rule:nonzero;fill:rgb(91.369629%,91.369629%,91.369629%);fill-opacity:1;" d="M 149.503906 254.683594 C 153.0625 257.132812 156.597656 259.609375 160.097656 262.125 C 163.609375 264.632812 167.09375 267.179688 170.570312 269.722656 C 174.058594 272.261719 177.5 274.859375 180.96875 277.425781 L 191.285156 285.21875 L 191.875 285.660156 L 191.886719 286.449219 C 191.953125 289.910156 191.945312 293.363281 191.964844 296.828125 C 191.972656 300.289062 192.023438 303.746094 191.992188 307.207031 L 191.941406 317.582031 L 191.808594 327.960938 C 191.769531 331.417969 191.691406 334.878906 191.601562 338.339844 C 191.53125 341.800781 191.429688 345.257812 191.304688 348.714844 C 191.078125 355.636719 190.78125 362.558594 190.332031 369.472656 C 189.878906 362.558594 189.582031 355.636719 189.355469 348.714844 C 189.230469 345.257812 189.132812 341.800781 189.058594 338.339844 C 188.972656 334.878906 188.890625 331.417969 188.855469 327.960938 L 188.722656 317.582031 L 188.671875 307.207031 C 188.636719 303.746094 188.691406 300.289062 188.695312 296.828125 C 188.722656 293.363281 188.707031 289.910156 188.773438 286.449219 L 189.378906 287.679688 L 179.285156 279.589844 C 175.945312 276.863281 172.582031 274.164062 169.261719 271.40625 C 165.941406 268.664062 162.621094 265.910156 159.328125 263.121094 C 156.027344 260.351562 152.753906 257.53125 149.503906 254.683594 "/>
<path style=" stroke:none;fill-rule:nonzero;fill:rgb(100%,100%,100%);fill-opacity:1;" d="M 121.195312 302.484375 C 115.003906 310.984375 103.101562 312.847656 94.617188 306.648438 L 41.921875 268.460938 C 33.433594 262.261719 31.574219 250.339844 37.765625 241.839844 L 41.359375 236.90625 C 47.550781 228.410156 59.449219 226.546875 67.933594 232.746094 L 120.628906 270.925781 C 129.117188 277.128906 130.980469 289.054688 124.785156 297.550781 L 121.195312 302.484375 "/>
<path style=" stroke:none;fill-rule:nonzero;fill:rgb(100%,100%,100%);fill-opacity:1;" d="M 40.929688 179.785156 C 40.089844 181.667969 39.546875 183.722656 39.363281 185.894531 L 34.175781 250.84375 C 33.296875 261.328125 41.066406 270.542969 51.535156 271.425781 L 57.609375 271.941406 C 68.078125 272.820312 77.273438 265.035156 78.15625 254.546875 L 83.339844 189.605469 C 83.417969 188.6875 83.421875 187.789062 83.375 186.898438 C 80.335938 186.761719 42.351562 181.433594 40.929688 179.785156 "/>
<path style=" stroke:none;fill-rule:nonzero;fill:rgb(100%,100%,100%);fill-opacity:1;" d="M 98.9375 255.207031 C 98.9375 255.207031 111.265625 264.316406 133.652344 257.230469 L 116.296875 269.597656 L 98.9375 255.207031 "/>
<path style=" stroke:none;fill-rule:nonzero;fill:rgb(91.369629%,91.369629%,91.369629%);fill-opacity:1;" d="M 83.347656 186.898438 C 83.078125 188.570312 73.351562 188.386719 61.621094 186.484375 C 49.890625 184.585938 40.605469 181.6875 40.875 180.015625 C 41.140625 178.339844 50.871094 178.53125 62.601562 180.425781 C 74.328125 182.328125 83.617188 185.226562 83.347656 186.898438 "/>
<path style=" stroke:none;fill-rule:nonzero;fill:rgb(100%,100%,100%);fill-opacity:1;" d="M 198.417969 311.300781 C 199.660156 321.75 209.121094 329.207031 219.550781 327.964844 L 284.164062 320.53125 C 294.597656 319.285156 302.046875 309.808594 300.804688 299.359375 L 300.082031 293.296875 C 298.839844 282.84375 289.378906 275.386719 278.949219 276.628906 L 214.332031 284.0625 C 203.90625 285.304688 196.453125 294.789062 197.699219 305.238281 L 198.417969 311.300781 "/>
<path style=" stroke:none;fill-rule:nonzero;fill:rgb(100%,100%,100%);fill-opacity:1;" d="M 328.382812 243.703125 C 328.191406 245.753906 327.667969 247.816406 326.761719 249.800781 L 299.535156 308.964844 C 295.171875 318.539062 283.890625 322.761719 274.335938 318.398438 L 268.789062 315.863281 C 259.234375 311.5 255.015625 300.199219 259.375 290.621094 L 286.609375 231.453125 C 286.988281 230.621094 287.425781 229.832031 287.902344 229.082031 C 290.617188 230.457031 326.335938 244.445312 328.382812 243.703125 "/>
<path style=" stroke:none;fill-rule:nonzero;fill:rgb(100%,100%,100%);fill-opacity:1;" d="M 240.9375 281.003906 C 240.9375 281.003906 229.210938 281.789062 209.605469 266.132812 L 218.765625 285.03125 L 240.9375 281.003906 "/>
<path style=" stroke:none;fill-rule:nonzero;fill:rgb(91.369629%,91.369629%,91.369629%);fill-opacity:1;" d="M 287.902344 229.082031 C 287.320312 230.671875 295.960938 235.277344 307.113281 239.398438 C 318.257812 243.511719 327.796875 245.292969 328.382812 243.703125 C 328.964844 242.113281 320.375 237.753906 309.230469 233.640625 C 298.082031 229.523438 288.492188 227.492188 287.902344 229.082031 "/>
<path style=" stroke:none;fill-rule:nonzero;fill:rgb(95.689392%,42.349243%,14.509583%);fill-opacity:1;" d="M 184.511719 297.226562 C 184.511719 299.6875 182.527344 301.675781 180.070312 301.675781 C 177.621094 301.675781 175.632812 299.6875 175.632812 297.226562 C 175.632812 294.769531 177.621094 292.78125 180.070312 292.78125 C 182.527344 292.78125 184.511719 294.769531 184.511719 297.226562 "/>
<path style=" stroke:none;fill-rule:nonzero;fill:rgb(95.689392%,42.349243%,14.509583%);fill-opacity:1;" d="M 184.511719 323.609375 C 184.511719 326.070312 182.527344 328.058594 180.070312 328.058594 C 177.621094 328.058594 175.632812 326.070312 175.632812 323.609375 C 175.632812 321.152344 177.621094 319.164062 180.070312 319.164062 C 182.527344 319.164062 184.511719 321.152344 184.511719 323.609375 "/>
<path style=" stroke:none;fill-rule:nonzero;fill:rgb(95.689392%,42.349243%,14.509583%);fill-opacity:1;" d="M 184.511719 349.996094 C 184.511719 352.453125 182.527344 354.441406 180.070312 354.441406 C 177.621094 354.441406 175.632812 352.453125 175.632812 349.996094 C 175.632812 347.539062 177.621094 345.542969 180.070312 345.542969 C 182.527344 345.542969 184.511719 347.539062 184.511719 349.996094 "/>
<path style=" stroke:none;fill-rule:nonzero;fill:rgb(95.689392%,42.349243%,14.509583%);fill-opacity:1;" d="M 186.59375 253.023438 C 186.59375 253.023438 185.476562 248.386719 189.777344 247.386719 C 194.078125 246.394531 196.636719 241.777344 196.636719 241.777344 C 196.636719 241.777344 198.8125 248.992188 194.675781 251.378906 C 190.539062 253.761719 186.59375 253.023438 186.59375 253.023438 "/>
<path style=" stroke:none;fill-rule:nonzero;fill:rgb(95.689392%,42.349243%,14.509583%);fill-opacity:1;" d="M 137.835938 251.640625 C 137.835938 251.640625 134.582031 247.097656 137.835938 245.652344 C 141.085938 244.210938 141.84375 249.167969 153.6875 248.648438 C 165.535156 248.128906 174.941406 248.691406 177.382812 248.515625 C 179.820312 248.335938 185.746094 246.894531 186.4375 246.273438 C 187.136719 245.652344 189.40625 246.894531 189.226562 248.957031 C 189.050781 251.019531 188.296875 252.539062 188.296875 252.539062 C 188.296875 252.539062 189.40625 254.394531 188.996094 255.566406 C 188.589844 256.738281 186.730469 258.871094 180.632812 257.355469 C 174.535156 255.84375 159.4375 257.007812 158.335938 257.007812 C 157.226562 257.007812 143.933594 257.925781 142.886719 257.878906 C 141.84375 257.835938 138.316406 259.277344 137.605469 258.800781 C 136.894531 258.324219 134.175781 255.222656 137.835938 251.640625 "/>
<path style=" stroke:none;fill-rule:nonzero;fill:rgb(95.289612%,36.468506%,14.898682%);fill-opacity:1;" d="M 192.859375 253.179688 C 192.265625 255.597656 190.175781 257.160156 188.1875 256.667969 C 186.203125 256.179688 185.074219 253.828125 185.671875 251.40625 C 186.269531 248.988281 188.359375 247.421875 190.339844 247.917969 C 192.328125 248.40625 193.457031 250.761719 192.859375 253.179688 "/>
<path style=" stroke:none;fill-rule:nonzero;fill:rgb(95.689392%,42.349243%,14.509583%);fill-opacity:1;" d="M 186.464844 252.972656 C 186.464844 252.972656 189.660156 249.4375 192.90625 252.4375 C 196.148438 255.4375 201.394531 254.960938 201.394531 254.960938 C 201.394531 254.960938 196.664062 260.820312 192.371094 258.738281 C 188.070312 256.65625 186.464844 252.972656 186.464844 252.972656 "/>
<path style=" stroke:none;fill-rule:nonzero;fill:rgb(97.24884%,66.668701%,52.549744%);fill-opacity:1;" d="M 71.832031 152.96875 C 66.15625 151.761719 63.898438 156.335938 66.203125 160.308594 C 68.503906 164.277344 64 168.4375 59.410156 167.863281 C 54.816406 167.285156 45.230469 163.914062 53.480469 155.179688 C 61.726562 146.449219 47.375 144.152344 44.046875 149.265625 C 44.046875 149.265625 30.691406 163.847656 38.28125 174.261719 C 38.597656 174.695312 39.351562 175.550781 39.359375 175.554688 C 39.398438 175.609375 40.324219 176.316406 40.691406 176.5 C 41.738281 177.207031 42.746094 177.984375 43.699219 178.871094 C 44.53125 179.644531 45.6875 181.492188 46.910156 183.214844 C 50.652344 184.367188 55.839844 185.550781 61.621094 186.484375 C 64.921875 187.015625 68.066406 187.417969 70.890625 187.679688 C 71.796875 186.789062 73.976562 179.082031 74.59375 177.34375 C 75.214844 175.605469 75.5 174.757812 75.804688 173.105469 C 77.21875 165.527344 76.496094 153.957031 71.832031 152.96875 "/>
<path style=" stroke:none;fill-rule:nonzero;fill:rgb(97.24884%,66.668701%,52.549744%);fill-opacity:1;" d="M 294.546875 234.039062 C 294.546875 234.039062 302.199219 221.453125 302.199219 220.300781 C 302.199219 219.152344 296.226562 214.015625 296.914062 206.230469 C 297.605469 198.449219 311.570312 188.089844 319.976562 192.230469 C 328.382812 196.375 340.550781 211.332031 336.648438 218.695312 C 332.746094 226.058594 317.929688 233.386719 316.324219 242.390625 C 316.324219 242.390625 309.175781 240.398438 306.421875 239.140625 C 303.664062 237.878906 300.496094 237.039062 294.546875 234.039062 "/>
<path style=" stroke:none;fill-rule:nonzero;fill:rgb(91.369629%,91.369629%,91.369629%);fill-opacity:1;" d="M 298.828125 127.429688 C 303.675781 137.390625 301.253906 154.070312 290.753906 159.203125 C 280.25 164.332031 265.640625 155.960938 260.792969 146 C 255.945312 136.039062 255.917969 114.328125 266.425781 109.195312 C 276.925781 104.070312 293.980469 117.464844 298.828125 127.429688 "/>
<path style=" stroke:none;fill-rule:nonzero;fill:rgb(91.369629%,91.369629%,91.369629%);fill-opacity:1;" d="M 311.890625 193.902344 L 305.015625 197.261719 L 287.832031 161.945312 L 294.707031 158.582031 L 311.890625 193.902344 "/>
<path style=" stroke:none;fill-rule:nonzero;fill:rgb(91.369629%,91.369629%,91.369629%);fill-opacity:1;" d="M 277.761719 159.847656 C 280.152344 160.546875 287.324219 160.125 294.054688 174.722656 L 297.921875 172.839844 L 289.039062 154.585938 L 277.761719 159.847656 "/>
<path style=" stroke:none;fill-rule:nonzero;fill:rgb(91.369629%,91.369629%,91.369629%);fill-opacity:1;" d="M 299.269531 149.351562 C 298.335938 151.667969 293.59375 157.0625 300.925781 171.367188 L 297.039062 173.269531 L 288.160156 155.019531 L 299.269531 149.351562 "/>
<path style=" stroke:none;fill-rule:nonzero;fill:rgb(38.038635%,74.119568%,70.588684%);fill-opacity:1;" d="M 327.230469 234.179688 C 325.617188 234.96875 323.660156 234.296875 322.871094 232.671875 C 322.089844 231.054688 322.757812 229.097656 324.375 228.308594 C 325.996094 227.519531 327.945312 228.191406 328.734375 229.8125 C 329.523438 231.433594 328.847656 233.386719 327.230469 234.179688 Z M 314.492188 189.363281 L 299.84375 196.511719 L 319.230469 244.28125 L 340.105469 234.089844 L 314.492188 189.363281 "/>
<path style=" stroke:none;fill-rule:nonzero;fill:rgb(97.24884%,66.668701%,52.549744%);fill-opacity:1;" d="M 298.992188 201.058594 C 298.992188 201.058594 305.796875 191.929688 311.234375 195.148438 C 316.667969 198.371094 310.539062 202.742188 307.558594 208.035156 C 304.574219 213.324219 307.769531 216.046875 307.769531 216.046875 C 307.769531 216.046875 296.929688 209.117188 298.992188 201.058594 "/>
<path style=" stroke:none;fill-rule:nonzero;fill:rgb(97.24884%,66.668701%,52.549744%);fill-opacity:1;" d="M 315.59375 191.289062 C 315.59375 191.289062 316.816406 199.597656 315.59375 202.4375 C 314.371094 205.273438 311.402344 209.566406 311.890625 211.867188 C 312.382812 214.171875 325.148438 232.976562 334.378906 221.847656 C 343.613281 210.71875 318.558594 192.308594 315.59375 191.289062 "/>
<path style=" stroke:none;fill-rule:nonzero;fill:rgb(100%,100%,100%);fill-opacity:1;" d="M 106.511719 100.730469 C 110.058594 102.015625 113.878906 102.710938 117.859375 102.710938 C 135.515625 102.710938 149.976562 89.007812 151.21875 71.636719 C 153.84375 72.304688 156.59375 72.652344 159.421875 72.652344 C 162.25 72.652344 165 72.304688 167.625 71.636719 C 168.871094 89.007812 183.332031 102.710938 200.988281 102.710938 C 205.390625 102.710938 209.597656 101.859375 213.449219 100.304688 "/>
<path style=" stroke:none;fill-rule:nonzero;fill:rgb(82.749939%,82.348633%,82.348633%);fill-opacity:1;" d="M 106.511719 100.730469 L 108.394531 101.171875 L 109.339844 101.382812 L 110.289062 101.515625 L 112.171875 101.792969 L 114.070312 101.921875 L 115.015625 101.980469 L 115.964844 101.960938 L 117.851562 101.9375 C 119.042969 101.785156 120.421875 101.730469 121.625 101.5 C 122.835938 101.230469 124.03125 101.0625 125.226562 100.667969 L 127.007812 100.148438 L 128.730469 99.460938 C 129.898438 99.054688 130.972656 98.421875 132.070312 97.878906 C 133.140625 97.28125 134.175781 96.617188 135.199219 95.953125 C 136.160156 95.1875 137.199219 94.535156 138.066406 93.671875 L 139.421875 92.441406 L 140.664062 91.097656 C 141.519531 90.234375 142.203125 89.21875 142.96875 88.28125 C 143.359375 87.816406 143.636719 87.269531 143.980469 86.773438 C 144.296875 86.253906 144.660156 85.769531 144.9375 85.226562 C 145.46875 84.140625 146.117188 83.117188 146.519531 81.96875 L 147.199219 80.292969 L 147.726562 78.566406 C 148.128906 77.425781 148.320312 76.234375 148.582031 75.0625 C 148.828125 73.882812 148.882812 72.675781 149.046875 71.484375 L 149.378906 69.097656 L 151.753906 69.523438 L 155.558594 70.207031 L 159.417969 70.421875 C 159.363281 70.421875 159.5625 70.417969 159.289062 70.425781 L 159.296875 70.425781 L 159.316406 70.421875 L 159.347656 70.421875 L 159.414062 70.417969 L 159.539062 70.410156 L 159.796875 70.390625 L 160.316406 70.363281 L 161.347656 70.304688 L 163.417969 70.1875 L 167.089844 69.515625 L 169.464844 69.078125 L 169.804688 71.476562 C 169.976562 72.691406 170.015625 73.925781 170.28125 75.125 C 170.542969 76.320312 170.757812 77.535156 171.175781 78.691406 C 171.371094 79.273438 171.511719 79.875 171.734375 80.445312 L 172.429688 82.152344 C 172.640625 82.738281 172.914062 83.28125 173.210938 83.824219 L 174.058594 85.46875 L 175.054688 87.027344 C 175.386719 87.546875 175.71875 88.070312 176.113281 88.539062 L 177.257812 90.007812 C 177.640625 90.484375 178.097656 90.914062 178.503906 91.378906 C 179.304688 92.332031 180.253906 93.125 181.171875 93.972656 C 181.613281 94.414062 182.144531 94.746094 182.632812 95.128906 C 183.132812 95.496094 183.605469 95.90625 184.136719 96.238281 C 185.210938 96.867188 186.230469 97.605469 187.371094 98.121094 L 189.046875 98.980469 L 190.796875 99.675781 C 191.949219 100.199219 193.183594 100.453125 194.394531 100.835938 C 194.996094 101.027344 195.632812 101.085938 196.253906 101.226562 C 196.875 101.339844 197.492188 101.507812 198.125 101.578125 L 200.027344 101.769531 L 200.984375 101.871094 L 201.921875 101.875 L 203.890625 101.882812 C 204.546875 101.898438 205.160156 101.800781 205.804688 101.761719 C 206.441406 101.691406 207.085938 101.695312 207.722656 101.574219 L 209.636719 101.234375 C 210.285156 101.152344 210.914062 100.980469 211.542969 100.804688 L 213.449219 100.304688 L 211.640625 101.101562 C 211.039062 101.367188 210.429688 101.640625 209.792969 101.816406 C 208.535156 102.238281 207.269531 102.644531 205.9375 102.871094 C 205.28125 102.992188 204.609375 103.179688 203.957031 103.253906 L 202 103.453125 L 200.984375 103.550781 L 199.976562 103.554688 L 197.949219 103.558594 C 196.609375 103.484375 195.25 103.363281 193.914062 103.152344 C 192.59375 102.855469 191.230469 102.683594 189.945312 102.226562 L 187.984375 101.625 L 186.085938 100.847656 C 184.792969 100.375 183.632812 99.628906 182.414062 98.996094 C 181.808594 98.667969 181.257812 98.253906 180.679688 97.882812 C 180.113281 97.488281 179.507812 97.148438 178.988281 96.695312 C 177.917969 95.828125 176.8125 94.992188 175.855469 93.996094 C 175.363281 93.503906 174.84375 93.039062 174.394531 92.515625 L 173.058594 90.925781 C 172.589844 90.40625 172.199219 89.835938 171.808594 89.261719 L 170.621094 87.546875 L 169.59375 85.730469 C 169.242188 85.132812 168.90625 84.515625 168.640625 83.875 L 167.785156 81.964844 C 167.511719 81.328125 167.320312 80.652344 167.097656 79.992188 C 166.609375 78.679688 166.34375 77.304688 166.035156 75.941406 C 165.726562 74.582031 165.644531 73.175781 165.441406 71.792969 L 168.160156 73.761719 C 166.675781 74.054688 165.175781 74.351562 163.691406 74.605469 L 161.625 74.746094 L 160.589844 74.816406 L 159.417969 74.882812 L 155.019531 74.585938 C 153.574219 74.320312 152.128906 74.035156 150.6875 73.75 L 153.390625 71.792969 C 153.195312 73.148438 153.105469 74.519531 152.816406 75.859375 C 152.5 77.195312 152.269531 78.550781 151.785156 79.835938 C 151.5625 80.480469 151.347656 81.128906 151.113281 81.773438 L 150.277344 83.644531 C 149.765625 84.917969 149.003906 86.0625 148.359375 87.261719 C 148.023438 87.855469 147.597656 88.386719 147.222656 88.957031 C 146.816406 89.503906 146.476562 90.097656 146.023438 90.609375 C 145.140625 91.636719 144.320312 92.730469 143.300781 93.636719 L 141.839844 95.042969 L 140.257812 96.320312 C 139.242188 97.210938 138.050781 97.875 136.945312 98.640625 C 136.386719 99.007812 135.769531 99.300781 135.183594 99.628906 C 134.585938 99.929688 134.019531 100.300781 133.382812 100.527344 C 132.132812 101.027344 130.925781 101.605469 129.625 101.949219 L 127.710938 102.53125 L 125.753906 102.929688 C 124.472656 103.257812 123.089844 103.296875 121.765625 103.441406 C 120.425781 103.550781 119.222656 103.464844 117.851562 103.484375 L 115.886719 103.292969 L 114.910156 103.1875 L 113.945312 103.003906 L 112.027344 102.628906 C 111.390625 102.464844 110.765625 102.277344 110.140625 102.085938 L 109.210938 101.804688 L 108.3125 101.453125 L 106.511719 100.730469 "/>
</g>
</svg>
