<?xml version="1.0" encoding="UTF-8"?>
<svg xmlns="http://www.w3.org/2000/svg" xmlns:xlink="http://www.w3.org/1999/xlink" width="375pt" height="374.999991pt" viewBox="0 0 375 374.999991" version="1.2">
<defs>
<clipPath id="clip1">
  <path d="M 172 0 L 206 0 L 206 373.5 L 172 373.5 Z M 172 0 "/>
</clipPath>
<clipPath id="clip2">
  <path d="M 115 341 L 264 341 L 264 373.5 L 115 373.5 Z M 115 341 "/>
</clipPath>
</defs>
<g id="surface1">
<path style=" stroke:none;fill-rule:nonzero;fill:rgb(15.289307%,13.729858%,26.269531%);fill-opacity:1;" d="M 203.882812 357.910156 C 203.882812 365.648438 197.285156 371.929688 189.144531 371.929688 C 181.007812 371.929688 174.414062 365.648438 174.414062 357.910156 L 174.414062 15.59375 C 174.414062 7.851562 181.007812 1.574219 189.144531 1.574219 C 197.285156 1.574219 203.882812 7.851562 203.882812 15.59375 L 203.882812 357.910156 "/>
<g clip-path="url(#clip1)" clip-rule="nonzero">
<path style=" stroke:none;fill-rule:nonzero;fill:rgb(15.289307%,13.729858%,26.269531%);fill-opacity:1;" d="M 203.882812 357.910156 L 202.308594 357.910156 C 202.300781 361.324219 200.859375 364.410156 198.480469 366.679688 C 196.101562 368.941406 192.808594 370.347656 189.144531 370.347656 C 185.488281 370.347656 182.195312 368.941406 179.816406 366.679688 C 177.4375 364.410156 175.992188 361.324219 175.988281 357.910156 L 175.988281 15.59375 C 175.992188 12.175781 177.4375 9.089844 179.816406 6.824219 C 182.195312 4.5625 185.484375 3.152344 189.144531 3.152344 C 192.808594 3.152344 196.101562 4.5625 198.480469 6.824219 C 200.859375 9.089844 202.300781 12.175781 202.308594 15.59375 L 202.308594 357.910156 L 205.460938 357.910156 L 205.460938 15.59375 C 205.460938 11.269531 203.613281 7.34375 200.65625 4.539062 C 197.699219 1.726562 193.625 0 189.144531 0 C 184.667969 0 180.597656 1.726562 177.640625 4.539062 C 174.683594 7.34375 172.832031 11.269531 172.832031 15.59375 L 172.832031 357.910156 C 172.832031 362.234375 174.683594 366.15625 177.640625 368.964844 C 180.59375 371.777344 184.667969 373.507812 189.144531 373.507812 C 193.625 373.507812 197.699219 371.777344 200.65625 368.964844 C 203.613281 366.15625 205.460938 362.234375 205.460938 357.910156 L 203.882812 357.910156 "/>
</g>
<path style=" stroke:none;fill-rule:nonzero;fill:rgb(15.289307%,13.729858%,26.269531%);fill-opacity:1;" d="M 66.941406 140.210938 L 309.617188 140.210938 L 309.617188 229.953125 L 66.941406 229.953125 L 2.902344 181.230469 L 66.941406 140.210938 "/>
<path style=" stroke:none;fill-rule:nonzero;fill:rgb(15.289307%,13.729858%,26.269531%);fill-opacity:1;" d="M 66.941406 140.210938 L 66.941406 141.789062 L 308.042969 141.789062 L 308.042969 228.375 L 67.472656 228.375 L 5.652344 181.339844 L 67.792969 141.539062 L 66.941406 140.210938 L 66.941406 141.789062 L 66.941406 140.210938 L 66.085938 138.882812 L 0.152344 181.117188 L 66.40625 231.53125 L 311.199219 231.53125 L 311.199219 138.628906 L 66.476562 138.628906 L 66.085938 138.882812 L 66.941406 140.210938 "/>
<path style=" stroke:none;fill-rule:nonzero;fill:rgb(15.289307%,13.729858%,26.269531%);fill-opacity:1;" d="M 261.613281 357.609375 C 261.613281 365.519531 255.199219 371.929688 247.285156 371.929688 L 131.003906 371.929688 C 123.09375 371.929688 116.675781 365.519531 116.675781 357.609375 C 116.675781 349.699219 123.09375 343.289062 131.003906 343.289062 L 247.285156 343.289062 C 255.199219 343.289062 261.613281 349.699219 261.613281 357.609375 "/>
<g clip-path="url(#clip2)" clip-rule="nonzero">
<path style=" stroke:none;fill-rule:nonzero;fill:rgb(15.289307%,13.729858%,26.269531%);fill-opacity:1;" d="M 261.613281 357.609375 L 260.035156 357.609375 C 260.035156 361.128906 258.613281 364.304688 256.300781 366.617188 C 253.988281 368.925781 250.8125 370.347656 247.285156 370.347656 L 131.003906 370.347656 C 127.480469 370.347656 124.304688 368.925781 121.988281 366.617188 C 119.679688 364.304688 118.253906 361.128906 118.253906 357.609375 C 118.253906 354.082031 119.679688 350.90625 121.988281 348.59375 C 124.304688 346.289062 127.480469 344.863281 131.003906 344.863281 L 247.285156 344.863281 C 250.8125 344.863281 253.988281 346.289062 256.300781 348.59375 C 258.613281 350.90625 260.035156 354.082031 260.035156 357.609375 L 263.191406 357.609375 C 263.191406 348.824219 256.074219 341.707031 247.285156 341.707031 L 131.003906 341.707031 C 122.222656 341.707031 115.101562 348.824219 115.101562 357.609375 C 115.101562 366.386719 122.222656 373.503906 131.003906 373.507812 L 247.285156 373.507812 C 256.074219 373.503906 263.191406 366.386719 263.191406 357.609375 L 261.613281 357.609375 "/>
</g>
<path style=" stroke:none;fill-rule:nonzero;fill:rgb(15.289307%,13.729858%,26.269531%);fill-opacity:1;" d="M 307.933594 131.757812 L 65.253906 131.757812 L 65.253906 42.015625 L 307.933594 42.015625 L 371.980469 90.742188 L 307.933594 131.757812 "/>
<path style=" stroke:none;fill-rule:nonzero;fill:rgb(15.289307%,13.729858%,26.269531%);fill-opacity:1;" d="M 307.933594 131.757812 L 307.933594 130.179688 L 66.832031 130.179688 L 66.832031 43.589844 L 307.402344 43.589844 L 369.226562 90.628906 L 307.082031 130.425781 L 307.933594 131.757812 L 307.933594 130.179688 L 307.933594 131.757812 L 308.789062 133.082031 L 374.730469 90.851562 L 308.46875 40.4375 L 63.679688 40.4375 L 63.679688 133.332031 L 308.398438 133.332031 L 308.789062 133.082031 L 307.933594 131.757812 "/>
</g>
</svg>
