<?xml version="1.0" encoding="UTF-8"?>
<svg xmlns="http://www.w3.org/2000/svg" xmlns:xlink="http://www.w3.org/1999/xlink" width="375pt" height="374.999991pt" viewBox="0 0 375 374.999991" version="1.2">
<defs>
<clipPath id="clip1">
  <path d="M 2 40 L 373 40 L 373 363 L 2 363 Z M 2 40 "/>
</clipPath>
<clipPath id="clip2">
  <path d="M -77.355469 150.773438 L 277.195312 -43.421875 L 414.464844 207.199219 L 59.914062 401.394531 Z M -77.355469 150.773438 "/>
</clipPath>
<clipPath id="clip3">
  <path d="M -77.355469 150.773438 L 277.195312 -43.421875 L 414.464844 207.199219 L 59.914062 401.394531 Z M -77.355469 150.773438 "/>
</clipPath>
<clipPath id="clip4">
  <path d="M -76.460938 150.28125 L 276.910156 -43.265625 L 417.183594 212.84375 L 63.8125 406.390625 Z M -76.460938 150.28125 "/>
</clipPath>
<clipPath id="clip5">
  <path d="M -76.460938 150.28125 L 276.433594 -43.003906 L 413.734375 207.671875 L 60.839844 400.960938 Z M -76.460938 150.28125 "/>
</clipPath>
<clipPath id="clip6">
  <path d="M 72 91.15625 L 265 91.15625 L 265 266.65625 L 72 266.65625 Z M 72 91.15625 "/>
</clipPath>
</defs>
<g id="surface1">
<g clip-path="url(#clip1)" clip-rule="nonzero">
<g clip-path="url(#clip2)" clip-rule="nonzero">
<g clip-path="url(#clip3)" clip-rule="nonzero">
<g clip-path="url(#clip4)" clip-rule="nonzero">
<g clip-path="url(#clip5)" clip-rule="nonzero">
<path style=" stroke:none;fill-rule:nonzero;fill:rgb(67.83905%,82.348633%,78.039551%);fill-opacity:1;" d="M 269.269531 274.476562 C 253.445312 277.445312 238.734375 284.820312 226.929688 295.746094 C 217.496094 304.503906 208.996094 312.65625 202.695312 318.773438 C 194.796875 326.441406 185.800781 332.949219 175.941406 337.824219 C -70.289062 459.0625 -19.953125 95.457031 112.757812 48.039062 C 164.496094 29.578125 243.375 47.40625 307.769531 67.8125 C 361.480469 84.875 387.804688 145.359375 363.503906 196.230469 C 360.476562 202.566406 357.464844 208.363281 354.519531 213.664062 C 336.65625 245.617188 305.28125 267.753906 269.269531 274.476562 "/>
</g>
</g>
</g>
</g>
</g>
<g clip-path="url(#clip6)" clip-rule="nonzero">
<path style=" stroke:none;fill-rule:nonzero;fill:rgb(100%,84.709167%,1.179504%);fill-opacity:1;" d="M 97.195312 91.1875 L 97.191406 91.1875 C 95.023438 91.1875 92.957031 92.125 91.523438 93.753906 L 91.484375 93.796875 C 90.648438 94.769531 90.101562 95.886719 89.835938 97.054688 C 88.359375 97.390625 87.007812 98.167969 85.976562 99.296875 C 84.945312 100.417969 84.316406 101.769531 84.082031 103.175781 C 82.574219 103.425781 81.179688 104.125 80.066406 105.207031 C 79 106.238281 78.296875 107.511719 77.972656 108.863281 C 76.792969 109.148438 75.6875 109.714844 74.765625 110.535156 C 71.722656 113.195312 71.351562 117.886719 73.945312 121.015625 L 109.914062 164.4375 L 109.992188 164.53125 C 114.808594 170.113281 121.40625 173.332031 128.566406 173.59375 C 128.875 173.601562 129.179688 173.609375 129.484375 173.609375 C 133.234375 173.609375 136.878906 172.78125 140.242188 171.1875 C 144.285156 175.363281 148.671875 179.984375 153.785156 185.441406 C 154.671875 186.382812 155.558594 187.339844 156.441406 188.292969 C 154.230469 190.308594 152.054688 192.285156 149.941406 194.195312 C 141.644531 201.683594 133.304688 209.039062 125.160156 216.058594 C 115.394531 224.46875 107.320312 231.167969 99.753906 237.140625 L 99.722656 237.167969 C 98.714844 237.972656 97.78125 238.910156 97.019531 239.878906 C 91.386719 247.035156 92.613281 257.441406 99.753906 263.082031 C 102.65625 265.371094 106.28125 266.628906 109.96875 266.628906 C 115.058594 266.628906 119.78125 264.335938 122.933594 260.335938 C 128.902344 252.757812 135.398438 244.914062 143.992188 234.90625 C 151.035156 226.710938 158.382812 218.367188 165.832031 210.097656 C 167.542969 208.199219 169.289062 206.269531 171.109375 204.265625 C 172.867188 206.207031 174.527344 208.039062 176.113281 209.796875 C 183.59375 218.097656 190.9375 226.445312 197.953125 234.605469 C 206.542969 244.609375 213.039062 252.453125 219.011719 260.035156 C 219.824219 261.058594 220.769531 262 221.753906 262.78125 C 224.648438 265.066406 228.273438 266.328125 231.960938 266.328125 C 237.050781 266.328125 241.777344 264.035156 244.921875 260.035156 C 250.554688 252.886719 249.328125 242.476562 242.1875 236.835938 C 234.632812 230.867188 226.558594 224.171875 216.785156 215.753906 C 208.613281 208.71875 200.277344 201.363281 192 193.890625 C 190.015625 192.097656 187.96875 190.238281 185.808594 188.269531 C 186.59375 187.425781 187.375 186.578125 188.15625 185.75 C 193.6875 179.84375 198.386719 174.90625 202.699219 170.464844 C 205.703125 171.414062 209.113281 171.90625 212.785156 171.90625 C 225.75 171.90625 239.269531 166.117188 248.957031 156.421875 C 256.875 148.496094 262.183594 138.148438 263.917969 127.28125 C 265.617188 116.625 263.460938 107.09375 258.148438 101.773438 C 254.152344 97.769531 247.625 95.5625 239.777344 95.5625 C 226.742188 95.5625 213.203125 101.324219 203.5625 110.976562 C 196.582031 117.960938 191.605469 127.378906 189.550781 137.484375 C 188.113281 144.546875 188.210938 151.535156 189.742188 157.078125 C 185.261719 161.445312 180.359375 166.121094 174.269531 171.835938 C 173.234375 172.8125 172.183594 173.789062 171.132812 174.761719 C 169.976562 173.691406 168.820312 172.613281 167.679688 171.539062 C 162.039062 166.242188 157.441406 161.867188 153.242188 157.789062 C 154.742188 154.335938 155.449219 150.613281 155.296875 146.8125 C 155.007812 139.648438 151.738281 133.054688 146.097656 128.242188 L 145.957031 128.125 L 101.898438 92.839844 C 100.5625 91.773438 98.894531 91.1875 97.195312 91.1875 Z M 97.191406 97.246094 C 97.519531 97.246094 97.84375 97.351562 98.121094 97.570312 L 142.175781 132.859375 C 146.53125 136.570312 149.027344 141.601562 149.246094 147.054688 C 149.417969 151.308594 148.164062 155.402344 145.707031 158.898438 C 151.574219 164.65625 157.539062 170.324219 163.535156 175.953125 C 166.050781 178.320312 168.597656 180.660156 171.136719 183.007812 C 173.5625 180.761719 176 178.523438 178.40625 176.257812 C 184.59375 170.449219 190.738281 164.609375 196.78125 158.664062 C 192.210938 149.621094 194.191406 128.921875 207.835938 115.257812 C 217.296875 105.789062 229.824219 101.621094 239.777344 101.621094 C 245.871094 101.621094 251 103.183594 253.871094 106.054688 C 261.738281 113.9375 259.925781 136.871094 244.675781 152.140625 C 235.210938 161.617188 222.734375 165.847656 212.785156 165.847656 C 208.230469 165.847656 204.207031 164.960938 201.246094 163.285156 C 195.332031 169.308594 189.519531 175.4375 183.746094 181.597656 C 181.558594 183.929688 179.402344 186.289062 177.230469 188.636719 C 180.792969 191.894531 184.363281 195.148438 187.949219 198.386719 C 196.152344 205.796875 204.445312 213.121094 212.835938 220.347656 C 221.226562 227.570312 229.714844 234.703125 238.441406 241.59375 C 242.96875 245.171875 243.746094 251.746094 240.171875 256.28125 C 238.109375 258.902344 235.054688 260.269531 231.960938 260.269531 C 229.699219 260.269531 227.414062 259.535156 225.5 258.019531 C 224.855469 257.511719 224.25 256.898438 223.765625 256.28125 C 216.882812 247.546875 209.757812 239.058594 202.539062 230.652344 C 195.324219 222.253906 188.007812 213.953125 180.605469 205.738281 C 177.453125 202.238281 174.285156 198.753906 171.109375 195.273438 C 167.839844 198.851562 164.582031 202.441406 161.339844 206.039062 C 153.933594 214.257812 146.621094 222.558594 139.402344 230.957031 C 132.1875 239.355469 125.0625 247.851562 118.175781 256.589844 C 116.117188 259.207031 113.054688 260.570312 109.96875 260.570312 C 107.699219 260.570312 105.421875 259.835938 103.503906 258.324219 C 98.96875 254.746094 98.199219 248.167969 101.769531 243.628906 C 102.277344 242.984375 102.890625 242.386719 103.503906 241.898438 C 112.230469 235.003906 120.71875 227.875 129.105469 220.652344 C 137.496094 213.425781 145.789062 206.101562 153.996094 198.691406 C 157.683594 195.359375 161.355469 192.015625 165.019531 188.660156 C 162.75 186.203125 160.488281 183.738281 158.199219 181.296875 C 152.597656 175.316406 146.964844 169.378906 141.234375 163.527344 C 137.804688 166.136719 133.738281 167.554688 129.484375 167.554688 C 129.253906 167.554688 129.019531 167.546875 128.789062 167.539062 C 123.324219 167.339844 118.277344 164.867188 114.570312 160.570312 L 78.601562 117.148438 C 78.09375 116.53125 78.144531 115.613281 78.753906 115.089844 C 79.039062 114.835938 79.390625 114.710938 79.746094 114.710938 C 80.136719 114.710938 80.523438 114.863281 80.8125 115.160156 L 117.84375 153.476562 C 118.148438 153.8125 118.5 153.992188 118.84375 154 L 118.875 154 C 119.0625 154 119.320312 153.949219 119.546875 153.726562 C 120.015625 153.253906 119.960938 152.371094 119.421875 151.792969 L 84.203125 111.601562 C 83.675781 111.007812 83.691406 110.117188 84.277344 109.558594 C 84.5625 109.273438 84.9375 109.132812 85.3125 109.132812 C 85.675781 109.132812 86.035156 109.265625 86.320312 109.523438 L 125.605469 145.585938 C 125.945312 145.929688 126.328125 146.097656 126.699219 146.097656 C 126.914062 146.097656 127.214844 146.050781 127.464844 145.800781 C 127.710938 145.550781 127.761719 145.253906 127.757812 145.046875 C 127.757812 144.675781 127.585938 144.296875 127.292969 144.015625 L 90.441406 105.441406 C 89.898438 104.871094 89.894531 103.972656 90.4375 103.394531 C 90.71875 103.078125 91.109375 102.921875 91.507812 102.921875 C 91.851562 102.921875 92.195312 103.039062 92.472656 103.273438 L 133.378906 137.707031 C 133.730469 138.03125 134.15625 138.191406 134.550781 138.191406 C 134.875 138.191406 135.171875 138.085938 135.382812 137.871094 C 135.617188 137.636719 135.660156 137.367188 135.65625 137.179688 C 135.640625 136.839844 135.46875 136.492188 135.167969 136.230469 L 96.175781 99.820312 C 95.59375 99.273438 95.542969 98.363281 96.066406 97.757812 C 96.363281 97.421875 96.773438 97.246094 97.191406 97.246094 "/>
</g>
</g>
</svg>
