<?xml version="1.0" encoding="UTF-8"?>
<svg xmlns="http://www.w3.org/2000/svg" xmlns:xlink="http://www.w3.org/1999/xlink" width="375pt" height="374.999991pt" viewBox="0 0 375 374.999991" version="1.2">
<defs>
<clipPath id="clip1">
  <path d="M 2 40 L 373 40 L 373 363 L 2 363 Z M 2 40 "/>
</clipPath>
<clipPath id="clip2">
  <path d="M -77.355469 150.773438 L 277.195312 -43.421875 L 414.464844 207.199219 L 59.914062 401.394531 Z M -77.355469 150.773438 "/>
</clipPath>
<clipPath id="clip3">
  <path d="M -77.355469 150.773438 L 277.195312 -43.421875 L 414.464844 207.199219 L 59.914062 401.394531 Z M -77.355469 150.773438 "/>
</clipPath>
<clipPath id="clip4">
  <path d="M -76.460938 150.28125 L 276.910156 -43.265625 L 417.183594 212.84375 L 63.8125 406.390625 Z M -76.460938 150.28125 "/>
</clipPath>
<clipPath id="clip5">
  <path d="M -76.460938 150.28125 L 276.433594 -43.003906 L 413.734375 207.671875 L 60.839844 400.960938 Z M -76.460938 150.28125 "/>
</clipPath>
<clipPath id="clip6">
  <path d="M 77.089844 88 L 224 88 L 224 270 L 77.089844 270 Z M 77.089844 88 "/>
</clipPath>
</defs>
<g id="surface1">
<g clip-path="url(#clip1)" clip-rule="nonzero">
<g clip-path="url(#clip2)" clip-rule="nonzero">
<g clip-path="url(#clip3)" clip-rule="nonzero">
<g clip-path="url(#clip4)" clip-rule="nonzero">
<g clip-path="url(#clip5)" clip-rule="nonzero">
<path style=" stroke:none;fill-rule:nonzero;fill:rgb(67.83905%,82.348633%,78.039551%);fill-opacity:1;" d="M 269.269531 274.476562 C 253.445312 277.445312 238.734375 284.820312 226.929688 295.746094 C 217.496094 304.503906 208.996094 312.65625 202.695312 318.773438 C 194.796875 326.441406 185.800781 332.949219 175.941406 337.824219 C -70.289062 459.0625 -19.953125 95.457031 112.757812 48.039062 C 164.496094 29.578125 243.375 47.40625 307.769531 67.8125 C 361.480469 84.875 387.804688 145.359375 363.503906 196.230469 C 360.476562 202.566406 357.464844 208.363281 354.519531 213.664062 C 336.65625 245.617188 305.28125 267.753906 269.269531 274.476562 "/>
</g>
</g>
</g>
</g>
</g>
<path style=" stroke:none;fill-rule:nonzero;fill:rgb(100%,84.709167%,1.179504%);fill-opacity:1;" d="M 249.820312 155.050781 C 239.835938 141.496094 226.1875 145.011719 218.484375 147.210938 C 219.175781 141.871094 221.367188 133.917969 228.175781 126.214844 C 230.246094 123.875 230.019531 120.304688 227.679688 118.238281 C 225.351562 116.183594 221.792969 116.363281 219.703125 118.722656 C 216.25 122.632812 213.785156 126.621094 211.933594 130.460938 C 209.246094 117.570312 197.078125 105.519531 178.753906 105.519531 C 178.753906 126.191406 194.0625 139.078125 208.644531 139.238281 C 207.84375 142.21875 207.335938 144.976562 207.109375 147.292969 C 199.460938 145.101562 185.566406 141.328125 175.46875 155.050781 C 166.082031 167.785156 164.871094 184.09375 172.238281 198.65625 C 180.054688 214.132812 195.914062 224.128906 212.644531 224.128906 C 229.363281 224.128906 245.234375 214.132812 253.050781 198.667969 C 260.417969 184.09375 259.207031 167.785156 249.820312 155.050781 Z M 249.820312 155.050781 "/>
<path style=" stroke:none;fill-rule:nonzero;fill:rgb(100%,84.709167%,1.179504%);fill-opacity:1;" d="M 161.8125 111.167969 L 127.921875 111.167969 C 124.804688 111.167969 122.273438 113.695312 122.273438 116.816406 C 122.273438 119.933594 124.804688 122.460938 127.921875 122.460938 L 161.8125 122.460938 C 164.929688 122.460938 167.460938 119.933594 167.460938 116.816406 C 167.460938 113.695312 164.929688 111.167969 161.8125 111.167969 Z M 161.8125 111.167969 "/>
<path style=" stroke:none;fill-rule:nonzero;fill:rgb(100%,84.709167%,1.179504%);fill-opacity:1;" d="M 167.460938 139.40625 C 167.460938 136.289062 164.929688 133.757812 161.8125 133.757812 L 127.921875 133.757812 C 124.804688 133.757812 122.273438 136.289062 122.273438 139.40625 C 122.273438 142.523438 124.804688 145.054688 127.921875 145.054688 L 161.8125 145.054688 C 164.929688 145.054688 167.460938 142.523438 167.460938 139.40625 Z M 167.460938 139.40625 "/>
<path style=" stroke:none;fill-rule:nonzero;fill:rgb(100%,84.709167%,1.179504%);fill-opacity:1;" d="M 127.921875 156.351562 C 124.804688 156.351562 122.273438 158.882812 122.273438 162 C 122.273438 165.117188 124.804688 167.648438 127.921875 167.648438 L 150.515625 167.648438 C 153.632812 167.648438 156.164062 165.117188 156.164062 162 C 156.164062 158.882812 153.632812 156.351562 150.515625 156.351562 Z M 127.921875 156.351562 "/>
<g clip-path="url(#clip6)" clip-rule="nonzero">
<path style=" stroke:none;fill-rule:nonzero;fill:rgb(100%,84.709167%,1.179504%);fill-opacity:1;" d="M 212.644531 241.074219 C 212.644531 250.414062 205.042969 258.019531 195.699219 258.019531 C 186.359375 258.019531 178.753906 250.414062 178.753906 241.074219 C 178.753906 237.957031 176.226562 235.425781 173.109375 235.425781 L 110.976562 235.425781 L 110.976562 99.871094 L 212.644531 99.871094 L 212.644531 111.167969 L 223.941406 111.167969 L 223.941406 99.871094 C 223.941406 93.632812 218.878906 88.574219 212.644531 88.574219 L 110.976562 88.574219 C 104.742188 88.574219 99.683594 93.632812 99.683594 99.871094 L 99.683594 235.425781 L 82.738281 235.425781 C 79.585938 235.425781 77.078125 238.058594 77.089844 241.210938 C 77.167969 256.730469 89.796875 269.3125 105.328125 269.3125 L 195.699219 269.3125 C 211.300781 269.3125 223.941406 256.675781 223.941406 241.074219 L 223.941406 235.425781 L 212.644531 235.425781 Z M 212.644531 241.074219 "/>
</g>
</g>
</svg>
