<?xml version="1.0" encoding="UTF-8"?>
<svg xmlns="http://www.w3.org/2000/svg" xmlns:xlink="http://www.w3.org/1999/xlink" width="375pt" height="374.999991pt" viewBox="0 0 375 374.999991" version="1.2">
<defs>
<clipPath id="clip1">
  <path d="M 2 40 L 373 40 L 373 363 L 2 363 Z M 2 40 "/>
</clipPath>
<clipPath id="clip2">
  <path d="M -77.355469 150.773438 L 277.195312 -43.421875 L 414.464844 207.199219 L 59.914062 401.394531 Z M -77.355469 150.773438 "/>
</clipPath>
<clipPath id="clip3">
  <path d="M -77.355469 150.773438 L 277.195312 -43.421875 L 414.464844 207.199219 L 59.914062 401.394531 Z M -77.355469 150.773438 "/>
</clipPath>
<clipPath id="clip4">
  <path d="M -76.460938 150.28125 L 276.910156 -43.265625 L 417.183594 212.84375 L 63.8125 406.390625 Z M -76.460938 150.28125 "/>
</clipPath>
<clipPath id="clip5">
  <path d="M -76.460938 150.28125 L 276.433594 -43.003906 L 413.734375 207.671875 L 60.839844 400.960938 Z M -76.460938 150.28125 "/>
</clipPath>
<clipPath id="clip6">
  <path d="M 85.058594 99.683594 L 254.558594 99.683594 L 254.558594 281.183594 L 85.058594 281.183594 Z M 85.058594 99.683594 "/>
</clipPath>
</defs>
<g id="surface1">
<g clip-path="url(#clip1)" clip-rule="nonzero">
<g clip-path="url(#clip2)" clip-rule="nonzero">
<g clip-path="url(#clip3)" clip-rule="nonzero">
<g clip-path="url(#clip4)" clip-rule="nonzero">
<g clip-path="url(#clip5)" clip-rule="nonzero">
<path style=" stroke:none;fill-rule:nonzero;fill:rgb(67.83905%,82.348633%,78.039551%);fill-opacity:1;" d="M 269.269531 274.476562 C 253.445312 277.445312 238.734375 284.820312 226.929688 295.746094 C 217.496094 304.503906 208.996094 312.65625 202.695312 318.773438 C 194.796875 326.441406 185.800781 332.949219 175.941406 337.824219 C -70.289062 459.0625 -19.953125 95.457031 112.757812 48.039062 C 164.496094 29.578125 243.375 47.40625 307.769531 67.8125 C 361.480469 84.875 387.804688 145.359375 363.503906 196.230469 C 360.476562 202.566406 357.464844 208.363281 354.519531 213.664062 C 336.65625 245.617188 305.28125 267.753906 269.269531 274.476562 "/>
</g>
</g>
</g>
</g>
</g>
<g clip-path="url(#clip6)" clip-rule="nonzero">
<path style=" stroke:none;fill-rule:nonzero;fill:rgb(100%,84.709167%,1.179504%);fill-opacity:1;" d="M 249.636719 99.832031 C 249.144531 99.832031 248.714844 99.910156 248.285156 99.972656 C 246.566406 100.222656 244.472656 100.78125 240.53125 101.835938 C 236.863281 102.804688 228.691406 104.667969 222.722656 105.871094 C 206.929688 109.011719 200.585938 112.765625 193.5625 118.03125 L 193.554688 118.039062 C 182.886719 126.074219 178.144531 137.117188 178.144531 149.363281 C 178.144531 161.589844 184.859375 169 185.472656 169.664062 C 183.253906 174.75 180.988281 179.285156 178.921875 185.542969 C 174.214844 198.230469 170.734375 208.40625 168.398438 216.089844 L 168.390625 216.097656 C 166.882812 221.136719 165.582031 225.121094 164.34375 228.882812 C 163.324219 225.257812 162.367188 221.917969 160.796875 215.773438 L 160.78125 215.71875 L 160.765625 215.671875 C 147.039062 167.398438 132.679688 138.148438 118.953125 123.054688 C 111.460938 114.757812 101.664062 107.121094 94.058594 104.554688 C 92.972656 104.179688 92.089844 103.902344 91.046875 103.753906 C 90.519531 103.679688 89.941406 103.605469 89.042969 103.785156 C 88.140625 103.96875 86.605469 104.730469 85.902344 106.175781 C 85.199219 107.621094 85.464844 108.855469 85.691406 109.574219 C 85.917969 110.289062 86.1875 110.742188 86.460938 111.175781 C 87.011719 112.042969 87.644531 112.804688 88.460938 113.722656 C 102.144531 129.332031 120.84375 157.089844 135.71875 218.738281 L 135.75 218.863281 C 138 227.019531 143.144531 248.566406 144.730469 256.578125 L 144.730469 256.585938 C 145.652344 261.226562 146.617188 265.800781 147.429688 269.417969 C 147.832031 271.230469 148.191406 272.800781 148.496094 274.035156 C 148.800781 275.265625 148.957031 275.96875 149.292969 276.855469 L 149.332031 276.957031 L 149.378906 277.0625 C 149.804688 278.027344 150.179688 278.46875 150.777344 279.089844 C 151.375 279.710938 152.09375 280.457031 153.664062 280.875 L 154.175781 281.007812 L 171.851562 281.007812 C 173.621094 281.007812 175.023438 280.082031 175.863281 279.238281 C 176.699219 278.394531 177.21875 277.527344 177.695312 276.597656 C 178.648438 274.734375 179.371094 272.550781 180.101562 269.992188 C 181.558594 264.878906 182.914062 258.339844 184.355469 251.792969 C 187.238281 238.691406 190.417969 225.609375 194.339844 211.8125 L 194.347656 211.8125 L 194.347656 211.804688 C 197.683594 200.003906 200.671875 190.175781 203.296875 183.101562 C 204.613281 179.5625 205.839844 176.714844 206.90625 174.726562 C 207.9375 172.808594 208.886719 171.867188 208.921875 171.816406 C 209.222656 171.722656 209.691406 171.582031 210.257812 171.441406 C 211.386719 171.160156 212.886719 170.847656 214.394531 170.597656 C 227.433594 168.417969 234.199219 163.960938 241.59375 154.710938 C 246.886719 148.105469 249.40625 140.316406 250.636719 125.398438 L 250.636719 125.390625 C 251.253906 117.714844 251.527344 116.183594 252.925781 111.703125 L 252.933594 111.6875 L 252.933594 111.671875 C 253.414062 110.085938 253.820312 108.582031 254.105469 107.371094 C 254.246094 106.765625 254.359375 106.246094 254.441406 105.757812 C 254.484375 105.515625 254.519531 105.28125 254.542969 104.988281 C 254.570312 104.695312 254.761719 104.578125 254.402344 103.3125 L 254.347656 103.140625 L 254.285156 102.960938 C 254.007812 102.242188 252.757812 100.605469 251.375 100.136719 C 250.683594 99.90625 250.128906 99.828125 249.636719 99.832031 Z M 245.328125 108.953125 C 245.289062 109.082031 245.273438 109.171875 245.234375 109.304688 C 245.234375 109.304688 245.234375 109.3125 245.234375 109.3125 C 245.230469 109.320312 245.230469 109.328125 245.226562 109.335938 C 243.742188 114.097656 243.238281 116.941406 242.609375 124.746094 L 242.617188 124.738281 C 241.4375 139.054688 239.558594 144.386719 235.320312 149.675781 L 235.3125 149.675781 C 228.453125 158.257812 225.046875 160.652344 213.066406 162.65625 C 211.347656 162.941406 209.695312 163.292969 208.324219 163.632812 C 207.636719 163.804688 207.019531 163.96875 206.46875 164.144531 C 205.914062 164.320312 205.574219 164.355469 204.667969 164.921875 L 204.628906 164.945312 L 204.59375 164.960938 C 202.382812 166.40625 201.167969 168.390625 199.816406 170.914062 C 198.460938 173.433594 197.140625 176.558594 195.75 180.300781 C 192.96875 187.785156 189.953125 197.738281 186.597656 209.617188 L 186.605469 209.609375 C 182.628906 223.589844 179.390625 236.84375 176.484375 250.0625 C 175.03125 256.671875 173.671875 263.160156 172.355469 267.785156 C 171.695312 270.09375 171.027344 271.957031 170.53125 272.925781 C 170.519531 272.949219 170.527344 272.933594 170.515625 272.957031 L 156.550781 272.957031 C 156.453125 272.605469 156.445312 272.617188 156.320312 272.109375 C 156.039062 270.964844 155.679688 269.4375 155.285156 267.664062 C 154.492188 264.125 153.539062 259.589844 152.632812 255.015625 C 150.945312 246.496094 145.925781 225.511719 143.542969 216.851562 L 143.535156 216.828125 C 131.269531 166 116.246094 137.636719 103.257812 119.753906 C 106.65625 122.421875 110.179688 125.347656 112.984375 128.457031 L 113 128.472656 C 125.074219 141.746094 139.46875 170.207031 153.019531 217.867188 C 155.222656 226.464844 156.863281 232.546875 158.074219 236.523438 C 158.683594 238.523438 159.171875 239.976562 159.664062 241.128906 C 159.910156 241.707031 160.113281 242.1875 160.582031 242.84375 C 160.816406 243.171875 161.089844 243.578125 161.816406 244.0625 C 162.523438 244.535156 164.128906 244.957031 165.53125 244.488281 C 167.339844 243.851562 167.460938 243.191406 167.683594 242.867188 C 167.921875 242.523438 168.042969 242.277344 168.171875 242.019531 C 168.429688 241.507812 168.65625 240.96875 168.917969 240.3125 C 169.445312 239 170.078125 237.257812 170.8125 235.109375 C 172.28125 230.816406 174.144531 224.960938 176.105469 218.425781 C 178.382812 210.945312 181.816406 200.867188 186.515625 188.203125 L 186.546875 188.140625 L 186.574219 188.070312 C 193.164062 168.125 200.859375 154.820312 206.828125 146.546875 C 212.800781 138.277344 216.769531 135.242188 216.769531 135.242188 C 216.988281 135.085938 217.191406 134.90625 217.375 134.707031 C 217.558594 134.507812 217.722656 134.292969 217.863281 134.0625 C 218.003906 133.832031 218.117188 133.589844 218.210938 133.332031 C 218.300781 133.078125 218.367188 132.816406 218.40625 132.546875 C 218.445312 132.28125 218.457031 132.011719 218.441406 131.742188 C 218.425781 131.472656 218.382812 131.203125 218.3125 130.941406 C 218.246094 130.679688 218.148438 130.429688 218.03125 130.1875 C 217.910156 129.941406 217.765625 129.714844 217.601562 129.5 C 217.433594 129.289062 217.246094 129.09375 217.042969 128.914062 C 216.835938 128.738281 216.617188 128.585938 216.378906 128.453125 C 216.140625 128.320312 215.894531 128.214844 215.636719 128.132812 C 215.378906 128.050781 215.113281 127.996094 214.84375 127.96875 C 214.574219 127.941406 214.304688 127.9375 214.035156 127.964844 C 213.765625 127.988281 213.503906 128.042969 213.242188 128.121094 C 212.984375 128.199219 212.734375 128.304688 212.5 128.433594 C 212.261719 128.5625 212.039062 128.714844 211.828125 128.890625 C 211.828125 128.890625 206.742188 132.90625 200.292969 141.839844 C 196.875 146.578125 193.007812 153.023438 189.097656 160.875 C 187.652344 158.28125 186.195312 154.546875 186.195312 149.363281 C 186.195312 139.035156 189.527344 131.152344 198.398438 124.472656 C 205.140625 119.414062 209.207031 116.761719 224.300781 113.761719 L 224.308594 113.761719 C 230.460938 112.523438 238.558594 110.6875 242.601562 109.621094 L 242.617188 109.621094 C 244.167969 109.203125 244.296875 109.210938 245.328125 108.953125 Z M 245.328125 108.953125 "/>
</g>
</g>
</svg>
