<?xml version="1.0" encoding="UTF-8"?>
<svg xmlns="http://www.w3.org/2000/svg" xmlns:xlink="http://www.w3.org/1999/xlink" width="375pt" height="60pt" viewBox="0 0 375 60" version="1.2">
<defs>
<clipPath id="clip1">
  <path d="M -45.371094 -16.03125 L 385.929688 19.335938 L 375.511719 146.40625 L -55.792969 111.039062 Z M -45.371094 -16.03125 "/>
</clipPath>
<clipPath id="clip2">
  <path d="M -45.371094 -16.03125 L 385.929688 19.335938 L 375.511719 146.40625 L -55.792969 111.039062 Z M -45.371094 -16.03125 "/>
</clipPath>
</defs>
<g id="surface1">
<g clip-path="url(#clip1)" clip-rule="nonzero">
<g clip-path="url(#clip2)" clip-rule="nonzero">
<path style=" stroke:none;fill-rule:nonzero;fill:rgb(15.289307%,13.729858%,26.269531%);fill-opacity:1;" d="M 377.242188 125.304688 C 377.242188 125.304688 320.917969 107.914062 248.566406 109.9375 C 179.128906 111.878906 146.097656 127.101562 70.941406 120.9375 C -15.597656 113.84375 -54.0625 89.9375 -54.0625 89.9375 L -46.125 -6.863281 C -46.125 -6.863281 9.332031 18.4375 78.878906 24.140625 C 161.625 30.925781 183.589844 11.152344 254.484375 13.148438 C 331.507812 15.300781 385.179688 28.507812 385.179688 28.507812 Z M 377.242188 125.304688 "/>
</g>
</g>
</g>
</svg>
