<?xml version="1.0" encoding="UTF-8"?>
<svg xmlns="http://www.w3.org/2000/svg" xmlns:xlink="http://www.w3.org/1999/xlink" width="375pt" height="60pt" viewBox="0 0 375 60" version="1.2">
<defs>
<clipPath id="clip1">
  <path d="M 0 0 L 375 0 L 375 18 L 0 18 Z M 0 0 "/>
</clipPath>
<clipPath id="clip2">
  <path d="M -43.996094 -123.765625 L 387.308594 -88.398438 L 376.886719 38.675781 L -54.414062 3.308594 Z M -43.996094 -123.765625 "/>
</clipPath>
<clipPath id="clip3">
  <path d="M -43.996094 -123.765625 L 387.308594 -88.398438 L 376.886719 38.675781 L -54.414062 3.308594 Z M -43.996094 -123.765625 "/>
</clipPath>
</defs>
<g id="surface1">
<g clip-path="url(#clip1)" clip-rule="nonzero">
<g clip-path="url(#clip2)" clip-rule="nonzero">
<g clip-path="url(#clip3)" clip-rule="nonzero">
<path style=" stroke:none;fill-rule:nonzero;fill:rgb(100%,100%,99.609375%);fill-opacity:1;" d="M 378.617188 17.570312 C 378.617188 17.570312 322.296875 0.179688 249.941406 2.203125 C 180.507812 4.144531 147.476562 19.367188 72.320312 13.203125 C -14.21875 6.109375 -52.683594 -17.796875 -52.683594 -17.796875 L -44.746094 -114.59375 C -44.746094 -114.59375 10.710938 -89.296875 80.257812 -83.59375 C 163.003906 -76.808594 184.96875 -96.582031 255.859375 -94.585938 C 332.886719 -92.433594 386.554688 -79.226562 386.554688 -79.226562 Z M 378.617188 17.570312 "/>
</g>
</g>
</g>
</g>
</svg>
