<?xml version="1.0" encoding="UTF-8"?>
<svg xmlns="http://www.w3.org/2000/svg" xmlns:xlink="http://www.w3.org/1999/xlink" width="375pt" height="60pt" viewBox="0 0 375 60" version="1.2">
<defs>
<clipPath id="clip1">
  <path d="M -45.921875 -15.757812 L 385.378906 19.609375 L 374.957031 146.683594 L -56.34375 111.316406 Z M -45.921875 -15.757812 "/>
</clipPath>
<clipPath id="clip2">
  <path d="M -45.921875 -15.757812 L 385.378906 19.609375 L 374.957031 146.683594 L -56.34375 111.316406 Z M -45.921875 -15.757812 "/>
</clipPath>
</defs>
<g id="surface1">
<g clip-path="url(#clip1)" clip-rule="nonzero">
<g clip-path="url(#clip2)" clip-rule="nonzero">
<path style=" stroke:none;fill-rule:nonzero;fill:rgb(100%,100%,100%);fill-opacity:1;" d="M 376.6875 125.578125 C 376.6875 125.578125 320.367188 108.1875 248.015625 110.214844 C 178.578125 112.152344 145.546875 127.375 70.390625 121.214844 C -16.148438 114.117188 -54.613281 90.210938 -54.613281 90.210938 L -46.675781 -6.585938 C -46.675781 -6.585938 8.78125 18.714844 78.328125 24.417969 C 161.074219 31.203125 183.039062 11.425781 253.933594 13.425781 C 330.957031 15.578125 384.628906 28.78125 384.628906 28.78125 Z M 376.6875 125.578125 "/>
</g>
</g>
</g>
</svg>
