<?xml version="1.0" encoding="UTF-8"?>
<svg xmlns="http://www.w3.org/2000/svg" xmlns:xlink="http://www.w3.org/1999/xlink" width="375pt" height="374.999991pt" viewBox="0 0 375 374.999991" version="1.2">
<g id="surface1">
<path style=" stroke:none;fill-rule:nonzero;fill:rgb(87.838745%,21.958923%,20.779419%);fill-opacity:1;" d="M 111.621094 118.839844 C 110.253906 118.839844 108.859375 118.738281 107.46875 118.492188 L 84.6875 114.917969 C 81.207031 114.371094 78.84375 111.121094 79.390625 107.644531 C 79.9375 104.167969 83.195312 101.8125 86.652344 102.355469 L 109.484375 105.957031 C 112.863281 106.503906 116.246094 105.707031 119.007812 103.722656 C 121.769531 101.761719 123.585938 98.808594 124.132812 95.457031 C 124.679688 92.105469 123.882812 88.753906 121.917969 86 C 119.929688 83.242188 116.96875 81.433594 113.609375 80.886719 L 81.132812 75.574219 C 67.976562 73.4375 56.460938 66.316406 48.699219 55.542969 C 46.636719 52.6875 47.28125 48.714844 50.144531 46.65625 C 53.003906 44.597656 56.980469 45.265625 59.046875 48.097656 C 64.816406 56.136719 73.394531 61.449219 83.171875 63.039062 L 115.675781 68.324219 C 122.390625 69.417969 128.285156 73.066406 132.238281 78.578125 C 136.21875 84.085938 137.808594 90.816406 136.714844 97.515625 C 135.597656 104.21875 131.964844 110.078125 126.445312 114.046875 C 122.066406 117.199219 116.917969 118.839844 111.621094 118.839844 "/>
<path style=" stroke:none;fill-rule:nonzero;fill:rgb(94.119263%,24.308777%,23.919678%);fill-opacity:1;" d="M 61.433594 123.878906 L 67.699219 124.894531 C 85.058594 127.726562 101.425781 115.984375 104.261719 98.660156 L 66.558594 92.527344 L 41.414062 88.433594 C 24.078125 85.601562 7.714844 97.34375 4.878906 114.667969 C 2.042969 131.96875 13.808594 148.304688 31.167969 151.132812 L 37.460938 152.148438 L 75.136719 158.304688 L 41.5625 127.078125 L 42.582031 120.800781 L 61.433594 123.878906 "/>
<path style=" stroke:none;fill-rule:nonzero;fill:rgb(44.309998%,47.059631%,50.19989%);fill-opacity:1;" d="M 226.519531 260.300781 L 264.074219 255.460938 L 267.359375 280.65625 L 229.777344 285.519531 L 226.519531 260.300781 "/>
<path style=" stroke:none;fill-rule:nonzero;fill:rgb(50.588989%,50.979614%,51.368713%);fill-opacity:1;" d="M 226.519531 260.300781 L 228.660156 276.90625 L 265.914062 272.089844 L 263.75 255.484375 L 226.519531 260.300781 "/>
<path style=" stroke:none;fill-rule:nonzero;fill:rgb(49.409485%,26.269531%,10.198975%);fill-opacity:1;" d="M 357.089844 275.492188 L 262.359375 287.703125 L 257.460938 249.898438 L 352.164062 237.664062 C 362.632812 236.320312 372.210938 243.695312 373.578125 254.121094 C 374.921875 264.570312 367.535156 274.125 357.089844 275.492188 "/>
<path style=" stroke:none;fill-rule:nonzero;fill:rgb(62.748718%,33.329773%,11.369324%);fill-opacity:1;" d="M 352.164062 237.664062 L 257.460938 249.898438 L 261.289062 279.339844 L 355.570312 267.152344 C 364.871094 265.960938 371.710938 258.238281 372.160156 249.179688 C 368.878906 241.511719 360.867188 236.546875 352.164062 237.664062 "/>
<path style=" stroke:none;fill-rule:nonzero;fill:rgb(87.838745%,21.958923%,20.779419%);fill-opacity:1;" d="M 41.414062 88.433594 C 31.140625 86.742188 21.292969 90.269531 14.332031 96.945312 L 42.582031 120.800781 L 61.433594 123.878906 L 66.558594 92.527344 L 41.414062 88.433594 "/>
<path style=" stroke:none;fill-rule:nonzero;fill:rgb(87.838745%,21.958923%,20.779419%);fill-opacity:1;" d="M 31.167969 151.132812 L 37.460938 152.148438 L 42.582031 120.800781 L 8.1875 134.453125 C 12.6875 142.992188 20.894531 149.46875 31.167969 151.132812 "/>
<path style=" stroke:none;fill-rule:nonzero;fill:rgb(93.728638%,67.449951%,48.239136%);fill-opacity:1;" d="M 169.195312 215.246094 C 163.375 211.300781 161.882812 203.382812 165.839844 197.574219 L 176.582031 181.835938 L 182.726562 179.652344 L 197.648438 188.09375 L 197.648438 196.136719 L 186.878906 211.898438 C 182.925781 217.679688 175.015625 219.195312 169.195312 215.246094 "/>
<path style=" stroke:none;fill-rule:nonzero;fill:rgb(79.998779%,58.039856%,40.779114%);fill-opacity:1;" d="M 208.167969 203.285156 L 166.0625 174.664062 L 169.644531 169.425781 C 177.550781 157.808594 193.394531 154.804688 205.035156 162.722656 C 216.648438 170.617188 219.65625 186.429688 211.75 198.019531 L 208.167969 203.285156 "/>
<path style=" stroke:none;fill-rule:nonzero;fill:rgb(49.798584%,76.858521%,53.329468%);fill-opacity:1;" d="M 240.847656 69.46875 C 237.042969 65.246094 233.113281 64.207031 229.355469 64.230469 C 229.976562 54.945312 223.761719 46.359375 214.382812 44.347656 C 205.007812 42.335938 195.832031 47.625 192.546875 56.335938 C 189.140625 54.773438 185.136719 54.101562 179.941406 56.386719 C 175.414062 58.371094 171.632812 62.171875 170.464844 66.960938 C 168.300781 75.671875 173.820312 84.386719 182.574219 86.273438 C 186.082031 87.015625 189.5625 86.546875 192.574219 85.105469 C 190.808594 93.371094 187.699219 101.3125 183.394531 108.585938 C 181.554688 111.691406 183.296875 115.6875 186.828125 116.429688 L 209.832031 121.371094 C 213.363281 122.117188 216.597656 119.210938 216.199219 115.636719 C 215.253906 107.222656 215.703125 98.707031 217.492188 90.441406 C 219.65625 92.972656 222.617188 94.859375 226.148438 95.628906 C 234.878906 97.492188 243.480469 91.808594 245.125 82.972656 C 246.042969 78.128906 244.152344 73.117188 240.847656 69.46875 "/>
<path style=" stroke:none;fill-rule:nonzero;fill:rgb(91.758728%,58.81958%,7.058716%);fill-opacity:1;" d="M 70.4375 234.882812 L 36.289062 217.804688 L 53.425781 183.722656 L 87.546875 200.828125 L 70.4375 234.882812 "/>
<path style=" stroke:none;fill-rule:nonzero;fill:rgb(96.469116%,52.159119%,7.058716%);fill-opacity:1;" d="M 99.957031 171.015625 C 99.957031 160.492188 108.511719 151.953125 119.058594 151.953125 C 129.601562 151.953125 138.15625 160.492188 138.15625 171.015625 C 138.15625 181.539062 129.601562 190.078125 119.058594 190.078125 C 108.511719 190.078125 99.957031 181.539062 99.957031 171.015625 "/>
<path style=" stroke:none;fill-rule:nonzero;fill:rgb(78.039551%,92.939758%,94.119263%);fill-opacity:1;" d="M 23.558594 253.621094 C 22.339844 253.621094 21.121094 253.277344 20.023438 252.554688 C 6.371094 243.472656 -0.144531 226.691406 3.859375 210.78125 L 4.65625 207.601562 C 5.5 204.203125 8.957031 202.117188 12.367188 202.984375 C 15.773438 203.828125 17.863281 207.28125 16.992188 210.679688 L 16.195312 213.882812 C 13.535156 224.582031 17.886719 235.875 27.089844 241.980469 C 30.023438 243.917969 30.792969 247.863281 28.855469 250.792969 C 27.636719 252.628906 25.621094 253.621094 23.558594 253.621094 "/>
<path style=" stroke:none;fill-rule:nonzero;fill:rgb(78.039551%,92.939758%,94.119263%);fill-opacity:1;" d="M 265.492188 107.46875 C 263.851562 107.46875 262.234375 106.851562 260.992188 105.609375 C 258.503906 103.125 258.503906 99.105469 260.992188 96.625 C 267.132812 90.492188 269.246094 81.582031 266.488281 73.363281 L 265.816406 71.355469 C 264.722656 68.027344 266.511719 64.429688 269.84375 63.3125 C 273.203125 62.195312 276.785156 64.007812 277.902344 67.332031 L 278.574219 69.34375 C 282.851562 82.152344 279.570312 96.050781 269.992188 105.609375 C 268.75 106.851562 267.132812 107.46875 265.492188 107.46875 "/>
<path style=" stroke:none;fill-rule:nonzero;fill:rgb(78.039551%,92.939758%,94.119263%);fill-opacity:1;" d="M 144.523438 73.6875 C 142.113281 73.6875 139.800781 72.320312 138.730469 69.988281 C 135.125 62.09375 127.511719 57.007812 118.832031 56.710938 L 116.695312 56.632812 C 113.1875 56.511719 110.453125 53.558594 110.550781 50.058594 C 110.675781 46.558594 113.511719 43.875 117.144531 43.925781 L 119.28125 44 C 132.8125 44.496094 144.699219 52.414062 150.320312 64.703125 C 151.785156 67.902344 150.367188 71.675781 147.160156 73.117188 C 146.316406 73.511719 145.421875 73.6875 144.523438 73.6875 "/>
<path style=" stroke:none;fill-rule:nonzero;fill:rgb(78.039551%,92.939758%,94.119263%);fill-opacity:1;" d="M 243.085938 196.980469 C 242.140625 196.980469 241.167969 196.753906 240.25 196.285156 C 237.117188 194.71875 235.824219 190.898438 237.414062 187.769531 C 241.292969 180.027344 240.472656 170.890625 235.273438 163.964844 L 234.007812 162.277344 C 231.894531 159.449219 232.464844 155.476562 235.273438 153.367188 C 238.085938 151.28125 242.089844 151.828125 244.179688 154.65625 L 245.472656 156.34375 C 253.578125 167.167969 254.847656 181.367188 248.804688 193.453125 C 247.683594 195.6875 245.421875 196.980469 243.085938 196.980469 "/>
<path style=" stroke:none;fill-rule:nonzero;fill:rgb(98.039246%,94.119263%,68.629456%);fill-opacity:1;" d="M 119.058594 228.207031 C 115.550781 228.207031 112.691406 225.351562 112.691406 221.851562 L 112.691406 215.496094 C 112.691406 211.996094 115.550781 209.140625 119.058594 209.140625 C 122.5625 209.140625 125.425781 211.996094 125.425781 215.496094 L 125.425781 221.851562 C 125.425781 225.351562 122.5625 228.207031 119.058594 228.207031 "/>
<path style=" stroke:none;fill-rule:nonzero;fill:rgb(98.039246%,94.119263%,68.629456%);fill-opacity:1;" d="M 121.246094 273.804688 C 117.714844 273.804688 114.878906 270.949219 114.878906 267.449219 L 114.878906 248.386719 C 114.878906 244.886719 117.714844 242.03125 121.246094 242.03125 C 124.753906 242.03125 127.613281 244.886719 127.613281 248.386719 L 127.613281 267.449219 C 127.613281 270.949219 124.753906 273.804688 121.246094 273.804688 "/>
<path style=" stroke:none;fill-rule:nonzero;fill:rgb(98.039246%,94.119263%,68.629456%);fill-opacity:1;" d="M 176.359375 259.976562 C 172.851562 259.976562 169.992188 257.121094 169.992188 253.621094 L 169.992188 240.914062 C 169.992188 237.414062 172.851562 234.558594 176.359375 234.558594 C 179.863281 234.558594 182.726562 237.414062 182.726562 240.914062 L 182.726562 253.621094 C 182.726562 257.121094 179.863281 259.976562 176.359375 259.976562 "/>
<path style=" stroke:none;fill-rule:nonzero;fill:rgb(98.039246%,94.119263%,68.629456%);fill-opacity:1;" d="M 57.578125 280.15625 C 54.046875 280.15625 51.210938 277.304688 51.210938 273.804688 L 51.210938 254.738281 C 51.210938 251.238281 54.046875 248.386719 57.578125 248.386719 C 61.085938 248.386719 63.945312 251.238281 63.945312 254.738281 L 63.945312 273.804688 C 63.945312 277.304688 61.085938 280.15625 57.578125 280.15625 "/>
<path style=" stroke:none;fill-rule:nonzero;fill:rgb(55.288696%,55.288696%,55.288696%);fill-opacity:1;" d="M 213.488281 306.839844 L 36.6875 329.652344 C 22.734375 331.464844 9.976562 321.636719 8.164062 307.710938 L 4.90625 282.515625 L 232.214844 253.152344 L 235.472656 278.371094 C 237.289062 292.296875 227.441406 305.03125 213.488281 306.839844 "/>
<path style=" stroke:none;fill-rule:nonzero;fill:rgb(64.709473%,64.709473%,64.309692%);fill-opacity:1;" d="M 4.90625 282.515625 L 7.664062 303.914062 C 11.867188 314.4375 22.734375 321.261719 34.523438 319.722656 L 211.300781 296.914062 C 225.253906 295.101562 235.101562 282.367188 233.3125 268.441406 L 231.347656 253.277344 L 4.90625 282.515625 "/>
</g>
</svg>
