<?xml version="1.0" encoding="UTF-8"?>
<svg xmlns="http://www.w3.org/2000/svg" xmlns:xlink="http://www.w3.org/1999/xlink" width="375pt" height="374.999991pt" viewBox="0 0 375 374.999991" version="1.2">
<defs>
<clipPath id="clip1">
  <path d="M 14 20 L 364.617188 20 L 364.617188 371 L 14 371 Z M 14 20 "/>
</clipPath>
</defs>
<g id="surface1">
<path style=" stroke:none;fill-rule:nonzero;fill:rgb(85.488892%,85.099792%,85.099792%);fill-opacity:1;" d="M 363.824219 202.660156 C 363.824219 297.820312 286.519531 374.96875 191.152344 374.96875 C 95.785156 374.96875 18.476562 297.820312 18.476562 202.660156 C 18.476562 107.496094 95.785156 30.355469 191.152344 30.355469 C 286.519531 30.355469 363.824219 107.496094 363.824219 202.660156 "/>
<path style=" stroke:none;fill-rule:nonzero;fill:rgb(100%,100%,100%);fill-opacity:1;" d="M 189.261719 369.082031 C 93.347656 369.082031 15.320312 291.210938 15.320312 195.507812 C 15.320312 99.796875 93.347656 21.933594 189.261719 21.933594 C 285.179688 21.933594 363.207031 99.796875 363.207031 195.507812 C 363.207031 291.210938 285.179688 369.082031 189.261719 369.082031 "/>
<g clip-path="url(#clip1)" clip-rule="nonzero">
<path style=" stroke:none;fill-rule:nonzero;fill:rgb(56.858826%,56.079102%,56.079102%);fill-opacity:1;" d="M 189.261719 20.667969 C 142.460938 20.667969 98.460938 38.855469 65.367188 71.878906 C 32.273438 104.898438 14.050781 148.804688 14.050781 195.507812 C 14.050781 242.210938 32.273438 286.117188 65.367188 319.136719 C 98.460938 352.160156 142.460938 370.347656 189.261719 370.347656 C 236.0625 370.347656 280.0625 352.160156 313.15625 319.136719 C 346.25 286.117188 364.476562 242.210938 364.476562 195.507812 C 364.476562 148.804688 346.25 104.898438 313.15625 71.878906 C 280.066406 38.855469 236.0625 20.667969 189.261719 20.667969 Z M 189.261719 23.199219 C 284.628906 23.199219 361.9375 100.34375 361.9375 195.507812 C 361.9375 290.667969 284.628906 367.8125 189.261719 367.8125 C 93.894531 367.8125 16.585938 290.667969 16.585938 195.507812 C 16.585938 100.34375 93.894531 23.199219 189.261719 23.199219 "/>
</g>
<path style=" stroke:none;fill-rule:nonzero;fill:rgb(75.689697%,75.289917%,75.689697%);fill-opacity:1;" d="M 328.277344 195.507812 L 326.082031 195.507812 C 326.082031 233.214844 310.773438 267.332031 286.011719 292.046875 C 261.242188 316.757812 227.054688 332.035156 189.261719 332.039062 C 151.472656 332.035156 117.285156 316.757812 92.515625 292.046875 C 67.753906 267.332031 52.441406 233.214844 52.4375 195.507812 C 52.441406 157.796875 67.753906 123.679688 92.515625 98.964844 C 117.285156 74.257812 151.472656 58.980469 189.261719 58.972656 C 227.054688 58.980469 261.242188 74.257812 286.011719 98.964844 C 310.773438 123.679688 326.082031 157.796875 326.082031 195.507812 L 330.476562 195.507812 C 330.472656 117.683594 267.253906 54.597656 189.261719 54.59375 C 111.273438 54.597656 48.050781 117.683594 48.050781 195.507812 C 48.050781 273.332031 111.273438 336.414062 189.261719 336.417969 C 267.253906 336.414062 330.472656 273.332031 330.476562 195.507812 L 328.277344 195.507812 "/>
<path style=" stroke:none;fill-rule:nonzero;fill:rgb(91.369629%,91.369629%,91.369629%);fill-opacity:1;" d="M 291.695312 195.507812 C 291.695312 251.960938 245.835938 297.722656 189.261719 297.722656 C 132.691406 297.722656 86.832031 251.960938 86.832031 195.507812 C 86.832031 139.054688 132.691406 93.292969 189.261719 93.292969 C 245.835938 93.292969 291.695312 139.054688 291.695312 195.507812 "/>
<path style=" stroke:none;fill-rule:nonzero;fill:rgb(74.119568%,11.369324%,12.159729%);fill-opacity:1;" d="M 250.808594 120.09375 C 250.808594 152.097656 224.804688 178.042969 192.726562 178.042969 C 160.652344 178.042969 134.652344 152.097656 134.652344 120.09375 C 134.652344 88.082031 160.652344 62.136719 192.726562 62.136719 C 224.804688 62.136719 250.808594 88.082031 250.808594 120.09375 "/>
<path style=" stroke:none;fill-rule:nonzero;fill:rgb(93.328857%,14.898682%,16.079712%);fill-opacity:1;" d="M 247.035156 116.859375 C 247.035156 148.871094 221.03125 174.816406 188.949219 174.816406 C 156.875 174.816406 130.875 148.871094 130.875 116.859375 C 130.875 84.855469 156.875 58.902344 188.949219 58.902344 C 221.03125 58.902344 247.035156 84.855469 247.035156 116.859375 "/>
<path style=" stroke:none;fill-rule:nonzero;fill:rgb(93.728638%,22.349548%,14.898682%);fill-opacity:1;" d="M 238.761719 116.859375 C 238.761719 144.308594 216.460938 166.5625 188.949219 166.5625 C 161.445312 166.5625 139.148438 144.308594 139.148438 116.859375 C 139.148438 89.410156 161.445312 67.160156 188.949219 67.160156 C 216.460938 67.160156 238.761719 89.410156 238.761719 116.859375 "/>
<path style=" stroke:none;fill-rule:nonzero;fill:rgb(93.328857%,14.898682%,16.079712%);fill-opacity:1;" d="M 184.824219 134.996094 C 177.664062 133.382812 172.105469 127.703125 170.664062 120.53125 C 170.511719 119.753906 169.828125 119.195312 169.03125 119.195312 L 146.886719 119.195312 C 146.414062 119.195312 145.96875 119.390625 145.652344 119.742188 C 145.335938 120.082031 145.179688 120.550781 145.222656 121.015625 C 147.171875 141.675781 163.601562 158.257812 184.285156 160.441406 L 184.460938 160.449219 C 184.867188 160.449219 185.265625 160.300781 185.570312 160.023438 C 185.921875 159.707031 186.125 159.257812 186.125 158.785156 L 186.125 136.617188 C 186.125 135.84375 185.589844 135.171875 184.824219 134.996094 "/>
<path style=" stroke:none;fill-rule:nonzero;fill:rgb(93.328857%,14.898682%,16.079712%);fill-opacity:1;" d="M 231.015625 119.195312 L 208.871094 119.195312 C 208.078125 119.195312 207.394531 119.753906 207.234375 120.53125 C 205.679688 128.308594 199.324219 134.238281 191.433594 135.285156 C 190.601562 135.402344 189.980469 136.105469 189.980469 136.933594 L 189.980469 158.929688 C 189.980469 159.390625 190.171875 159.828125 190.507812 160.140625 C 190.820312 160.433594 191.230469 160.59375 191.648438 160.59375 L 191.753906 160.589844 C 202.171875 159.933594 212.042969 155.566406 219.546875 148.292969 C 227.039062 141.039062 231.703125 131.351562 232.675781 121.015625 C 232.722656 120.550781 232.566406 120.082031 232.25 119.742188 C 231.9375 119.390625 231.488281 119.195312 231.015625 119.195312 "/>
<path style=" stroke:none;fill-rule:nonzero;fill:rgb(93.328857%,14.898682%,16.079712%);fill-opacity:1;" d="M 184.285156 73.28125 C 174.074219 74.355469 164.503906 79.027344 157.351562 86.429688 C 150.175781 93.851562 145.839844 103.589844 145.140625 113.851562 C 145.113281 114.308594 145.273438 114.765625 145.589844 115.101562 C 145.902344 115.441406 146.34375 115.628906 146.804688 115.628906 L 168.863281 115.628906 C 169.691406 115.628906 170.398438 115.019531 170.515625 114.199219 C 171.601562 106.628906 177.351562 100.410156 184.824219 98.722656 C 185.589844 98.546875 186.125 97.875 186.125 97.101562 L 186.125 74.933594 C 186.125 74.464844 185.921875 74.015625 185.570312 73.699219 C 185.222656 73.382812 184.753906 73.230469 184.285156 73.28125 "/>
<path style=" stroke:none;fill-rule:nonzero;fill:rgb(93.328857%,14.898682%,16.079712%);fill-opacity:1;" d="M 191.660156 98.46875 C 199.792969 99.652344 206.265625 106.148438 207.398438 114.269531 C 207.515625 115.09375 208.21875 115.699219 209.050781 115.699219 L 231.351562 115.699219 C 231.8125 115.699219 232.253906 115.511719 232.566406 115.175781 C 232.882812 114.832031 233.042969 114.382812 233.011719 113.925781 C 231.527344 92.085938 213.898438 74.578125 192.003906 73.199219 C 191.546875 73.175781 191.097656 73.332031 190.761719 73.648438 C 190.421875 73.960938 190.234375 74.402344 190.234375 74.863281 L 190.234375 96.820312 C 190.234375 97.648438 190.839844 98.351562 191.660156 98.46875 "/>
<path style=" stroke:none;fill-rule:nonzero;fill:rgb(97.648621%,65.489197%,16.859436%);fill-opacity:1;" d="M 181.164062 85.535156 C 181.164062 88.457031 178.136719 94.433594 178.136719 94.433594 C 178.136719 94.433594 174.007812 88.457031 174.007812 85.535156 C 174.007812 82.621094 175.042969 80.253906 177.585938 80.253906 C 180.648438 80.253906 181.164062 82.621094 181.164062 85.535156 "/>
<path style=" stroke:none;fill-rule:nonzero;fill:rgb(97.648621%,65.489197%,16.859436%);fill-opacity:1;" d="M 168.070312 91.46875 C 169.675781 93.910156 170.429688 100.5625 170.429688 100.5625 C 170.429688 100.5625 163.691406 97.824219 162.085938 95.386719 C 160.480469 92.945312 160.046875 90.402344 162.171875 89.011719 C 164.734375 87.335938 166.464844 89.027344 168.070312 91.46875 "/>
<path style=" stroke:none;fill-rule:nonzero;fill:rgb(97.648621%,65.489197%,16.859436%);fill-opacity:1;" d="M 158.917969 102.578125 C 161.554688 103.832031 165.671875 109.125 165.671875 109.125 C 165.671875 109.125 158.488281 110.28125 155.847656 109.027344 C 153.207031 107.777344 151.507812 105.835938 152.601562 103.539062 C 153.914062 100.777344 156.273438 101.328125 158.917969 102.578125 "/>
<path style=" stroke:none;fill-rule:nonzero;fill:rgb(97.648621%,65.489197%,16.859436%);fill-opacity:1;" d="M 156.3125 124.335938 C 159.167969 123.707031 165.671875 125.375 165.671875 125.375 C 165.671875 125.375 160.710938 130.683594 157.855469 131.3125 C 155 131.941406 152.464844 131.4375 151.914062 128.957031 C 151.253906 125.976562 153.457031 124.964844 156.3125 124.335938 "/>
<path style=" stroke:none;fill-rule:nonzero;fill:rgb(97.648621%,65.489197%,16.859436%);fill-opacity:1;" d="M 162.613281 138.183594 C 164.726562 136.171875 171.140625 134.214844 171.140625 134.214844 C 171.140625 134.214844 169.675781 141.324219 167.558594 143.34375 C 165.449219 145.359375 163.023438 146.25 161.261719 144.421875 C 159.144531 142.210938 160.5 140.203125 162.613281 138.183594 "/>
<path style=" stroke:none;fill-rule:nonzero;fill:rgb(97.648621%,65.489197%,16.859436%);fill-opacity:1;" d="M 174.320312 146.863281 C 174.320312 143.945312 177.347656 137.96875 177.347656 137.96875 C 177.347656 137.96875 181.472656 143.945312 181.472656 146.863281 C 181.472656 149.78125 180.441406 152.152344 177.898438 152.152344 C 174.835938 152.152344 174.320312 149.78125 174.320312 146.863281 "/>
<path style=" stroke:none;fill-rule:nonzero;fill:rgb(97.648621%,65.489197%,16.859436%);fill-opacity:1;" d="M 195.414062 148.675781 C 195.414062 145.761719 198.445312 139.785156 198.445312 139.785156 C 198.445312 139.785156 202.574219 145.761719 202.574219 148.675781 C 202.574219 151.597656 201.542969 153.964844 198.996094 153.964844 C 195.929688 153.964844 195.414062 151.597656 195.414062 148.675781 "/>
<path style=" stroke:none;fill-rule:nonzero;fill:rgb(97.648621%,65.489197%,16.859436%);fill-opacity:1;" d="M 209.128906 141.820312 C 207.53125 139.386719 206.773438 132.726562 206.773438 132.726562 C 206.773438 132.726562 213.511719 135.464844 215.113281 137.902344 C 216.71875 140.34375 217.15625 142.886719 215.03125 144.28125 C 212.464844 145.953125 210.738281 144.261719 209.128906 141.820312 "/>
<path style=" stroke:none;fill-rule:nonzero;fill:rgb(97.648621%,65.489197%,16.859436%);fill-opacity:1;" d="M 217.507812 130.875 C 214.867188 129.621094 210.757812 124.332031 210.757812 124.332031 C 210.757812 124.332031 217.9375 123.175781 220.578125 124.429688 C 223.21875 125.675781 224.917969 127.621094 223.828125 129.917969 C 222.515625 132.679688 220.152344 132.128906 217.507812 130.875 "/>
<path style=" stroke:none;fill-rule:nonzero;fill:rgb(97.648621%,65.489197%,16.859436%);fill-opacity:1;" d="M 220.917969 109.121094 C 218.066406 109.75 211.566406 108.082031 211.566406 108.082031 C 211.566406 108.082031 216.53125 102.773438 219.382812 102.148438 C 222.238281 101.515625 224.773438 102.019531 225.320312 104.5 C 225.984375 107.480469 223.78125 108.492188 220.917969 109.121094 "/>
<path style=" stroke:none;fill-rule:nonzero;fill:rgb(97.648621%,65.489197%,16.859436%);fill-opacity:1;" d="M 214.0625 95.085938 C 211.949219 97.105469 205.53125 99.054688 205.53125 99.054688 C 205.53125 99.054688 207 91.945312 209.113281 89.929688 C 211.222656 87.910156 213.652344 87.019531 215.410156 88.851562 C 217.53125 91.058594 216.171875 93.066406 214.0625 95.085938 "/>
<path style=" stroke:none;fill-rule:nonzero;fill:rgb(97.648621%,65.489197%,16.859436%);fill-opacity:1;" d="M 202.253906 85.535156 C 202.253906 88.457031 199.226562 94.433594 199.226562 94.433594 C 199.226562 94.433594 195.101562 88.457031 195.101562 85.535156 C 195.101562 82.621094 196.132812 80.253906 198.675781 80.253906 C 201.738281 80.253906 202.253906 82.621094 202.253906 85.535156 "/>
<path style=" stroke:none;fill-rule:nonzero;fill:rgb(74.119568%,11.369324%,12.159729%);fill-opacity:1;" d="M 315.390625 180.894531 C 315.390625 212.902344 289.386719 238.851562 257.3125 238.851562 C 225.238281 238.851562 199.230469 212.902344 199.230469 180.894531 C 199.230469 148.882812 225.238281 122.9375 257.3125 122.9375 C 289.386719 122.9375 315.390625 148.882812 315.390625 180.894531 "/>
<path style=" stroke:none;fill-rule:nonzero;fill:rgb(93.328857%,14.898682%,16.079712%);fill-opacity:1;" d="M 311.617188 177.667969 C 311.617188 209.671875 285.613281 235.621094 253.535156 235.621094 C 221.460938 235.621094 195.457031 209.671875 195.457031 177.667969 C 195.457031 145.65625 221.460938 119.710938 253.535156 119.710938 C 285.613281 119.710938 311.617188 145.65625 311.617188 177.667969 "/>
<path style=" stroke:none;fill-rule:nonzero;fill:rgb(93.728638%,22.349548%,14.898682%);fill-opacity:1;" d="M 303.34375 177.667969 C 303.34375 205.117188 281.042969 227.367188 253.535156 227.367188 C 226.027344 227.367188 203.726562 205.117188 203.726562 177.667969 C 203.726562 150.214844 226.027344 127.964844 253.535156 127.964844 C 281.042969 127.964844 303.34375 150.214844 303.34375 177.667969 "/>
<path style=" stroke:none;fill-rule:nonzero;fill:rgb(93.328857%,14.898682%,16.079712%);fill-opacity:1;" d="M 249.410156 195.800781 C 242.25 194.1875 236.691406 188.511719 235.25 181.339844 C 235.097656 180.558594 234.414062 179.996094 233.617188 179.996094 L 211.464844 179.996094 C 211 179.996094 210.554688 180.195312 210.238281 180.542969 C 209.917969 180.890625 209.765625 181.351562 209.808594 181.816406 C 211.757812 202.480469 228.1875 219.0625 248.867188 221.246094 L 249.039062 221.25 C 249.449219 221.25 249.851562 221.105469 250.15625 220.828125 C 250.507812 220.511719 250.710938 220.058594 250.710938 219.589844 L 250.710938 197.425781 C 250.710938 196.644531 250.167969 195.972656 249.410156 195.800781 "/>
<path style=" stroke:none;fill-rule:nonzero;fill:rgb(93.328857%,14.898682%,16.079712%);fill-opacity:1;" d="M 295.601562 179.996094 L 273.457031 179.996094 C 272.660156 179.996094 271.972656 180.558594 271.820312 181.339844 C 270.261719 189.113281 263.910156 195.046875 256.011719 196.09375 C 255.183594 196.203125 254.566406 196.910156 254.566406 197.742188 L 254.566406 219.734375 C 254.566406 220.195312 254.757812 220.636719 255.089844 220.949219 C 255.402344 221.238281 255.808594 221.398438 256.234375 221.398438 L 256.339844 221.394531 C 266.757812 220.742188 276.628906 216.375 284.132812 209.101562 C 291.625 201.84375 296.285156 192.152344 297.261719 181.816406 C 297.304688 181.351562 297.152344 180.890625 296.835938 180.542969 C 296.515625 180.195312 296.070312 179.996094 295.601562 179.996094 "/>
<path style=" stroke:none;fill-rule:nonzero;fill:rgb(93.328857%,14.898682%,16.079712%);fill-opacity:1;" d="M 248.867188 134.085938 C 238.652344 135.164062 229.089844 139.832031 221.9375 147.234375 C 214.761719 154.652344 210.425781 164.394531 209.726562 174.65625 C 209.695312 175.117188 209.859375 175.570312 210.171875 175.902344 C 210.488281 176.242188 210.929688 176.433594 211.390625 176.433594 L 233.449219 176.433594 C 234.277344 176.433594 234.980469 175.824219 235.101562 175.003906 C 236.183594 167.433594 241.9375 161.214844 249.410156 159.527344 C 250.167969 159.355469 250.710938 158.675781 250.710938 157.902344 L 250.710938 135.738281 C 250.710938 135.269531 250.507812 134.820312 250.15625 134.503906 C 249.808594 134.1875 249.335938 134.039062 248.867188 134.085938 "/>
<path style=" stroke:none;fill-rule:nonzero;fill:rgb(93.328857%,14.898682%,16.079712%);fill-opacity:1;" d="M 256.246094 159.273438 C 264.375 160.453125 270.847656 166.953125 271.984375 175.070312 C 272.097656 175.894531 272.804688 176.503906 273.636719 176.503906 L 295.933594 176.503906 C 296.398438 176.503906 296.835938 176.3125 297.152344 175.976562 C 297.46875 175.640625 297.628906 175.191406 297.597656 174.726562 C 296.113281 152.890625 278.484375 135.382812 256.589844 134.007812 C 256.125 133.980469 255.683594 134.136719 255.34375 134.449219 C 255.007812 134.765625 254.816406 135.203125 254.816406 135.664062 L 254.816406 157.625 C 254.816406 158.453125 255.425781 159.152344 256.246094 159.273438 "/>
<path style=" stroke:none;fill-rule:nonzero;fill:rgb(97.648621%,65.489197%,16.859436%);fill-opacity:1;" d="M 245.75 146.34375 C 245.75 149.257812 242.71875 155.234375 242.71875 155.234375 C 242.71875 155.234375 238.589844 149.257812 238.589844 146.34375 C 238.589844 143.425781 239.621094 141.054688 242.167969 141.054688 C 245.234375 141.054688 245.75 143.425781 245.75 146.34375 "/>
<path style=" stroke:none;fill-rule:nonzero;fill:rgb(97.648621%,65.489197%,16.859436%);fill-opacity:1;" d="M 232.65625 152.273438 C 234.257812 154.710938 235.011719 161.367188 235.011719 161.367188 C 235.011719 161.367188 228.273438 158.628906 226.671875 156.191406 C 225.066406 153.746094 224.628906 151.210938 226.757812 149.816406 C 229.320312 148.140625 231.046875 149.832031 232.65625 152.273438 "/>
<path style=" stroke:none;fill-rule:nonzero;fill:rgb(97.648621%,65.489197%,16.859436%);fill-opacity:1;" d="M 223.5 163.382812 C 226.140625 164.636719 230.253906 169.925781 230.253906 169.925781 C 230.253906 169.925781 223.074219 171.085938 220.429688 169.832031 C 217.789062 168.582031 216.089844 166.636719 217.183594 164.34375 C 218.496094 161.585938 220.859375 162.132812 223.5 163.382812 "/>
<path style=" stroke:none;fill-rule:nonzero;fill:rgb(97.648621%,65.489197%,16.859436%);fill-opacity:1;" d="M 220.898438 185.140625 C 223.753906 184.511719 230.257812 186.179688 230.257812 186.179688 C 230.257812 186.179688 225.296875 191.488281 222.433594 192.117188 C 219.582031 192.742188 217.046875 192.242188 216.496094 189.765625 C 215.835938 186.78125 218.042969 185.765625 220.898438 185.140625 "/>
<path style=" stroke:none;fill-rule:nonzero;fill:rgb(97.648621%,65.489197%,16.859436%);fill-opacity:1;" d="M 227.195312 198.988281 C 229.308594 196.972656 235.726562 195.019531 235.726562 195.019531 C 235.726562 195.019531 234.257812 202.125 232.144531 204.148438 C 230.03125 206.167969 227.605469 207.054688 225.847656 205.222656 C 223.730469 203.015625 225.082031 201.007812 227.195312 198.988281 "/>
<path style=" stroke:none;fill-rule:nonzero;fill:rgb(97.648621%,65.489197%,16.859436%);fill-opacity:1;" d="M 238.902344 207.667969 C 238.902344 204.75 241.925781 198.773438 241.925781 198.773438 C 241.925781 198.773438 246.058594 204.75 246.058594 207.667969 C 246.058594 210.585938 245.027344 212.953125 242.476562 212.953125 C 239.417969 212.953125 238.902344 210.585938 238.902344 207.667969 "/>
<path style=" stroke:none;fill-rule:nonzero;fill:rgb(97.648621%,65.489197%,16.859436%);fill-opacity:1;" d="M 260 209.484375 C 260 206.566406 263.027344 200.585938 263.027344 200.585938 C 263.027344 200.585938 267.15625 206.566406 267.15625 209.484375 C 267.15625 212.398438 266.125 214.769531 263.578125 214.769531 C 260.515625 214.769531 260 212.398438 260 209.484375 "/>
<path style=" stroke:none;fill-rule:nonzero;fill:rgb(97.648621%,65.489197%,16.859436%);fill-opacity:1;" d="M 273.714844 202.625 C 272.109375 200.1875 271.359375 193.53125 271.359375 193.53125 C 271.359375 193.53125 278.097656 196.269531 279.699219 198.707031 C 281.304688 201.148438 281.742188 203.691406 279.613281 205.085938 C 277.050781 206.761719 275.320312 205.0625 273.714844 202.625 "/>
<path style=" stroke:none;fill-rule:nonzero;fill:rgb(97.648621%,65.489197%,16.859436%);fill-opacity:1;" d="M 282.09375 191.679688 C 279.453125 190.429688 275.335938 185.136719 275.335938 185.136719 C 275.335938 185.136719 282.519531 183.980469 285.160156 185.230469 C 287.804688 186.484375 289.5 188.425781 288.414062 190.722656 C 287.097656 193.484375 284.734375 192.929688 282.09375 191.679688 "/>
<path style=" stroke:none;fill-rule:nonzero;fill:rgb(97.648621%,65.489197%,16.859436%);fill-opacity:1;" d="M 285.503906 169.925781 C 282.648438 170.550781 276.148438 168.886719 276.148438 168.886719 C 276.148438 168.886719 281.109375 163.582031 283.964844 162.953125 C 286.820312 162.324219 289.359375 162.820312 289.90625 165.300781 C 290.5625 168.285156 288.359375 169.296875 285.503906 169.925781 "/>
<path style=" stroke:none;fill-rule:nonzero;fill:rgb(97.648621%,65.489197%,16.859436%);fill-opacity:1;" d="M 278.648438 155.890625 C 276.535156 157.90625 270.113281 159.859375 270.113281 159.859375 C 270.113281 159.859375 271.585938 152.75 273.699219 150.734375 C 275.808594 148.710938 278.234375 147.824219 279.996094 149.65625 C 282.113281 151.867188 280.757812 153.871094 278.648438 155.890625 "/>
<path style=" stroke:none;fill-rule:nonzero;fill:rgb(97.648621%,65.489197%,16.859436%);fill-opacity:1;" d="M 266.839844 146.34375 C 266.839844 149.257812 263.8125 155.234375 263.8125 155.234375 C 263.8125 155.234375 259.683594 149.257812 259.683594 146.34375 C 259.683594 143.425781 260.71875 141.054688 263.261719 141.054688 C 266.324219 141.054688 266.839844 143.425781 266.839844 146.34375 "/>
<path style=" stroke:none;fill-rule:nonzero;fill:rgb(41.569519%,53.329468%,17.649841%);fill-opacity:1;" d="M 93.847656 43.167969 C 94.484375 43.964844 95.351562 44.597656 96.433594 44.828125 C 98.910156 45.34375 101.335938 43.757812 101.855469 41.28125 C 101.945312 40.859375 101.890625 40.457031 101.863281 40.042969 C 102.382812 40.367188 102.957031 40.625 103.589844 40.753906 C 106.5 41.363281 109.347656 39.503906 109.960938 36.597656 C 110.152344 35.648438 110.066406 34.71875 109.78125 33.859375 C 111.65625 32.875 113.105469 31.128906 113.574219 28.894531 C 114.203125 25.875 112.859375 22.90625 110.425781 21.292969 C 110.203125 19.394531 108.84375 17.765625 106.859375 17.347656 C 105.691406 17.105469 104.550781 17.355469 103.601562 17.921875 C 103.472656 16.4375 102.648438 15.136719 101.355469 14.394531 C 101.402344 14.25 101.460938 14.113281 101.496094 13.960938 C 102.066406 11.25 100.859375 8.585938 98.671875 7.148438 C 98.46875 5.441406 97.261719 3.972656 95.480469 3.609375 C 94.433594 3.382812 93.410156 3.613281 92.558594 4.125 C 92.402344 2.363281 91.183594 0.839844 89.371094 0.460938 C 87.277344 0.0195312 85.28125 1.285156 84.652344 3.277344 C 84.191406 2.042969 83.175781 1.039062 81.777344 0.75 C 79.554688 0.289062 77.378906 1.707031 76.914062 3.925781 C 76.628906 5.296875 77.117188 6.597656 78.023438 7.542969 C 77.785156 7.765625 77.566406 8.011719 77.347656 8.257812 C 74.9375 8.027344 72.679688 9.617188 72.171875 12.039062 C 71.933594 13.191406 72.140625 14.320312 72.667969 15.289062 C 71.222656 15.679688 70.023438 16.804688 69.699219 18.367188 C 69.234375 20.585938 70.660156 22.75 72.882812 23.214844 C 73.632812 23.371094 74.339844 23.25 75.015625 23.023438 C 74.808594 23.410156 74.632812 23.832031 74.535156 24.285156 C 73.988281 26.886719 75.664062 29.4375 78.269531 29.976562 C 79.25 30.179688 80.226562 30.070312 81.09375 29.71875 C 81.175781 29.945312 81.289062 30.164062 81.40625 30.386719 C 79.792969 30.816406 78.460938 32.074219 78.097656 33.816406 C 77.578125 36.292969 79.167969 38.710938 81.644531 39.226562 C 82.480469 39.402344 83.273438 39.265625 84.027344 39.007812 C 83.789062 39.445312 83.597656 39.910156 83.492188 40.421875 C 82.882812 43.328125 84.746094 46.164062 87.65625 46.769531 C 90.371094 47.339844 93.003906 45.742188 93.847656 43.167969 "/>
<path style=" stroke:none;fill-rule:nonzero;fill:rgb(43.919373%,56.469727%,18.429565%);fill-opacity:1;" d="M 110.746094 61.136719 C 109.125 60.855469 91.144531 18.847656 89.859375 18.925781 C 88.578125 19.003906 103.984375 61.179688 102.925781 62.011719 C 103.015625 66.730469 112.5625 61.453125 110.746094 61.136719 "/>
<path style=" stroke:none;fill-rule:nonzero;fill:rgb(94.509888%,27.449036%,14.118958%);fill-opacity:1;" d="M 185.335938 232.316406 C 181.058594 234.167969 168.683594 223.675781 154.4375 207.027344 C 153.320312 205.714844 153.78125 205.035156 153.246094 204.417969 C 152.015625 202.992188 151.328125 202.085938 150.070312 200.589844 C 149.820312 200.292969 149.121094 200.816406 148.335938 199.898438 C 142.792969 193.402344 137.167969 186.140625 131.542969 178.621094 C 130.769531 177.582031 131.625 176.855469 131.34375 176.484375 C 128.816406 173.117188 126.816406 170.265625 124.3125 166.832031 C 124.027344 166.433594 122.992188 166.980469 122.320312 166.097656 C 118.28125 160.75 115.054688 155.039062 111.351562 149.644531 C 110.675781 148.660156 111.039062 147.628906 110.824219 147.3125 C 109.207031 144.929688 108 142.589844 106.414062 140.625 C 106.230469 140.390625 106.0625 140.390625 105.863281 140.390625 C 105.546875 140.390625 105.164062 140.390625 104.53125 139.425781 C 97.523438 128.671875 91.410156 118.527344 86.949219 109.976562 C 86.730469 109.558594 87.726562 109.105469 87.511719 108.691406 C 86.046875 105.839844 84.90625 103.472656 83.847656 101.042969 C 83.675781 100.644531 82.777344 100.414062 82.617188 100.035156 C 73.566406 78.3125 83.644531 72.597656 107.417969 62.183594 C 129.046875 52.703125 142.507812 47.386719 152.847656 71.144531 C 153.976562 73.742188 155.109375 76.160156 156.222656 78.914062 C 156.476562 79.542969 155.699219 80.535156 155.949219 81.171875 C 157.253906 84.445312 158.539062 87.820312 159.808594 91.265625 C 160.226562 92.414062 161.0625 91.511719 161.480469 92.679688 C 163.261719 97.652344 165 102.777344 166.671875 108.003906 C 166.933594 108.8125 166.125 109.589844 166.382812 110.40625 C 166.871094 111.949219 167.347656 113.378906 167.828125 114.9375 C 168.042969 115.648438 169.320312 116.503906 169.539062 117.214844 C 170.910156 121.757812 172.230469 126.347656 173.496094 130.941406 C 173.667969 131.550781 173.050781 132.472656 173.214844 133.078125 C 173.980469 135.882812 174.742188 138.527344 175.460938 141.324219 C 175.722656 142.3125 176.734375 143.164062 176.980469 144.148438 C 177.859375 147.640625 178.703125 151.109375 179.503906 154.542969 C 179.644531 155.132812 179.128906 155.734375 179.257812 156.324219 C 180.210938 160.453125 181.40625 165.398438 182.226562 169.382812 C 182.402344 170.210938 182.917969 170.164062 183.085938 170.992188 C 185.054688 180.78125 186.636719 189.988281 187.640625 198.15625 C 187.988281 200.988281 187.0625 200.484375 187.164062 201.34375 C 187.359375 203.019531 187.453125 203.507812 187.597656 205.078125 C 187.679688 205.957031 188.476562 206.199219 188.699219 208.226562 C 190.203125 221.683594 188.859375 230.789062 185.335938 232.316406 "/>
<path style=" stroke:none;fill-rule:nonzero;fill:rgb(95.689392%,44.309998%,11.759949%);fill-opacity:1;" d="M 187.597656 205.078125 C 187.46875 203.863281 187.324219 202.617188 187.164062 201.34375 C 185.902344 202.292969 184.597656 203.207031 183.199219 204.023438 C 180.160156 205.792969 176.976562 207.074219 173.742188 207.984375 C 178.40625 207.847656 183.09375 206.890625 187.597656 205.078125 "/>
<path style=" stroke:none;fill-rule:nonzero;fill:rgb(95.689392%,44.309998%,11.759949%);fill-opacity:1;" d="M 160.40625 181.796875 C 157.367188 183.5625 154.1875 184.847656 150.949219 185.757812 C 157.480469 185.570312 164.054688 183.796875 170.09375 180.277344 C 175.003906 177.414062 179.066406 173.671875 182.226562 169.382812 C 181.3125 165.117188 180.324219 160.753906 179.257812 156.324219 C 176.808594 166.660156 170.320312 176.011719 160.40625 181.796875 "/>
<path style=" stroke:none;fill-rule:nonzero;fill:rgb(95.689392%,44.309998%,11.759949%);fill-opacity:1;" d="M 158.160156 148.636719 C 155.117188 150.414062 151.9375 151.695312 148.703125 152.605469 C 155.234375 152.410156 161.8125 150.644531 167.851562 147.125 C 170.683594 145.472656 173.199219 143.5 175.460938 141.324219 C 174.734375 138.582031 173.984375 135.832031 173.214844 133.078125 C 169.820312 139.335938 164.765625 144.789062 158.160156 148.636719 "/>
<path style=" stroke:none;fill-rule:nonzero;fill:rgb(95.689392%,44.309998%,11.759949%);fill-opacity:1;" d="M 160 116.457031 C 157.199219 118.574219 154.191406 120.230469 151.085938 121.515625 C 156.933594 120.640625 162.660156 118.464844 167.828125 114.9375 C 167.351562 113.421875 166.871094 111.910156 166.382812 110.40625 C 164.515625 112.601562 162.398438 114.644531 160 116.457031 "/>
<path style=" stroke:none;fill-rule:nonzero;fill:rgb(95.689392%,44.309998%,11.759949%);fill-opacity:1;" d="M 141.097656 103.851562 C 138.292969 105.976562 135.285156 107.625 132.179688 108.910156 C 138.644531 107.945312 144.964844 105.40625 150.539062 101.191406 C 154.28125 98.359375 157.355469 94.972656 159.808594 91.269531 C 158.539062 87.820312 157.25 84.449219 155.949219 81.171875 C 153.859375 89.90625 148.832031 98.003906 141.097656 103.851562 "/>
<path style=" stroke:none;fill-rule:nonzero;fill:rgb(95.689392%,44.309998%,11.759949%);fill-opacity:1;" d="M 153.246094 204.417969 C 159.101562 201.582031 164.328125 197.863281 168.746094 193.414062 C 164.703125 195.859375 160.332031 197.890625 155.597656 199.300781 C 153.761719 199.851562 151.917969 200.246094 150.070312 200.589844 C 151.144531 201.890625 152.199219 203.167969 153.246094 204.417969 "/>
<path style=" stroke:none;fill-rule:nonzero;fill:rgb(95.689392%,44.309998%,11.759949%);fill-opacity:1;" d="M 132.363281 119.539062 C 120.839844 124.53125 109.320312 125.882812 100.90625 123.945312 C 108.554688 128.695312 121.421875 128.765625 134.007812 123.3125 C 146.597656 117.855469 155.332031 108.425781 157.078125 99.609375 C 152.753906 107.066406 143.894531 114.546875 132.363281 119.539062 "/>
<path style=" stroke:none;fill-rule:nonzero;fill:rgb(95.689392%,44.309998%,11.759949%);fill-opacity:1;" d="M 143.65625 145.484375 C 133.511719 149.878906 123.609375 151.625 116.570312 150.765625 C 122.765625 153.714844 133.722656 152.910156 144.804688 148.113281 C 155.882812 143.3125 163.949219 135.875 166.019531 129.339844 C 161.847656 135.058594 153.804688 141.082031 143.65625 145.484375 "/>
<path style=" stroke:none;fill-rule:nonzero;fill:rgb(95.689392%,44.309998%,11.759949%);fill-opacity:1;" d="M 152.679688 168.867188 C 142.898438 171.785156 132.90625 170.785156 124.3125 166.832031 C 126.640625 170.074219 128.984375 173.300781 131.34375 176.484375 C 135.820312 176.714844 140.40625 176.25 144.949219 174.894531 C 151.652344 172.898438 157.445312 169.3125 162.035156 164.679688 C 159.164062 166.417969 156.050781 167.859375 152.679688 168.867188 "/>
<path style=" stroke:none;fill-rule:nonzero;fill:rgb(95.689392%,44.309998%,11.759949%);fill-opacity:1;" d="M 110.824219 147.3125 C 113.363281 147.078125 115.914062 146.617188 118.453125 145.863281 C 125.15625 143.863281 130.941406 140.277344 135.53125 135.652344 C 132.660156 137.386719 129.554688 138.832031 126.179688 139.832031 C 119.523438 141.820312 112.769531 141.957031 106.414062 140.625 C 107.851562 142.832031 109.320312 145.066406 110.824219 147.3125 "/>
<path style=" stroke:none;fill-rule:nonzero;fill:rgb(95.689392%,44.309998%,11.759949%);fill-opacity:1;" d="M 83.847656 101.042969 C 84.878906 103.390625 86.097656 105.941406 87.503906 108.675781 C 90.539062 108.871094 93.632812 108.753906 96.761719 108.21875 C 103.648438 107.03125 109.828125 104.160156 114.945312 100.109375 C 111.878906 101.492188 108.621094 102.558594 105.152344 103.152344 C 97.710938 104.433594 90.414062 103.566406 83.847656 101.042969 "/>
<path style=" stroke:none;fill-rule:nonzero;fill:rgb(85.488892%,24.708557%,12.548828%);fill-opacity:1;" d="M 132.046875 54.222656 C 125.308594 54.398438 117.328125 57.839844 107.417969 62.183594 C 97.335938 66.601562 89.839844 70.097656 85.226562 74.304688 C 90.015625 77.269531 100.726562 76.3125 111.84375 71.5 C 122.816406 66.746094 130.78125 59.707031 132.046875 54.222656 "/>
<path style=" stroke:none;fill-rule:nonzero;fill:rgb(50.979614%,65.489197%,21.958923%);fill-opacity:1;" d="M 114.246094 60.589844 C 113.078125 59.914062 102.929688 5.929688 101.8125 6.035156 C 100.328125 6.171875 107.867188 60.609375 106.191406 61.371094 C 104.6875 62.046875 66.1875 37.324219 65.171875 38.113281 C 64.148438 38.894531 100.609375 65.191406 100.203125 66.476562 C 102.925781 70.328125 105.402344 68.628906 108.726562 67.1875 C 112 65.769531 115.132812 65.140625 114.246094 60.589844 "/>
<path style=" stroke:none;fill-rule:nonzero;fill:rgb(50.979614%,65.489197%,21.958923%);fill-opacity:1;" d="M 111.269531 4.511719 C 111.203125 3.742188 110.925781 2.976562 110.339844 2.371094 C 109 0.996094 106.789062 0.96875 105.414062 2.308594 C 105.175781 2.535156 105.035156 2.816406 104.882812 3.085938 C 104.6875 2.660156 104.4375 2.257812 104.097656 1.90625 C 102.515625 0.292969 99.933594 0.257812 98.316406 1.832031 C 97.785156 2.347656 97.441406 2.972656 97.257812 3.628906 C 95.660156 3.460938 94 3.941406 92.757812 5.15625 C 91.074219 6.792969 90.660156 9.234375 91.511719 11.277344 C 90.847656 12.570312 91.003906 14.175781 92.074219 15.277344 C 92.710938 15.925781 93.539062 16.246094 94.375 16.296875 C 93.828125 17.289062 93.792969 18.449219 94.292969 19.464844 L 94.015625 19.6875 C 92.503906 21.15625 92.132812 23.339844 92.898438 25.175781 C 92.300781 26.335938 92.4375 27.769531 93.402344 28.753906 C 93.96875 29.339844 94.714844 29.628906 95.464844 29.667969 C 94.816406 30.839844 94.9375 32.320312 95.917969 33.332031 C 97.050781 34.488281 98.847656 34.535156 100.085938 33.546875 C 99.859375 34.527344 100.066406 35.582031 100.824219 36.363281 C 102.03125 37.59375 104.003906 37.621094 105.238281 36.417969 C 106.007812 35.671875 106.253906 34.644531 106.082031 33.671875 C 106.328125 33.632812 106.570312 33.570312 106.8125 33.507812 C 108.234375 34.679688 110.332031 34.625 111.683594 33.316406 C 112.324219 32.691406 112.667969 31.886719 112.753906 31.058594 C 113.828125 31.421875 115.0625 31.222656 115.929688 30.375 C 117.167969 29.171875 117.191406 27.199219 115.988281 25.96875 C 115.582031 25.554688 115.085938 25.328125 114.558594 25.183594 C 114.859375 25.03125 115.144531 24.839844 115.402344 24.59375 C 116.851562 23.1875 116.882812 20.875 115.472656 19.421875 C 114.9375 18.882812 114.277344 18.539062 113.582031 18.398438 C 113.625 18.214844 113.648438 18.027344 113.667969 17.84375 C 114.867188 18.253906 116.242188 18.023438 117.214844 17.078125 C 118.589844 15.742188 118.617188 13.539062 117.273438 12.167969 C 116.824219 11.703125 116.269531 11.449219 115.683594 11.292969 C 116.015625 11.117188 116.335938 10.910156 116.617188 10.628906 C 118.238281 9.058594 118.273438 6.476562 116.699219 4.863281 C 115.230469 3.359375 112.890625 3.25 111.269531 4.511719 "/>
<path style=" stroke:none;fill-rule:nonzero;fill:rgb(50.979614%,65.489197%,21.958923%);fill-opacity:1;" d="M 82.683594 56.472656 C 83.691406 56.648438 84.761719 56.558594 85.71875 56.015625 C 87.929688 54.773438 88.703125 51.988281 87.464844 49.785156 C 87.253906 49.410156 86.945312 49.136719 86.65625 48.847656 C 87.257812 48.75 87.859375 48.5625 88.425781 48.246094 C 91.011719 46.792969 91.929688 43.519531 90.472656 40.941406 C 89.992188 40.089844 89.308594 39.445312 88.53125 38.984375 C 89.289062 37.015625 89.234375 34.753906 88.109375 32.761719 C 86.589844 30.070312 83.617188 28.722656 80.722656 29.109375 C 79.304688 27.832031 77.203125 27.488281 75.4375 28.476562 C 74.394531 29.066406 73.707031 30.003906 73.359375 31.058594 C 72.285156 30.023438 70.8125 29.585938 69.347656 29.878906 C 69.28125 29.738281 69.238281 29.589844 69.164062 29.457031 C 67.800781 27.039062 65.136719 25.824219 62.542969 26.1875 C 61.269531 25.035156 59.386719 24.722656 57.804688 25.609375 C 56.871094 26.136719 56.25 26.980469 55.945312 27.921875 C 54.671875 26.703125 52.742188 26.347656 51.125 27.257812 C 49.269531 28.308594 48.597656 30.570312 49.445312 32.484375 C 48.277344 31.859375 46.855469 31.765625 45.609375 32.464844 C 43.628906 33.582031 42.933594 36.082031 44.042969 38.050781 C 44.734375 39.273438 45.964844 39.933594 47.265625 40.050781 C 47.230469 40.371094 47.230469 40.699219 47.226562 41.027344 C 45.257812 42.445312 44.609375 45.121094 45.824219 47.277344 C 46.410156 48.300781 47.316406 49.015625 48.34375 49.398438 C 47.515625 50.644531 47.351562 52.277344 48.140625 53.667969 C 49.257812 55.636719 51.761719 56.332031 53.734375 55.222656 C 54.398438 54.851562 54.859375 54.292969 55.214844 53.671875 C 55.3125 54.105469 55.460938 54.539062 55.6875 54.941406 C 56.992188 57.257812 59.933594 58.074219 62.25 56.769531 C 63.125 56.277344 63.785156 55.558594 64.199219 54.722656 C 64.417969 54.839844 64.644531 54.933594 64.878906 55.015625 C 63.953125 56.402344 63.777344 58.226562 64.65625 59.773438 C 65.898438 61.976562 68.691406 62.757812 70.894531 61.515625 C 71.640625 61.097656 72.148438 60.472656 72.546875 59.789062 C 72.65625 60.277344 72.816406 60.746094 73.078125 61.203125 C 74.53125 63.785156 77.8125 64.695312 80.402344 63.246094 C 82.816406 61.886719 83.746094 58.957031 82.683594 56.472656 "/>
<path style=" stroke:none;fill-rule:nonzero;fill:rgb(42.749023%,56.858826%,21.569824%);fill-opacity:1;" d="M 134.644531 194.183594 C 197.59375 189.96875 216.503906 208.890625 216.929688 215.289062 C 217.359375 221.683594 198.585938 243.128906 138.207031 247.171875 C 74.832031 251.414062 56.441406 233.832031 55.921875 226.066406 C 55.394531 218.304688 72.980469 198.3125 134.644531 194.183594 "/>
<path style=" stroke:none;fill-rule:nonzero;fill:rgb(50.979614%,65.489197%,21.958923%);fill-opacity:1;" d="M 135.054688 200.273438 C 198.003906 196.058594 216.601562 210.363281 216.929688 215.289062 C 217.261719 220.207031 198.179688 237.039062 137.796875 241.078125 C 74.421875 245.328125 56.320312 232.046875 55.921875 226.066406 C 55.519531 220.089844 73.390625 204.402344 135.054688 200.273438 "/>
<path style=" stroke:none;fill-rule:nonzero;fill:rgb(62.348938%,72.938538%,29.40979%);fill-opacity:1;" d="M 137.363281 202.585938 C 147.527344 201.90625 156.320312 209.578125 157.007812 219.730469 C 157.6875 229.878906 150 238.652344 139.828125 239.332031 C 129.664062 240.015625 120.867188 232.339844 120.179688 222.195312 C 119.496094 212.046875 127.191406 203.265625 137.363281 202.585938 "/>
<path style=" stroke:none;fill-rule:nonzero;fill:rgb(56.858826%,66.268921%,26.669312%);fill-opacity:1;" d="M 151.148438 234.453125 C 151.386719 232.621094 151.398438 230.746094 151.226562 228.859375 C 152.402344 229.230469 153.566406 229.589844 154.710938 229.925781 C 153.765625 231.613281 152.5625 233.140625 151.148438 234.453125 "/>
<path style=" stroke:none;fill-rule:nonzero;fill:rgb(69.018555%,79.998779%,32.939148%);fill-opacity:1;" d="M 137.921875 237.09375 C 129.785156 237.640625 122.753906 231.5 122.203125 223.382812 C 121.660156 215.265625 146.058594 236.546875 137.921875 237.09375 "/>
<path style=" stroke:none;fill-rule:nonzero;fill:rgb(62.348938%,72.938538%,29.40979%);fill-opacity:1;" d="M 102.148438 206.464844 C 111.484375 205.839844 119.554688 212.882812 120.179688 222.195312 C 120.804688 231.507812 113.75 239.5625 104.417969 240.1875 C 95.085938 240.8125 87.011719 233.769531 86.386719 224.457031 C 85.761719 215.148438 92.820312 207.09375 102.148438 206.464844 "/>
<path style=" stroke:none;fill-rule:nonzero;fill:rgb(46.269226%,59.609985%,19.60907%);fill-opacity:1;" d="M 120.125 225.089844 C 120.226562 224.144531 120.246094 223.175781 120.179688 222.195312 C 120.246094 223.175781 120.226562 224.144531 120.125 225.089844 M 120.171875 222.085938 C 120.171875 222.0625 120.164062 222.039062 120.164062 222.011719 C 120.164062 222.039062 120.171875 222.0625 120.171875 222.085938 "/>
<path style=" stroke:none;fill-rule:nonzero;fill:rgb(56.858826%,66.268921%,26.669312%);fill-opacity:1;" d="M 114.800781 235.707031 C 115.851562 227.578125 112.117188 218.398438 107.210938 212.359375 C 105.25 209.949219 102.96875 208.085938 100.492188 206.660156 C 100.867188 206.597656 101.242188 206.550781 101.621094 206.511719 C 106.546875 209.433594 112.070312 212.410156 118.261719 215.433594 C 119.3125 217.417969 119.980469 219.636719 120.164062 222.011719 C 120.164062 222.039062 120.171875 222.0625 120.171875 222.085938 C 120.175781 222.121094 120.175781 222.15625 120.179688 222.195312 C 120.246094 223.175781 120.226562 224.144531 120.125 225.089844 C 119.695312 229.242188 117.742188 232.980469 114.800781 235.707031 "/>
<path style=" stroke:none;fill-rule:nonzero;fill:rgb(69.018555%,79.998779%,32.939148%);fill-opacity:1;" d="M 102.664062 238.128906 C 95.203125 238.628906 88.742188 232.996094 88.246094 225.546875 C 87.742188 218.101562 110.132812 237.628906 102.664062 238.128906 "/>
<path style=" stroke:none;fill-rule:nonzero;fill:rgb(62.348938%,72.938538%,29.40979%);fill-opacity:1;" d="M 172.773438 201.738281 C 182.101562 201.109375 190.175781 208.148438 190.800781 217.464844 C 191.425781 226.777344 184.371094 234.832031 175.039062 235.453125 C 165.707031 236.082031 157.632812 229.042969 157.007812 219.730469 C 156.378906 210.414062 163.441406 202.359375 172.773438 201.738281 "/>
<path style=" stroke:none;fill-rule:nonzero;fill:rgb(69.018555%,79.998779%,32.939148%);fill-opacity:1;" d="M 173.289062 233.402344 C 165.824219 233.898438 159.367188 228.265625 158.863281 220.820312 C 158.363281 213.371094 180.75 232.898438 173.289062 233.402344 "/>
<path style=" stroke:none;fill-rule:nonzero;fill:rgb(62.348938%,72.938538%,29.40979%);fill-opacity:1;" d="M 73.972656 212.914062 C 80.371094 212.480469 85.90625 217.308594 86.332031 223.695312 C 86.765625 230.082031 81.925781 235.605469 75.53125 236.03125 C 69.132812 236.457031 63.597656 231.632812 63.164062 225.25 C 62.738281 218.859375 67.578125 213.339844 73.972656 212.914062 "/>
<path style=" stroke:none;fill-rule:nonzero;fill:rgb(46.269226%,59.609985%,19.60907%);fill-opacity:1;" d="M 86.328125 223.625 C 86.328125 223.621094 86.328125 223.613281 86.328125 223.601562 C 86.328125 223.613281 86.328125 223.621094 86.328125 223.625 M 86.328125 223.582031 C 86.324219 223.5625 86.324219 223.550781 86.324219 223.53125 C 86.324219 223.550781 86.324219 223.5625 86.328125 223.582031 M 86.320312 223.484375 C 86.320312 223.480469 86.320312 223.472656 86.316406 223.460938 C 86.320312 223.472656 86.320312 223.480469 86.320312 223.484375 M 73.460938 212.957031 C 73.632812 212.9375 73.804688 212.921875 73.972656 212.914062 C 73.800781 212.921875 73.632812 212.9375 73.460938 212.957031 M 73.972656 212.914062 C 74.242188 212.894531 74.503906 212.886719 74.765625 212.886719 C 74.503906 212.886719 74.242188 212.894531 73.972656 212.914062 M 74.769531 212.886719 C 74.769531 212.886719 74.769531 212.886719 74.765625 212.886719 C 74.769531 212.886719 74.769531 212.886719 74.769531 212.886719 "/>
<path style=" stroke:none;fill-rule:nonzero;fill:rgb(56.858826%,66.268921%,26.669312%);fill-opacity:1;" d="M 82.648438 232.957031 C 83.371094 227.390625 80.8125 221.089844 77.441406 216.953125 C 76.101562 215.300781 74.535156 214.015625 72.839844 213.042969 C 73.046875 213.007812 73.253906 212.984375 73.460938 212.957031 C 73.632812 212.9375 73.800781 212.921875 73.972656 212.914062 C 74.242188 212.894531 74.503906 212.886719 74.765625 212.886719 C 74.769531 212.886719 74.769531 212.886719 74.769531 212.886719 C 80.75 212.886719 85.796875 217.460938 86.316406 223.460938 C 86.320312 223.472656 86.320312 223.480469 86.320312 223.484375 C 86.320312 223.503906 86.324219 223.519531 86.324219 223.53125 C 86.324219 223.550781 86.324219 223.5625 86.328125 223.582031 C 86.328125 223.589844 86.328125 223.59375 86.328125 223.601562 C 86.328125 223.613281 86.328125 223.621094 86.328125 223.625 C 86.332031 223.652344 86.332031 223.675781 86.332031 223.695312 C 86.578125 227.320312 85.125 230.667969 82.648438 232.957031 "/>
<path style=" stroke:none;fill-rule:nonzero;fill:rgb(69.018555%,79.998779%,32.939148%);fill-opacity:1;" d="M 74.328125 234.621094 C 69.210938 234.960938 64.78125 231.101562 64.4375 225.996094 C 64.09375 220.886719 79.445312 234.28125 74.328125 234.621094 "/>
<path style=" stroke:none;fill-rule:nonzero;fill:rgb(62.348938%,72.938538%,29.40979%);fill-opacity:1;" d="M 199.519531 204.230469 C 205.917969 203.804688 211.453125 208.628906 211.878906 215.019531 C 212.3125 221.398438 207.472656 226.921875 201.074219 227.351562 C 194.675781 227.78125 189.144531 222.953125 188.710938 216.566406 C 188.285156 210.1875 193.125 204.664062 199.519531 204.230469 "/>
<path style=" stroke:none;fill-rule:nonzero;fill:rgb(56.858826%,66.268921%,26.669312%);fill-opacity:1;" d="M 208.730469 214.953125 C 208.519531 214.597656 208.300781 214.238281 208.078125 213.867188 C 209.078125 213.96875 209.90625 214.074219 209.90625 214.179688 C 209.902344 214.429688 209.40625 214.691406 208.730469 214.953125 M 207.445312 212.886719 C 207.230469 212.5625 207.007812 212.226562 206.773438 211.894531 C 208.507812 212.003906 210.769531 212.082031 210.746094 212.300781 C 210.734375 212.429688 209.046875 212.664062 207.445312 212.886719 M 207.683594 211.277344 C 207.511719 211.277344 207.339844 211.277344 207.164062 211.277344 C 206.988281 211.273438 206.816406 211.273438 206.644531 211.273438 C 206.539062 211.273438 206.4375 211.273438 206.335938 211.273438 C 204.75 209.054688 202.796875 206.691406 200.421875 204.207031 C 202.933594 204.230469 205.277344 205.0625 207.1875 206.464844 C 208.054688 207.402344 209.316406 208.632812 209.183594 208.871094 C 209.175781 208.890625 209.144531 208.898438 209.09375 208.898438 C 208.863281 208.898438 208.199219 208.71875 207.535156 208.539062 C 206.871094 208.355469 206.203125 208.175781 205.953125 208.175781 C 205.898438 208.175781 205.863281 208.183594 205.855469 208.207031 C 205.644531 208.65625 209.492188 210.472656 209.324219 211.003906 C 209.25 211.242188 208.527344 211.277344 207.683594 211.277344 "/>
<path style=" stroke:none;fill-rule:nonzero;fill:rgb(69.018555%,79.998779%,32.939148%);fill-opacity:1;" d="M 199.871094 225.941406 C 194.753906 226.285156 190.324219 222.425781 189.984375 217.316406 C 189.640625 212.210938 204.988281 225.601562 199.871094 225.941406 "/>
<path style=" stroke:none;fill-rule:nonzero;fill:rgb(34.509277%,51.759338%,21.569824%);fill-opacity:1;" d="M 62.441406 214.472656 C 58.269531 218.3125 53.582031 224.390625 53.738281 226.742188 C 53.910156 229.3125 57.941406 232.339844 63.347656 235.898438 C 65.015625 236.734375 65.691406 237.636719 66.472656 236.636719 C 66.695312 236.347656 63.492188 233.535156 63.699219 233.160156 C 63.808594 232.964844 66.921875 234.042969 67.023438 233.828125 C 67.234375 233.378906 63.390625 231.5625 63.554688 231.03125 C 63.742188 230.433594 67.9375 231.109375 68.054688 230.417969 C 68.109375 230.078125 62.097656 230.09375 62.132812 229.730469 C 62.15625 229.488281 68.234375 228.875 68.25 228.625 C 68.265625 228.355469 62.972656 228.125 62.976562 227.851562 C 62.984375 227.039062 68.234375 226.140625 68.125 225.253906 C 68.089844 224.964844 64.050781 225.195312 64.015625 224.921875 C 63.976562 224.644531 67.929688 223.863281 67.890625 223.59375 C 67.84375 223.3125 62.503906 223.597656 62.457031 223.320312 C 62.394531 222.953125 67.621094 222.019531 67.546875 221.667969 C 67.457031 221.21875 62.476562 221.703125 62.371094 221.289062 C 62.15625 220.410156 65.429688 218.207031 65.53125 217.425781 C 65.605469 216.878906 61.542969 218.527344 61.402344 218.085938 C 60.851562 216.324219 63.894531 214.261719 62.441406 214.472656 "/>
<path style=" stroke:none;fill-rule:nonzero;fill:rgb(34.509277%,51.759338%,21.569824%);fill-opacity:1;" d="M 210.4375 227.5625 C 214.613281 223.71875 219.300781 217.644531 219.144531 215.292969 C 218.972656 212.71875 214.9375 209.6875 209.53125 206.136719 C 207.867188 205.296875 207.1875 204.398438 206.410156 205.398438 C 206.183594 205.6875 209.390625 208.503906 209.183594 208.871094 C 209.125 208.96875 208.332031 208.753906 207.535156 208.539062 C 206.722656 208.316406 205.910156 208.097656 205.855469 208.207031 C 205.644531 208.65625 209.492188 210.472656 209.324219 211.003906 C 209.234375 211.292969 208.214844 211.285156 207.164062 211.277344 C 206.042969 211.269531 204.886719 211.257812 204.828125 211.617188 C 204.773438 211.957031 210.789062 211.941406 210.746094 212.300781 C 210.722656 212.542969 204.644531 213.160156 204.628906 213.410156 C 204.617188 213.671875 209.910156 213.90625 209.90625 214.179688 C 209.898438 214.996094 204.644531 215.894531 204.753906 216.78125 C 204.792969 217.0625 208.828125 216.835938 208.867188 217.117188 C 208.90625 217.390625 204.949219 218.171875 204.988281 218.441406 C 205.015625 218.582031 206.390625 218.582031 207.75 218.578125 C 209.082031 218.578125 210.398438 218.574219 210.425781 218.707031 C 210.492188 219.078125 205.261719 220.015625 205.335938 220.367188 C 205.378906 220.59375 206.699219 220.582031 207.988281 220.570312 C 209.234375 220.550781 210.457031 220.539062 210.511719 220.746094 C 210.726562 221.625 207.453125 223.828125 207.34375 224.605469 C 207.308594 224.886719 208.355469 224.59375 209.402344 224.296875 C 210.410156 224.015625 211.410156 223.734375 211.480469 223.949219 C 212.03125 225.707031 208.988281 227.769531 210.4375 227.5625 "/>
<path style=" stroke:none;fill-rule:nonzero;fill:rgb(42.749023%,56.858826%,21.569824%);fill-opacity:1;" d="M 149.1875 171.242188 C 206.78125 196.945312 214.609375 222.5 211.980469 228.347656 C 209.359375 234.199219 182.707031 244.375 127.460938 219.71875 C 69.476562 193.847656 61.480469 169.71875 64.664062 162.617188 C 67.851562 155.511719 92.765625 146.070312 149.1875 171.242188 "/>
<path style=" stroke:none;fill-rule:nonzero;fill:rgb(50.979614%,65.489197%,21.958923%);fill-opacity:1;" d="M 146.6875 176.8125 C 204.28125 202.511719 214 223.839844 211.980469 228.347656 C 209.964844 232.851562 185.199219 238.800781 129.957031 214.148438 C 71.96875 188.277344 62.214844 168.082031 64.664062 162.617188 C 67.117188 157.140625 90.273438 151.640625 146.6875 176.8125 "/>
<path style=" stroke:none;fill-rule:nonzero;fill:rgb(62.348938%,72.938538%,29.40979%);fill-opacity:1;" d="M 147.640625 179.933594 C 156.945312 184.085938 161.117188 194.980469 156.953125 204.261719 C 152.792969 213.550781 141.878906 217.707031 132.570312 213.558594 C 123.269531 209.402344 119.097656 198.515625 123.257812 189.226562 C 127.417969 179.945312 138.335938 175.785156 147.640625 179.933594 "/>
<path style=" stroke:none;fill-rule:nonzero;fill:rgb(46.269226%,59.609985%,19.60907%);fill-opacity:1;" d="M 156.738281 204.722656 C 156.738281 204.71875 156.738281 204.71875 156.738281 204.71875 C 156.738281 204.71875 156.738281 204.71875 156.738281 204.722656 M 156.753906 204.695312 L 156.753906 204.6875 L 156.753906 204.695312 M 156.78125 204.640625 C 156.78125 204.636719 156.785156 204.632812 156.785156 204.628906 C 156.785156 204.632812 156.78125 204.636719 156.78125 204.640625 M 156.792969 204.609375 C 156.796875 204.605469 156.800781 204.597656 156.800781 204.59375 C 156.796875 204.597656 156.796875 204.601562 156.792969 204.609375 M 156.808594 204.574219 C 156.816406 204.566406 156.820312 204.558594 156.820312 204.554688 C 156.820312 204.5625 156.816406 204.566406 156.808594 204.574219 M 156.828125 204.539062 C 156.832031 204.527344 156.835938 204.519531 156.839844 204.503906 C 156.835938 204.519531 156.832031 204.527344 156.828125 204.539062 M 156.851562 204.496094 C 156.851562 204.488281 156.855469 204.476562 156.859375 204.46875 C 156.855469 204.476562 156.851562 204.488281 156.851562 204.496094 M 156.867188 204.457031 C 156.871094 204.449219 156.871094 204.4375 156.875 204.429688 C 156.871094 204.4375 156.871094 204.449219 156.867188 204.457031 M 156.878906 204.421875 C 156.890625 204.40625 156.894531 204.394531 156.898438 204.382812 C 156.894531 204.394531 156.890625 204.40625 156.878906 204.421875 M 156.898438 204.382812 C 156.90625 204.367188 156.910156 204.359375 156.914062 204.347656 C 156.910156 204.359375 156.90625 204.367188 156.898438 204.382812 M 156.921875 204.335938 C 156.925781 204.328125 156.929688 204.320312 156.933594 204.3125 C 156.929688 204.320312 156.925781 204.328125 156.921875 204.335938 M 156.9375 204.296875 C 156.941406 204.289062 156.945312 204.277344 156.953125 204.261719 C 158.046875 201.820312 158.5625 199.273438 158.5625 196.765625 C 158.5625 199.273438 158.046875 201.820312 156.953125 204.261719 C 156.945312 204.277344 156.941406 204.285156 156.9375 204.296875 M 147.640625 179.933594 C 147.542969 179.890625 147.449219 179.851562 147.347656 179.808594 C 147.445312 179.851562 147.542969 179.890625 147.640625 179.933594 "/>
<path style=" stroke:none;fill-rule:nonzero;fill:rgb(56.858826%,66.268921%,26.669312%);fill-opacity:1;" d="M 144.867188 214.535156 C 150.03125 207.246094 151.132812 196.496094 149.496094 188.191406 C 148.839844 184.871094 147.605469 181.910156 145.945312 179.28125 C 146.417969 179.4375 146.886719 179.609375 147.347656 179.808594 C 147.449219 179.851562 147.542969 179.890625 147.640625 179.933594 C 154.5 182.996094 158.570312 189.71875 158.5625 196.765625 C 158.5625 199.273438 158.046875 201.820312 156.953125 204.261719 C 156.945312 204.277344 156.941406 204.289062 156.9375 204.296875 C 156.933594 204.300781 156.933594 204.308594 156.933594 204.3125 C 156.929688 204.320312 156.925781 204.328125 156.921875 204.335938 C 156.921875 204.34375 156.914062 204.34375 156.914062 204.347656 C 156.910156 204.359375 156.90625 204.367188 156.898438 204.382812 C 156.894531 204.394531 156.890625 204.40625 156.878906 204.421875 C 156.878906 204.425781 156.878906 204.425781 156.875 204.429688 C 156.871094 204.4375 156.871094 204.449219 156.867188 204.457031 C 156.863281 204.460938 156.863281 204.464844 156.859375 204.46875 C 156.855469 204.476562 156.851562 204.488281 156.851562 204.496094 C 156.84375 204.5 156.84375 204.5 156.839844 204.503906 C 156.835938 204.519531 156.832031 204.527344 156.828125 204.539062 C 156.824219 204.542969 156.824219 204.546875 156.820312 204.554688 C 156.820312 204.558594 156.816406 204.566406 156.808594 204.574219 C 156.804688 204.578125 156.804688 204.589844 156.800781 204.59375 C 156.800781 204.597656 156.796875 204.605469 156.792969 204.609375 C 156.792969 204.613281 156.789062 204.625 156.785156 204.628906 C 156.785156 204.632812 156.78125 204.636719 156.78125 204.640625 C 156.769531 204.660156 156.761719 204.671875 156.753906 204.6875 L 156.753906 204.695312 C 156.75 204.703125 156.742188 204.710938 156.738281 204.71875 C 156.738281 204.71875 156.738281 204.71875 156.738281 204.722656 C 154.324219 209.742188 149.894531 213.191406 144.867188 214.535156 "/>
<path style=" stroke:none;fill-rule:nonzero;fill:rgb(69.018555%,79.998779%,32.939148%);fill-opacity:1;" d="M 131.9375 210.6875 C 124.496094 207.367188 121.160156 198.652344 124.488281 191.222656 C 127.816406 183.800781 139.386719 214.003906 131.9375 210.6875 "/>
<path style=" stroke:none;fill-rule:nonzero;fill:rgb(62.348938%,72.938538%,29.40979%);fill-opacity:1;" d="M 114.714844 166.90625 C 123.25 170.714844 127.074219 180.710938 123.257812 189.226562 C 119.4375 197.75 109.425781 201.566406 100.890625 197.757812 C 92.347656 193.945312 88.523438 183.953125 92.339844 175.433594 C 96.15625 166.914062 106.171875 163.097656 114.714844 166.90625 "/>
<path style=" stroke:none;fill-rule:nonzero;fill:rgb(46.269226%,59.609985%,19.60907%);fill-opacity:1;" d="M 122.222656 191.183594 C 122.226562 191.179688 122.234375 191.175781 122.234375 191.171875 C 122.234375 191.175781 122.226562 191.179688 122.222656 191.183594 M 122.242188 191.15625 C 122.617188 190.546875 122.957031 189.898438 123.257812 189.226562 C 122.957031 189.898438 122.617188 190.546875 122.242188 191.15625 "/>
<path style=" stroke:none;fill-rule:nonzero;fill:rgb(56.858826%,66.268921%,26.669312%);fill-opacity:1;" d="M 112.167969 198.652344 C 116.910156 191.960938 117.917969 182.101562 116.414062 174.476562 C 115.8125 171.429688 114.679688 168.71875 113.164062 166.300781 C 113.683594 166.480469 114.199219 166.675781 114.714844 166.90625 C 121.007812 169.714844 124.742188 175.886719 124.734375 182.347656 C 124.734375 184.648438 124.261719 186.988281 123.257812 189.226562 C 122.957031 189.898438 122.617188 190.546875 122.242188 191.15625 C 122.238281 191.164062 122.238281 191.167969 122.234375 191.171875 C 122.234375 191.175781 122.226562 191.179688 122.222656 191.183594 C 119.902344 194.960938 116.253906 197.5625 112.167969 198.652344 "/>
<path style=" stroke:none;fill-rule:nonzero;fill:rgb(69.018555%,79.998779%,32.939148%);fill-opacity:1;" d="M 100.304688 195.121094 C 93.476562 192.074219 90.414062 184.078125 93.46875 177.261719 C 96.523438 170.449219 107.132812 198.167969 100.304688 195.121094 "/>
<path style=" stroke:none;fill-rule:nonzero;fill:rgb(62.348938%,72.938538%,29.40979%);fill-opacity:1;" d="M 179.324219 195.738281 C 187.863281 199.542969 191.691406 209.539062 187.875 218.0625 C 184.054688 226.582031 174.039062 230.398438 165.5 226.589844 C 156.964844 222.777344 153.136719 212.785156 156.953125 204.261719 C 160.773438 195.738281 170.792969 191.925781 179.324219 195.738281 "/>
<path style=" stroke:none;fill-rule:nonzero;fill:rgb(46.269226%,59.609985%,19.60907%);fill-opacity:1;" d="M 185.316406 222.113281 C 185.320312 222.113281 185.320312 222.109375 185.324219 222.109375 C 185.320312 222.109375 185.320312 222.113281 185.316406 222.113281 M 185.332031 222.09375 C 185.382812 222.042969 185.425781 221.984375 185.46875 221.929688 C 185.425781 221.984375 185.382812 222.042969 185.332031 222.09375 M 179.324219 195.738281 C 179.121094 195.648438 178.914062 195.558594 178.707031 195.476562 C 178.914062 195.558594 179.121094 195.648438 179.324219 195.738281 M 177.808594 195.148438 C 177.796875 195.140625 177.789062 195.136719 177.769531 195.132812 C 177.785156 195.136719 177.796875 195.140625 177.808594 195.148438 "/>
<path style=" stroke:none;fill-rule:nonzero;fill:rgb(56.858826%,66.268921%,26.669312%);fill-opacity:1;" d="M 176.777344 227.488281 C 181.519531 220.792969 182.535156 210.933594 181.03125 203.308594 C 180.425781 200.261719 179.292969 197.546875 177.769531 195.132812 C 177.789062 195.136719 177.796875 195.140625 177.808594 195.148438 C 178.113281 195.253906 178.414062 195.359375 178.707031 195.476562 C 178.914062 195.558594 179.121094 195.648438 179.324219 195.738281 C 185.617188 198.546875 189.355469 204.714844 189.351562 211.179688 C 189.351562 211.582031 189.339844 211.980469 189.3125 212.378906 C 188.125 213.4375 187.140625 214.75 186.449219 216.289062 C 185.628906 218.125 185.324219 220.058594 185.46875 221.929688 C 185.425781 221.984375 185.382812 222.042969 185.332031 222.09375 C 185.328125 222.097656 185.324219 222.105469 185.324219 222.109375 C 185.320312 222.109375 185.320312 222.113281 185.316406 222.113281 C 183.058594 224.765625 180.0625 226.605469 176.777344 227.488281 "/>
<path style=" stroke:none;fill-rule:nonzero;fill:rgb(69.018555%,79.998779%,32.939148%);fill-opacity:1;" d="M 164.917969 223.957031 C 158.089844 220.902344 155.023438 212.910156 158.078125 206.09375 C 161.136719 199.28125 171.746094 227 164.917969 223.957031 "/>
<path style=" stroke:none;fill-rule:nonzero;fill:rgb(62.348938%,72.938538%,29.40979%);fill-opacity:1;" d="M 86.792969 159.429688 C 92.648438 162.035156 95.269531 168.894531 92.652344 174.734375 C 90.035156 180.578125 83.167969 183.195312 77.316406 180.582031 C 71.460938 177.96875 68.835938 171.117188 71.453125 165.277344 C 74.074219 159.433594 80.945312 156.816406 86.792969 159.429688 "/>
<path style=" stroke:none;fill-rule:nonzero;fill:rgb(46.269226%,59.609985%,19.60907%);fill-opacity:1;" d="M 89.875 178.566406 C 91.023438 177.523438 91.980469 176.238281 92.652344 174.734375 C 93.339844 173.199219 93.667969 171.597656 93.667969 170.019531 C 93.667969 171.597656 93.339844 173.199219 92.652344 174.734375 C 91.980469 176.238281 91.023438 177.53125 89.875 178.566406 M 86.792969 159.429688 C 86.484375 159.292969 86.175781 159.167969 85.863281 159.058594 C 86.175781 159.167969 86.484375 159.292969 86.792969 159.429688 "/>
<path style=" stroke:none;fill-rule:nonzero;fill:rgb(56.858826%,66.268921%,26.669312%);fill-opacity:1;" d="M 85.046875 181.199219 C 88.296875 176.609375 88.992188 169.851562 87.960938 164.621094 C 87.550781 162.535156 86.769531 160.667969 85.726562 159.015625 C 85.773438 159.027344 85.816406 159.046875 85.863281 159.058594 C 86.175781 159.167969 86.484375 159.292969 86.792969 159.429688 C 91.109375 161.355469 93.667969 165.585938 93.667969 170.019531 C 93.667969 171.597656 93.339844 173.199219 92.652344 174.734375 C 91.980469 176.238281 91.023438 177.523438 89.875 178.566406 C 88.492188 179.824219 86.832031 180.722656 85.046875 181.199219 "/>
<path style=" stroke:none;fill-rule:nonzero;fill:rgb(69.018555%,79.998779%,32.939148%);fill-opacity:1;" d="M 76.914062 178.773438 C 72.234375 176.683594 70.136719 171.203125 72.226562 166.53125 C 74.324219 161.855469 81.59375 180.867188 76.914062 178.773438 "/>
<path style=" stroke:none;fill-rule:nonzero;fill:rgb(62.348938%,72.938538%,29.40979%);fill-opacity:1;" d="M 201.785156 210.445312 C 207.640625 213.058594 210.265625 219.910156 207.644531 225.75 C 205.027344 231.589844 198.160156 234.210938 192.308594 231.59375 C 186.457031 228.984375 183.828125 222.128906 186.449219 216.289062 C 189.066406 210.453125 195.9375 207.832031 201.785156 210.445312 "/>
<path style=" stroke:none;fill-rule:nonzero;fill:rgb(46.269226%,59.609985%,19.60907%);fill-opacity:1;" d="M 206.386719 227.910156 C 206.390625 227.90625 206.390625 227.90625 206.390625 227.90625 C 206.390625 227.90625 206.390625 227.90625 206.386719 227.910156 M 206.398438 227.890625 C 206.402344 227.886719 206.402344 227.882812 206.40625 227.878906 C 206.402344 227.882812 206.402344 227.886719 206.398438 227.890625 M 206.410156 227.875 C 206.414062 227.863281 206.421875 227.859375 206.429688 227.851562 C 206.421875 227.859375 206.414062 227.863281 206.410156 227.875 M 206.429688 227.851562 C 206.886719 227.222656 207.289062 226.535156 207.625 225.796875 C 207.289062 226.535156 206.886719 227.222656 206.429688 227.851562 M 207.625 225.796875 C 207.628906 225.789062 207.632812 225.785156 207.636719 225.777344 C 207.632812 225.785156 207.628906 225.789062 207.625 225.796875 M 207.636719 225.773438 C 207.640625 225.761719 207.640625 225.757812 207.644531 225.75 C 208.332031 224.214844 208.660156 222.609375 208.660156 221.03125 C 208.660156 222.609375 208.332031 224.214844 207.644531 225.75 C 207.640625 225.757812 207.640625 225.761719 207.636719 225.773438 "/>
<path style=" stroke:none;fill-rule:nonzero;fill:rgb(39.219666%,51.759338%,19.60907%);fill-opacity:1;" d="M 201.785156 210.445312 C 201.679688 210.398438 201.566406 210.347656 201.460938 210.304688 L 201.457031 210.300781 C 201.566406 210.347656 201.679688 210.394531 201.785156 210.445312 "/>
<path style=" stroke:none;fill-rule:nonzero;fill:rgb(46.269226%,59.609985%,19.60907%);fill-opacity:1;" d="M 201.460938 210.304688 C 201.316406 210.246094 201.175781 210.191406 201.03125 210.136719 C 201.175781 210.191406 201.316406 210.242188 201.457031 210.300781 L 201.460938 210.304688 M 200.875 210.082031 C 200.824219 210.0625 200.773438 210.046875 200.722656 210.03125 C 200.722656 210.03125 200.722656 210.027344 200.722656 210.027344 C 200.773438 210.046875 200.824219 210.0625 200.875 210.082031 "/>
<path style=" stroke:none;fill-rule:nonzero;fill:rgb(56.858826%,66.268921%,26.669312%);fill-opacity:1;" d="M 200.039062 232.210938 C 203.296875 227.628906 203.988281 220.863281 202.953125 215.636719 C 202.542969 213.546875 201.765625 211.6875 200.722656 210.03125 C 200.773438 210.046875 200.824219 210.0625 200.875 210.082031 C 200.929688 210.101562 200.976562 210.121094 201.03125 210.136719 C 201.175781 210.191406 201.316406 210.246094 201.460938 210.304688 C 201.566406 210.347656 201.679688 210.398438 201.785156 210.445312 C 206.101562 212.371094 208.664062 216.601562 208.660156 221.03125 C 208.660156 222.609375 208.332031 224.214844 207.644531 225.75 C 207.640625 225.757812 207.640625 225.761719 207.636719 225.773438 C 207.636719 225.773438 207.636719 225.777344 207.636719 225.777344 C 207.632812 225.785156 207.628906 225.789062 207.625 225.796875 C 207.289062 226.535156 206.886719 227.222656 206.429688 227.851562 C 206.421875 227.859375 206.414062 227.863281 206.410156 227.875 C 206.410156 227.875 206.410156 227.878906 206.40625 227.878906 C 206.402344 227.882812 206.402344 227.886719 206.398438 227.890625 C 206.394531 227.894531 206.394531 227.898438 206.390625 227.90625 C 206.390625 227.90625 206.390625 227.90625 206.386719 227.910156 C 204.796875 230.058594 202.539062 231.546875 200.039062 232.210938 "/>
<path style=" stroke:none;fill-rule:nonzero;fill:rgb(69.018555%,79.998779%,32.939148%);fill-opacity:1;" d="M 191.90625 229.789062 C 187.222656 227.699219 185.128906 222.21875 187.222656 217.546875 C 189.316406 212.875 196.59375 231.878906 191.90625 229.789062 "/>
<path style=" stroke:none;fill-rule:nonzero;fill:rgb(34.509277%,51.759338%,21.569824%);fill-opacity:1;" d="M 75.871094 155.417969 C 70.378906 156.859375 63.386719 160.035156 62.421875 162.191406 C 61.367188 164.539062 63.507812 169.105469 66.617188 174.769531 C 67.695312 176.289062 67.867188 177.402344 69.027344 176.882812 C 69.363281 176.734375 67.851562 172.75 68.210938 172.515625 C 68.402344 172.394531 70.640625 174.808594 70.832031 174.664062 C 71.230469 174.363281 68.6875 170.964844 69.078125 170.566406 C 69.527344 170.128906 72.917969 172.6875 73.339844 172.128906 C 73.554688 171.855469 68.234375 169.058594 68.4375 168.753906 C 68.574219 168.554688 74.230469 170.851562 74.359375 170.632812 C 74.496094 170.40625 69.929688 167.730469 70.0625 167.488281 C 70.449219 166.773438 75.515625 168.433594 75.832031 167.601562 C 75.933594 167.332031 72.261719 165.648438 72.359375 165.386719 C 72.449219 165.121094 76.3125 166.28125 76.402344 166.027344 C 76.496094 165.753906 71.640625 163.511719 71.726562 163.246094 C 71.847656 162.886719 76.902344 164.503906 77.003906 164.160156 C 77.136719 163.722656 72.503906 161.824219 72.609375 161.40625 C 72.828125 160.527344 76.757812 160.113281 77.214844 159.472656 C 77.535156 159.023438 73.171875 158.582031 73.257812 158.125 C 73.59375 156.3125 77.25 155.910156 75.871094 155.417969 "/>
<path style=" stroke:none;fill-rule:nonzero;fill:rgb(34.509277%,51.759338%,21.569824%);fill-opacity:1;" d="M 200.484375 236.160156 C 205.976562 234.714844 212.96875 231.535156 213.933594 229.386719 C 214.988281 227.035156 212.84375 222.472656 209.738281 216.808594 C 208.664062 215.289062 208.488281 214.175781 207.328125 214.695312 C 206.992188 214.847656 208.503906 218.828125 208.148438 219.0625 C 207.957031 219.183594 205.710938 216.773438 205.519531 216.914062 C 205.125 217.214844 207.671875 220.613281 207.273438 221.007812 C 206.824219 221.449219 203.4375 218.894531 203.007812 219.449219 C 202.800781 219.71875 208.121094 222.523438 207.917969 222.820312 C 207.78125 223.023438 202.128906 220.726562 201.996094 220.941406 C 201.859375 221.167969 206.425781 223.84375 206.292969 224.085938 C 205.90625 224.804688 200.839844 223.140625 200.523438 223.976562 C 200.421875 224.246094 204.09375 225.929688 203.996094 226.195312 C 203.902344 226.457031 200.039062 225.296875 199.949219 225.550781 C 199.859375 225.824219 204.714844 228.0625 204.625 228.332031 C 204.511719 228.6875 199.453125 227.074219 199.351562 227.417969 C 199.21875 227.855469 203.851562 229.75 203.746094 230.167969 C 203.523438 231.046875 199.597656 231.464844 199.140625 232.105469 C 198.816406 232.550781 203.179688 232.996094 203.097656 233.453125 C 202.761719 235.265625 199.109375 235.667969 200.484375 236.160156 "/>
<path style=" stroke:none;fill-rule:nonzero;fill:rgb(50.979614%,65.489197%,21.958923%);fill-opacity:1;" d="M 214.289062 343.292969 C 183.097656 354.902344 148.890625 341.167969 138.171875 312.5 C 127.460938 283.835938 143.582031 251.359375 175.484375 239.488281 C 228.921875 219.59375 284.25 228.011719 294.132812 254.445312 C 300.523438 271.542969 267.730469 323.398438 214.289062 343.292969 "/>
<path style=" stroke:none;fill-rule:nonzero;fill:rgb(44.709778%,60.778809%,21.179199%);fill-opacity:1;" d="M 284.324219 287.125 C 277.3125 291.46875 270.699219 296.472656 264.304688 301.667969 C 248.023438 314.925781 234.742188 327.722656 213.695312 332.933594 C 189.425781 338.933594 159.472656 332.957031 139.777344 316.269531 C 151.976562 342.339844 184.5 354.382812 214.289062 343.292969 C 246.484375 331.308594 271.167969 307.726562 284.324219 287.125 "/>
<path style=" stroke:none;fill-rule:nonzero;fill:rgb(98.81897%,82.749939%,42.749023%);fill-opacity:1;" d="M 207.144531 315.539062 C 179.632812 325.777344 148.027344 328.050781 139.769531 305.96875 C 131.507812 283.882812 148.921875 252.980469 177.054688 242.503906 C 224.1875 224.957031 283.1875 235.960938 288.109375 249.132812 C 293.03125 262.308594 254.277344 297.988281 207.144531 315.539062 "/>
<path style=" stroke:none;fill-rule:nonzero;fill:rgb(98.039246%,72.549438%,34.899902%);fill-opacity:1;" d="M 209.886719 289.9375 C 179.386719 303.71875 169.171875 290.816406 166.539062 283.78125 C 163.914062 276.75 176.777344 273.25 200.371094 264.46875 C 223.957031 255.6875 239.128906 250.359375 241.753906 257.394531 C 244.382812 264.425781 230.09375 280.804688 209.886719 289.9375 "/>
<path style=" stroke:none;fill-rule:nonzero;fill:rgb(35.289001%,19.219971%,7.839966%);fill-opacity:1;" d="M 201.699219 288.855469 C 188.953125 293.597656 174.058594 294.003906 169.585938 282.046875 C 165.117188 270.09375 172.566406 254.101562 185.605469 249.246094 C 207.457031 241.109375 235.636719 248.464844 238.304688 255.597656 C 240.972656 262.722656 223.550781 280.71875 201.699219 288.855469 "/>
<path style=" stroke:none;fill-rule:nonzero;fill:rgb(41.178894%,22.749329%,9.799194%);fill-opacity:1;" d="M 192.734375 253.421875 C 210.429688 246.835938 230.203125 250.796875 232.78125 257.695312 C 235.355469 264.585938 182.171875 257.355469 192.734375 253.421875 "/>
</g>
</svg>
