<?xml version="1.0" encoding="UTF-8"?>
<svg xmlns="http://www.w3.org/2000/svg" xmlns:xlink="http://www.w3.org/1999/xlink" width="375pt" height="374.999991pt" viewBox="0 0 375 374.999991" version="1.2">
<defs>
<clipPath id="clip1">
  <path d="M 52.019531 10 L 323.199219 10 L 323.199219 375 L 52.019531 375 Z M 52.019531 10 "/>
</clipPath>
<clipPath id="clip2">
  <path d="M 118 10 L 323.199219 10 L 323.199219 375 L 118 375 Z M 118 10 "/>
</clipPath>
</defs>
<g id="surface1">
<g clip-path="url(#clip1)" clip-rule="nonzero">
<path style=" stroke:none;fill-rule:nonzero;fill:rgb(94.509888%,44.309998%,8.628845%);fill-opacity:1;" d="M 323.199219 19.664062 L 323.199219 365.632812 C 323.199219 370.800781 318.964844 375.027344 313.792969 375.027344 L 61.421875 375.027344 C 56.253906 375.027344 52.019531 370.800781 52.019531 365.632812 L 52.019531 19.664062 C 52.019531 14.480469 56.253906 10.265625 61.421875 10.265625 L 313.792969 10.265625 C 318.964844 10.265625 323.199219 14.480469 323.199219 19.664062 "/>
</g>
<g clip-path="url(#clip2)" clip-rule="nonzero">
<path style=" stroke:none;fill-rule:nonzero;fill:rgb(97.24884%,65.879822%,6.669617%);fill-opacity:1;" d="M 323.199219 19.664062 L 323.199219 365.632812 C 323.199219 370.800781 318.964844 375.027344 313.792969 375.027344 L 128.027344 375.027344 C 122.859375 375.027344 118.625 370.800781 118.625 365.632812 L 118.625 19.664062 C 118.625 14.480469 122.859375 10.265625 128.027344 10.265625 L 313.792969 10.265625 C 318.964844 10.265625 323.199219 14.480469 323.199219 19.664062 "/>
</g>
<path style=" stroke:none;fill-rule:nonzero;fill:rgb(82.749939%,82.348633%,82.348633%);fill-opacity:1;" d="M 295.445312 346.875 L 79.769531 346.875 L 79.769531 38.410156 L 295.445312 38.410156 L 295.445312 346.875 "/>
<path style=" stroke:none;fill-rule:nonzero;fill:rgb(95.689392%,95.689392%,95.689392%);fill-opacity:1;" d="M 295.445312 346.875 L 124.171875 346.875 L 124.171875 38.410156 L 295.445312 38.410156 L 295.445312 346.875 "/>
<path style=" stroke:none;fill-rule:nonzero;fill:rgb(25.878906%,71.369934%,55.288696%);fill-opacity:1;" d="M 238.621094 51.769531 L 140.300781 51.769531 L 140.300781 0.00390625 L 238.621094 0.00390625 L 238.621094 51.769531 "/>
<path style=" stroke:none;fill-rule:nonzero;fill:rgb(42.749023%,79.998779%,66.268921%);fill-opacity:1;" d="M 238.621094 51.769531 L 168.066406 51.769531 L 168.066406 0.00390625 L 238.621094 0.00390625 L 238.621094 51.769531 "/>
<path style=" stroke:none;fill-rule:nonzero;fill:rgb(30.979919%,29.798889%,29.798889%);fill-opacity:1;" d="M 220.914062 176.695312 L 92.71875 176.695312 L 92.71875 175.375 L 220.914062 175.375 L 220.914062 176.695312 "/>
<path style=" stroke:none;fill-rule:nonzero;fill:rgb(30.979919%,29.798889%,29.798889%);fill-opacity:1;" d="M 220.914062 204.894531 L 92.71875 204.894531 L 92.71875 203.570312 L 220.914062 203.570312 L 220.914062 204.894531 "/>
<path style=" stroke:none;fill-rule:nonzero;fill:rgb(30.979919%,29.798889%,29.798889%);fill-opacity:1;" d="M 220.914062 234.675781 L 92.71875 234.675781 L 92.71875 233.351562 L 220.914062 233.351562 L 220.914062 234.675781 "/>
<path style=" stroke:none;fill-rule:nonzero;fill:rgb(30.979919%,29.798889%,29.798889%);fill-opacity:1;" d="M 92.71875 87.078125 L 158.136719 87.078125 L 158.136719 85.757812 L 92.71875 85.757812 Z M 92.71875 87.078125 "/>
<path style=" stroke:none;fill-rule:nonzero;fill:rgb(30.979919%,29.798889%,29.798889%);fill-opacity:1;" d="M 220.914062 115.542969 L 92.71875 115.542969 L 92.71875 114.222656 L 220.914062 114.222656 L 220.914062 115.542969 "/>
<path style=" stroke:none;fill-rule:nonzero;fill:rgb(30.979919%,29.798889%,29.798889%);fill-opacity:1;" d="M 220.914062 145.324219 L 92.71875 145.324219 L 92.71875 144.003906 L 220.914062 144.003906 L 220.914062 145.324219 "/>
<path style=" stroke:none;fill-rule:nonzero;fill:rgb(30.979919%,29.798889%,29.798889%);fill-opacity:1;" d="M 220.914062 264.0625 L 92.71875 264.0625 L 92.71875 262.742188 L 220.914062 262.742188 L 220.914062 264.0625 "/>
<path style=" stroke:none;fill-rule:nonzero;fill:rgb(30.979919%,29.798889%,29.798889%);fill-opacity:1;" d="M 220.914062 292.257812 L 92.71875 292.257812 L 92.71875 290.9375 L 220.914062 290.9375 L 220.914062 292.257812 "/>
<path style=" stroke:none;fill-rule:nonzero;fill:rgb(30.979919%,29.798889%,29.798889%);fill-opacity:1;" d="M 220.914062 322.039062 L 92.71875 322.039062 L 92.71875 320.71875 L 220.914062 320.71875 L 220.914062 322.039062 "/>
<path style=" stroke:none;fill-rule:nonzero;fill:rgb(39.608765%,12.159729%,28.239441%);fill-opacity:1;" d="M 279.667969 114.222656 C 279.667969 125.851562 270.234375 135.277344 258.597656 135.277344 C 246.960938 135.277344 237.527344 125.851562 237.527344 114.222656 C 237.527344 102.59375 246.960938 93.167969 258.597656 93.167969 C 270.234375 93.167969 279.667969 102.59375 279.667969 114.222656 "/>
<path style=" stroke:none;fill-rule:nonzero;fill:rgb(69.018555%,23.529053%,55.688477%);fill-opacity:1;" d="M 276.796875 114.222656 C 276.796875 124.265625 268.648438 132.410156 258.597656 132.410156 C 248.546875 132.410156 240.398438 124.265625 240.398438 114.222656 C 240.398438 104.175781 248.546875 96.035156 258.597656 96.035156 C 268.648438 96.035156 276.796875 104.175781 276.796875 114.222656 "/>
<path style=" stroke:none;fill-rule:nonzero;fill:rgb(95.689392%,95.689392%,95.689392%);fill-opacity:1;" d="M 249.058594 125.53125 L 247.949219 123.207031 C 245.023438 117.085938 239.074219 110.222656 239.019531 110.152344 L 241.746094 107.777344 C 241.972656 108.042969 246.789062 113.589844 250.0625 119.4375 C 254.339844 115.382812 265.515625 105.414062 275.011719 102.421875 L 276.101562 105.867188 C 265.191406 109.308594 251.011719 123.554688 250.871094 123.699219 L 249.058594 125.53125 "/>
<path style=" stroke:none;fill-rule:nonzero;fill:rgb(39.608765%,12.159729%,28.239441%);fill-opacity:1;" d="M 279.667969 175.375 C 279.667969 187.003906 270.234375 196.429688 258.597656 196.429688 C 246.960938 196.429688 237.527344 187.003906 237.527344 175.375 C 237.527344 163.75 246.960938 154.320312 258.597656 154.320312 C 270.234375 154.320312 279.667969 163.75 279.667969 175.375 "/>
<path style=" stroke:none;fill-rule:nonzero;fill:rgb(69.018555%,23.529053%,55.688477%);fill-opacity:1;" d="M 276.796875 175.375 C 276.796875 185.421875 268.648438 193.566406 258.597656 193.566406 C 248.546875 193.566406 240.398438 185.421875 240.398438 175.375 C 240.398438 165.332031 248.546875 157.1875 258.597656 157.1875 C 268.648438 157.1875 276.796875 165.332031 276.796875 175.375 "/>
<path style=" stroke:none;fill-rule:nonzero;fill:rgb(95.689392%,95.689392%,95.689392%);fill-opacity:1;" d="M 249.058594 186.683594 L 247.949219 184.359375 C 245.023438 178.238281 239.074219 171.375 239.019531 171.308594 L 241.746094 168.933594 C 241.972656 169.195312 246.789062 174.746094 250.0625 180.589844 C 254.339844 176.535156 265.515625 166.566406 275.011719 163.574219 L 276.101562 167.027344 C 265.191406 170.460938 251.011719 184.710938 250.871094 184.855469 L 249.058594 186.683594 "/>
<path style=" stroke:none;fill-rule:nonzero;fill:rgb(39.608765%,12.159729%,28.239441%);fill-opacity:1;" d="M 279.667969 236.992188 C 279.667969 248.617188 270.234375 258.042969 258.597656 258.042969 C 246.960938 258.042969 237.527344 248.617188 237.527344 236.992188 C 237.527344 225.363281 246.960938 215.9375 258.597656 215.9375 C 270.234375 215.9375 279.667969 225.363281 279.667969 236.992188 "/>
<path style=" stroke:none;fill-rule:nonzero;fill:rgb(69.018555%,23.529053%,55.688477%);fill-opacity:1;" d="M 276.796875 236.992188 C 276.796875 247.039062 268.648438 255.179688 258.597656 255.179688 C 248.546875 255.179688 240.398438 247.039062 240.398438 236.992188 C 240.398438 226.945312 248.546875 218.804688 258.597656 218.804688 C 268.648438 218.804688 276.796875 226.945312 276.796875 236.992188 "/>
<path style=" stroke:none;fill-rule:nonzero;fill:rgb(95.689392%,95.689392%,95.689392%);fill-opacity:1;" d="M 249.058594 248.300781 L 247.949219 245.976562 C 245.023438 239.851562 239.074219 232.992188 239.019531 232.925781 L 241.746094 230.546875 C 241.972656 230.808594 246.789062 236.359375 250.0625 242.203125 C 254.339844 238.148438 265.515625 228.183594 275.011719 225.191406 L 276.101562 228.640625 C 265.191406 232.078125 251.011719 246.324219 250.871094 246.472656 L 249.058594 248.300781 "/>
<path style=" stroke:none;fill-rule:nonzero;fill:rgb(39.608765%,12.159729%,28.239441%);fill-opacity:1;" d="M 279.667969 303.019531 C 279.667969 314.652344 270.234375 324.074219 258.597656 324.074219 C 246.960938 324.074219 237.527344 314.652344 237.527344 303.019531 C 237.527344 291.394531 246.960938 281.96875 258.597656 281.96875 C 270.234375 281.96875 279.667969 291.394531 279.667969 303.019531 "/>
<path style=" stroke:none;fill-rule:nonzero;fill:rgb(69.018555%,23.529053%,55.688477%);fill-opacity:1;" d="M 276.796875 303.019531 C 276.796875 313.066406 268.648438 321.214844 258.597656 321.214844 C 248.546875 321.214844 240.398438 313.066406 240.398438 303.019531 C 240.398438 292.976562 248.546875 284.832031 258.597656 284.832031 C 268.648438 284.832031 276.796875 292.976562 276.796875 303.019531 "/>
<path style=" stroke:none;fill-rule:nonzero;fill:rgb(95.689392%,95.689392%,95.689392%);fill-opacity:1;" d="M 249.058594 314.328125 L 247.949219 312.007812 C 245.023438 305.882812 239.074219 299.023438 239.019531 298.957031 L 241.746094 296.582031 C 241.972656 296.839844 246.789062 302.394531 250.0625 308.238281 C 254.339844 304.179688 265.515625 294.210938 275.011719 291.21875 L 276.101562 294.671875 C 265.191406 298.109375 251.011719 312.359375 250.871094 312.5 L 249.058594 314.328125 "/>
</g>
</svg>
